<svg width="20" height="20" viewBox="0 0 20 20" fill="none" xmlns="http://www.w3.org/2000/svg">
<path d="M6 9C6 7.89543 6.89543 7 8 7H16C17.1046 7 18 7.89543 18 9V15C18 16.1046 17.1046 17 16 17H8C6.89543 17 6 16.1046 6 15V9Z" fill="#252636" stroke="#C4C4C4" stroke-width="1.25" stroke-linejoin="round"/>
<path d="M3 4C3 2.89543 3.89543 2 5 2H12C13.1046 2 14 2.89543 14 4V15C14 16.1046 13.1046 17 12 17H5C3.89543 17 3 16.1046 3 15V4Z" fill="#252636" stroke="#C4C4C4" stroke-width="1.25" stroke-linejoin="round"/>
<path d="M8.25 14.5C7.83579 14.5 7.5 14.8358 7.5 15.25V16.25C7.5 16.6642 7.83579 17 8.25 17H9.75C10.1642 17 10.5 16.6642 10.5 16.25V15.25C10.5 14.8358 10.1642 14.5 9.75 14.5H8.25Z" stroke="#C4C4C4" stroke-linejoin="round"/>
<rect x="5" y="4.58594" width="1.36068" height="1.36068" rx="0.5" fill="#D9D9D9"/>
<rect x="5" y="7.72266" width="1.36068" height="1.36068" rx="0.5" fill="#D9D9D9"/>
<rect x="5" y="10.8633" width="1.36068" height="1.36068" rx="0.5" fill="#D9D9D9"/>
<rect x="7.71875" y="4.58594" width="1.36068" height="1.36068" rx="0.5" fill="#D9D9D9"/>
<rect x="7.71875" y="7.72266" width="1.36068" height="1.36068" rx="0.5" fill="#D9D9D9"/>
<rect x="7.71875" y="10.8633" width="1.36068" height="1.36068" rx="0.5" fill="#D9D9D9"/>
<rect x="10.4453" y="4.58594" width="1.36068" height="1.36068" rx="0.5" fill="#D9D9D9"/>
<rect x="10.4453" y="7.72266" width="1.36068" height="1.36068" rx="0.5" fill="#D9D9D9"/>
<rect x="10.4453" y="10.8633" width="1.36068" height="1.36068" rx="0.5" fill="#D9D9D9"/>
</svg>
