<svg width="20" height="20" viewBox="0 0 20 20" fill="none" xmlns="http://www.w3.org/2000/svg">
<mask id="mask0_2057_39295" style="mask-type:alpha" maskUnits="userSpaceOnUse" x="0" y="0" width="20" height="20">
<rect width="20" height="20" fill="#C4C4C4"/>
</mask>
<g mask="url(#mask0_2057_39295)">
<path d="M6.66797 2.29297H4.16797C3.13243 2.29297 2.29297 3.13243 2.29297 4.16797V6.66797C2.29297 7.7035 3.13243 8.54297 4.16797 8.54297H6.66797C7.7035 8.54297 8.54297 7.7035 8.54297 6.66797V4.16797C8.54297 3.13243 7.7035 2.29297 6.66797 2.29297Z" stroke="#C4C4C4" stroke-width="2"/>
<path d="M15.8359 2.29297H13.3359C12.3004 2.29297 11.4609 3.13243 11.4609 4.16797V6.66797C11.4609 7.7035 12.3004 8.54297 13.3359 8.54297H15.8359C16.8715 8.54297 17.7109 7.7035 17.7109 6.66797V4.16797C17.7109 3.13243 16.8715 2.29297 15.8359 2.29297Z" stroke="#C4C4C4" stroke-width="2"/>
<path d="M15.8359 11.4609H13.3359C12.3004 11.4609 11.4609 12.3004 11.4609 13.3359V15.8359C11.4609 16.8715 12.3004 17.7109 13.3359 17.7109H15.8359C16.8715 17.7109 17.7109 16.8715 17.7109 15.8359V13.3359C17.7109 12.3004 16.8715 11.4609 15.8359 11.4609Z" stroke="#C4C4C4" stroke-width="2"/>
<path d="M6.66797 11.4609H4.16797C3.13243 11.4609 2.29297 12.3004 2.29297 13.3359V15.8359C2.29297 16.8715 3.13243 17.7109 4.16797 17.7109H6.66797C7.7035 17.7109 8.54297 16.8715 8.54297 15.8359V13.3359C8.54297 12.3004 7.7035 11.4609 6.66797 11.4609Z" stroke="#C4C4C4" stroke-width="2"/>
</g>
</svg>
