<svg width="20" height="20" viewBox="0 0 20 20" fill="none" xmlns="http://www.w3.org/2000/svg">
<path d="M13.1296 18.9022H6.6542C2 18.9022 2 16.4334 2 14.248V13.4385C2 11.6335 2 9.59375 5.84477 9.59375C6.80799 9.59375 7.16414 9.82848 7.66598 10.2008C7.69027 10.2251 7.72264 10.2413 7.74693 10.2737L8.57254 11.1478C9.26865 11.8844 10.5314 11.8844 11.2275 11.1478L12.0531 10.2737C12.0774 10.2494 12.1016 10.2251 12.134 10.2008C12.6359 9.82039 12.992 9.59375 13.9552 9.59375C17.8 9.59375 17.8 11.6335 17.8 13.4385V14.248C17.7838 17.34 16.2216 18.9022 13.1296 18.9022ZM5.84477 10.8079C3.21414 10.8079 3.21414 11.6335 3.21414 13.4385V14.248C3.21414 16.4658 3.21414 17.688 6.6542 17.688H13.1296C15.5417 17.688 16.5697 16.66 16.5697 14.248V13.4385C16.5697 11.6335 16.5697 10.8079 13.939 10.8079C13.3562 10.8079 13.2348 10.8807 12.8868 11.1398L12.1016 11.9735C11.5189 12.5886 10.7337 12.9286 9.89191 12.9286C9.0501 12.9286 8.26496 12.5886 7.68217 11.9735L6.89703 11.1398C6.54898 10.8807 6.42756 10.8079 5.84477 10.8079Z" fill="#C4C4C4"/>
<path d="M15.5562 10.8084C15.2244 10.8084 14.9492 10.5332 14.9492 10.2013V5.34477C14.9492 3.53975 14.9492 2.71414 12.3185 2.71414H7.46196C4.83133 2.71414 4.83133 3.53975 4.83133 5.34477V10.2013C4.83133 10.5332 4.55612 10.8084 4.22426 10.8084C3.89239 10.8084 3.61719 10.5332 3.61719 10.2013V5.34477C3.61719 3.53975 3.61719 1.5 7.46196 1.5H12.3185C16.1633 1.5 16.1633 3.53975 16.1633 5.34477V10.2013C16.1633 10.5332 15.8881 10.8084 15.5562 10.8084Z" fill="#C4C4C4"/>
<path d="M11.4118 8.5657H8.71644C8.38458 8.5657 8.10938 8.2905 8.10938 7.95863C8.10938 7.62677 8.38458 7.35156 8.71644 7.35156H11.4118C11.7437 7.35156 12.0189 7.62677 12.0189 7.95863C12.0189 8.2905 11.7518 8.5657 11.4118 8.5657Z" fill="#C4C4C4"/>
<path d="M12.0917 6.13992H8.04457C7.7127 6.13992 7.4375 5.86472 7.4375 5.53285C7.4375 5.20099 7.7127 4.92578 8.04457 4.92578H12.0917C12.4235 4.92578 12.6987 5.20099 12.6987 5.53285C12.6987 5.86472 12.4316 6.13992 12.0917 6.13992Z" fill="#C4C4C4"/>
</svg>
