<svg width="20" height="20" viewBox="0 0 20 20" fill="none" xmlns="http://www.w3.org/2000/svg">
<g clip-path="url(#clip0_2057_39360)">
<path fill-rule="evenodd" clip-rule="evenodd" d="M17.9818 5.15529C18.3563 5.42279 18.4431 5.94325 18.1756 6.31776L14.0089 12.1511C13.7706 12.4848 13.3249 12.5955 12.9581 12.4121L6.92835 9.39721L3.17557 14.6511C2.90806 15.0256 2.38761 15.1124 2.0131 14.8448C1.63858 14.5773 1.55184 14.0569 1.81935 13.6824L5.98602 7.84903C6.22436 7.51535 6.67003 7.40466 7.0368 7.58804L13.0666 10.6029L16.8193 5.34903C17.0869 4.97452 17.6073 4.88778 17.9818 5.15529Z" fill="#C4C4C4"/>
<path d="M17.5 8.33203C18.8807 8.33203 20 7.21274 20 5.83203C20 4.45132 18.8807 3.33203 17.5 3.33203C16.1193 3.33203 15 4.45132 15 5.83203C15 7.21274 16.1193 8.33203 17.5 8.33203Z" fill="#C4C4C4"/>
<path d="M6.66667 10.832C8.04738 10.832 9.16667 9.71274 9.16667 8.33203C9.16667 6.95132 8.04738 5.83203 6.66667 5.83203C5.28595 5.83203 4.16667 6.95132 4.16667 8.33203C4.16667 9.71274 5.28595 10.832 6.66667 10.832Z" fill="#C4C4C4"/>
<path d="M2.5 16.6654C3.88071 16.6654 5 15.5461 5 14.1654C5 12.7847 3.88071 11.6654 2.5 11.6654C1.11929 11.6654 0 12.7847 0 14.1654C0 15.5461 1.11929 16.6654 2.5 16.6654Z" fill="#C4C4C4"/>
<path d="M15.8333 11.6654C15.8333 13.0461 14.714 14.1654 13.3333 14.1654C11.9526 14.1654 10.8333 13.0461 10.8333 11.6654C10.8333 10.2847 11.9526 9.16536 13.3333 9.16536C14.714 9.16536 15.8333 10.2847 15.8333 11.6654Z" fill="#C4C4C4"/>
</g>
<defs>
<clipPath id="clip0_2057_39360">
<rect width="20" height="20" fill="white"/>
</clipPath>
</defs>
</svg>
