<svg width="480" height="343" viewBox="0 0 480 343" fill="none" xmlns="http://www.w3.org/2000/svg">
<g clip-path="url(#clip0_4587_71649)">
<path d="M48.5158 343.001C70.1693 343.001 87.723 339.624 87.723 335.457C87.723 331.291 70.1693 327.914 48.5158 327.914C26.8623 327.914 9.30859 331.291 9.30859 335.457C9.30859 339.624 26.8623 343.001 48.5158 343.001Z" fill="#F0F0F0"/>
<path d="M19.0703 330.442V322.29L26.3806 321.73V330.162L19.0703 330.442Z" fill="url(#paint0_linear_4587_71649)"/>
<path d="M17.9439 335.217C17.2706 334.991 17.6638 329.316 17.9439 326.506C19.0698 325.66 19.6301 327.066 21.0361 328.471C22.4422 329.876 24.4084 328.191 25.2542 327.346C26.1 326.5 27.7861 325.94 28.912 327.346C30.0379 328.751 36.5024 330.436 39.3199 331.841C42.1373 333.247 40.7259 335.497 39.3199 335.777C37.9139 336.057 18.7897 335.497 17.9493 335.217H17.9439Z" fill="#FBBA54"/>
<path d="M57.9694 330.445L56.752 321.168L64.3424 320.043L66.5942 330.445H57.9694Z" fill="url(#paint1_linear_4587_71649)"/>
<path d="M56.8443 335.221C56.1709 334.995 56.5642 329.32 56.8443 326.51C57.9702 325.664 58.5305 327.07 59.9365 328.475C61.3426 329.88 63.3088 328.195 64.1546 327.349C65.0004 326.504 66.6865 325.944 67.8124 327.349C68.9383 328.755 75.4028 330.44 78.2203 331.845C81.0377 333.251 79.6263 335.501 78.2203 335.781C76.8143 336.061 57.6901 335.501 56.8497 335.221H56.8443Z" fill="#FBBA54"/>
<path d="M11.7541 226.727C10.4019 217.735 13.8173 207.989 15.692 204.242L17.3782 199.746H49.1566C54.7807 240.597 65.8619 322.465 65.1886 323.138C64.3428 323.983 57.5982 323.418 56.4723 323.138C55.5726 322.911 42.2234 264.578 35.6619 235.444C32.7583 264.115 26.9456 321.619 26.9456 322.298C26.9456 323.143 19.3552 324.263 18.7896 322.298C18.224 320.332 17.3836 298.408 17.3836 271.702C17.3836 244.996 13.4456 237.974 11.7595 226.732L11.7541 226.727Z" fill="#74B9FF"/>
<path d="M38.4742 216.043L35.6621 235.437L40.4405 256.517L38.4742 216.043Z" fill="#1D164D"/>
<path d="M1.63158 156.178C-2.64038 164.497 2.47735 170.699 5.56954 172.761C21.0359 166.483 51.2412 152.861 48.3161 148.591C44.6582 143.25 44.3781 134.538 44.3781 131.448C44.3781 128.357 46.0643 121.045 41.0058 117.115C34.9292 112.393 28.6316 117.772 26.0997 120.771C26.0997 119.926 21.8816 119.086 21.8816 122.176C21.8816 125.267 16.8178 137.914 12.5997 145.506C8.3816 153.098 3.31774 152.813 1.63158 156.189V156.178Z" fill="#503544"/>
<path d="M28.067 144.371L27.5067 134.534C27.2266 134.345 26.467 133.774 25.5404 132.848C24.9802 132.288 23.8543 130.883 25.5404 129.758C26.8926 128.859 28.4441 130.318 29.1983 131.723C29.1983 131.255 29.3653 130.151 30.044 129.472C30.7174 128.799 30.8898 126.193 31.1699 124.977C31.1699 124.977 32.8561 125.822 35.6682 126.662C37.92 127.335 40.9152 125.817 41.8525 124.977C41.8525 128.164 41.831 134.211 41.5724 137.344C41.1953 141.84 38.2001 141 38.2001 141V146.621L35.6682 150.557L28.0778 144.376L28.067 144.371Z" fill="url(#paint2_linear_4587_71649)"/>
<path d="M26.6599 134.534C26.9693 134.534 27.2201 134.283 27.2201 133.974C27.2201 133.665 26.9693 133.414 26.6599 133.414C26.3504 133.414 26.0996 133.665 26.0996 133.974C26.0996 134.283 26.3504 134.534 26.6599 134.534Z" fill="#FF5A5A"/>
<path d="M32.0039 138.469C34.0294 140.041 36.9708 140.811 38.1883 140.999V142.685C34.1372 141.785 32.3756 139.497 32.0039 138.469Z" fill="#1D164D"/>
<path d="M40.264 131.416C40.2709 130.842 40.0908 130.375 39.8617 130.372C39.6326 130.369 39.4413 130.832 39.4344 131.406C39.4275 131.98 39.6076 132.448 39.8367 132.45C40.0657 132.453 40.257 131.99 40.264 131.416Z" fill="#151C58"/>
<path d="M35.2581 131.358C35.265 130.784 35.0849 130.316 34.8558 130.314C34.6268 130.311 34.4355 130.774 34.4285 131.348C34.4216 131.922 34.6017 132.389 34.8308 132.392C35.0599 132.394 35.2512 131.931 35.2581 131.358Z" fill="#151C58"/>
<path fill-rule="evenodd" clip-rule="evenodd" d="M40.0356 128.728C40.3696 128.798 40.6551 129.029 40.8114 129.223C40.8545 129.277 40.9406 129.288 40.9945 129.245C41.0484 129.202 41.0592 129.115 41.0161 129.062C40.8329 128.836 40.4989 128.561 40.0895 128.475C39.6639 128.389 39.1845 128.507 38.7319 129.035C38.6835 129.089 38.6888 129.169 38.7481 129.218C38.802 129.266 38.8828 129.261 38.9313 129.202C39.3245 128.739 39.7124 128.663 40.0356 128.728Z" fill="#7C4030"/>
<path fill-rule="evenodd" clip-rule="evenodd" d="M34.8262 128.8C35.1602 128.87 35.4457 129.101 35.6019 129.295C35.645 129.349 35.7312 129.36 35.7851 129.311C35.8389 129.268 35.8497 129.182 35.8012 129.128C35.6181 128.902 35.2841 128.627 34.8746 128.541C34.4491 128.455 33.9696 128.573 33.5171 129.101C33.4686 129.155 33.474 129.236 33.5333 129.284C33.5871 129.333 33.6679 129.327 33.7164 129.268C34.1097 128.805 34.4976 128.73 34.8208 128.794L34.8262 128.8Z" fill="#7C4030"/>
<path d="M37.6328 131.031C37.7783 131.742 38.1015 133.244 38.8503 134.224C39.416 134.962 37.6113 134.983 37.2988 134.558" stroke="#F4AC94" stroke-width="0.5" stroke-linecap="round" stroke-linejoin="round"/>
<path fill-rule="evenodd" clip-rule="evenodd" d="M35.155 135.826C35.0903 135.858 35.0634 135.934 35.0957 135.998C35.3543 136.537 35.7476 136.806 36.1354 136.919C36.5179 137.032 36.8896 136.995 37.1159 136.919C37.1859 136.898 37.2236 136.822 37.2021 136.758C37.1805 136.688 37.1051 136.65 37.0405 136.672C36.8519 136.731 36.5341 136.768 36.2109 136.672C35.893 136.575 35.559 136.354 35.3328 135.885C35.3004 135.821 35.225 135.794 35.1604 135.826H35.155Z" fill="#D74848"/>
<path d="M29.7526 201.712L28.0664 143.25L33.6905 148.311H36.7827L38.1887 143.815C41.8466 162.553 49.0976 200.366 46.6249 201.718C44.1522 203.069 34.3424 202.278 29.7526 201.718V201.712Z" fill="#332C58"/>
<g opacity="0.7">
<path d="M29.1715 163.159L28.6543 161.555C31.4933 160.645 37.9793 159.482 42.2244 161.603L41.4702 163.111C37.71 161.232 31.7788 162.319 29.1715 163.159Z" fill="white"/>
</g>
<path d="M35.3825 147.746C35.1563 147.746 30.7874 144.844 28.0723 143.25L33.1361 151.682L35.3879 148.871L38.2 150.836V143.81C37.3542 145.215 35.6142 147.746 35.3879 147.746H35.3825Z" fill="#E4F2FB"/>
<path d="M79.5295 166.292C79.3033 166.518 75.8717 167.137 74.1855 167.417L74.4657 170.228L77.2777 172.193C79.4326 171.445 84.0277 169.889 85.1537 169.662C86.5597 169.382 89.3717 166.572 90.7778 165.167C92.1838 163.761 90.7778 158.985 89.3717 159.545C87.6209 160.245 83.7476 165.447 84.0277 162.636C84.3079 159.825 81.7759 159.265 82.0615 160.385C82.347 161.505 80.9356 163.756 80.3753 164.321C79.815 164.887 79.815 166.007 79.5295 166.287V166.292Z" fill="url(#paint3_linear_4587_71649)"/>
<path d="M44.9395 207.612C45.1657 204.689 40.3443 163.763 38.1895 143.809C40.4413 144.369 48.4195 146.059 50.0033 148.584C52.8154 153.08 56.1877 162.826 58.4395 169.104L75.3119 167.139C73.9058 171.075 78.404 171.915 77.8438 172.2C77.2835 172.485 56.7533 180.072 55.3473 179.786C54.2214 179.56 50.9407 175.01 49.4431 172.76C48.8828 176.696 49.1629 182.317 50.8491 193.839C52.5353 205.362 58.4395 205.647 56.7533 206.207C55.0672 206.767 44.6593 211.268 44.9395 207.612Z" fill="url(#paint4_linear_4587_71649)"/>
<path d="M49.4424 172.759C49.9757 169.566 50.3528 161.248 47.9178 157.123C47.7616 156.886 47.6162 156.666 47.4707 156.461C47.6269 156.666 47.7778 156.892 47.9178 157.123C50.5252 161.129 54.7917 169.507 53.9406 172.479C52.8147 176.415 54.7864 176.695 55.6267 177.255C56.4671 177.815 56.6126 179.538 55.6267 179.786C54.5008 180.066 51.2201 175.381 49.4424 172.759Z" fill="url(#paint5_linear_4587_71649)"/>
<path d="M9.99333 206.767C12.0189 203.618 12.3367 194.777 12.2451 190.744L22.9331 189.059C25.465 189.904 30.5235 191.756 30.5235 192.429C30.5235 193.274 30.8036 207.607 29.9633 208.167C29.1229 208.727 7.46679 210.698 9.99872 206.762L9.99333 206.767Z" fill="url(#paint6_linear_4587_71649)"/>
<path d="M14.0064 191.595H14.5667L14.2866 190.75L11.7546 191.03C10.9089 196.274 9.28195 206.994 9.50282 207.894C9.78295 209.019 14.2812 209.859 15.1269 209.299C15.9727 208.739 17.939 207.614 15.1269 204.523C12.3149 201.432 15.6872 201.432 15.9727 197.776C16.2582 194.121 13.1607 191.595 14.0064 191.595Z" fill="url(#paint7_linear_4587_71649)"/>
<path d="M25.8206 166.859L13.7266 192.155L29.473 197.776L42.6929 172.481L25.8206 166.859Z" fill="#E4F2FB"/>
<path d="M26.9402 191.028C21.8225 191.691 17.3782 191.685 14.0059 191.588L14.5661 190.463L34.8162 187.652L33.4101 190.183C32.0041 190.463 29.3752 190.711 26.9402 191.028Z" fill="#CDD8DF"/>
<path d="M35.3819 184.285C34.4823 184.511 27.4144 184.005 24.1337 183.439L23.0078 184.285V190.186C26.8488 189.809 35.2149 188.834 37.9139 187.935C41.2862 186.81 38.194 180.629 37.9139 181.469C37.6337 182.309 36.5078 183.999 35.3819 184.279V184.285Z" fill="url(#paint8_linear_4587_71649)"/>
<path d="M12.5999 151.682C14.3992 147.859 23.8481 144.467 28.0662 143.25C29.1813 145.258 29.747 160.437 30.0271 168.088V168.265L25.8144 166.86C18.7842 181.758 18.5041 182.038 18.5041 182.038L24.4084 183.444C23.2825 184.004 24.1282 189.065 23.8481 189.91C23.568 190.755 20.1903 190.755 11.474 191.035C2.75766 191.315 1.91189 187.665 2.19202 183.449C2.47215 179.233 10.3481 156.468 12.5999 151.687V151.682Z" fill="url(#paint9_linear_4587_71649)"/>
<path d="M13.1602 181.194L19.0644 162.359C18.127 167.324 15.9722 179.395 15.9722 180.068C15.9722 180.741 17.8469 181.662 18.5041 182.034L13.1602 181.188V181.194Z" fill="url(#paint10_linear_4587_71649)"/>
<path d="M437.701 342.442C459.355 342.442 476.909 339.065 476.909 334.899C476.909 330.733 459.355 327.355 437.701 327.355C416.048 327.355 398.494 330.733 398.494 334.899C398.494 339.065 416.048 342.442 437.701 342.442Z" fill="#F0F0F0"/>
<path d="M427.407 330.723L427.127 324.257L434.717 323.977V326.227L433.872 330.443L427.402 330.723H427.407Z" fill="url(#paint11_linear_4587_71649)"/>
<path d="M413.907 330.722C419.531 329.597 424.126 326.318 425.721 324.821H427.407C427.407 328.477 429.982 329.118 431.905 328.757C433.828 328.396 434.717 323.981 434.997 324.821C435.277 325.666 435.557 335.503 433.871 335.503C432.185 335.503 408.843 336.063 408.843 335.503C408.843 334.943 406.877 332.133 413.907 330.727V330.722Z" fill="#FB5666"/>
<path d="M457.186 330.723L456.906 324.257L464.497 323.977V326.227L463.651 330.443L457.181 330.723H457.186Z" fill="url(#paint12_linear_4587_71649)"/>
<path d="M443.686 330.722C449.31 329.597 453.905 326.318 455.5 324.821H457.186C457.186 328.477 459.761 329.118 461.684 328.757C463.607 328.396 464.496 323.981 464.776 324.821C465.057 325.666 465.337 335.503 463.651 335.503C461.964 335.503 438.622 336.063 438.622 335.503C438.622 334.943 436.656 332.133 443.686 330.727V330.722Z" fill="#FB5666"/>
<path d="M424.876 324.257C424.649 323.132 424.779 243.213 424.876 203.397L464.81 200.586C464.993 241.813 465.263 324.484 464.81 325.383C464.25 326.508 456.094 325.383 455.248 324.823C454.402 324.263 451.876 286.594 451.59 282.944C451.31 279.288 444.84 236.564 444.56 238.534C444.28 240.5 435.844 322.298 435.564 324.263C435.284 326.228 425.156 325.668 424.876 324.263V324.257Z" fill="#C9EAFD"/>
<path d="M442.028 215.766L444.56 238.816L441.748 264.391L442.028 215.766Z" fill="#1D164D"/>
<path d="M435.564 132.006C435.79 130.208 437.719 122.449 438.656 118.793L453.842 123.009L451.876 128.91L455.534 127.505L457.5 129.755L455.534 133.691L452.442 134.251L450.19 146.059L443.16 151.12L438.942 147.75L439.787 139.598C435.009 138.752 435.289 134.257 435.569 132.011L435.564 132.006Z" fill="url(#paint13_linear_4587_71649)"/>
<path d="M447.932 137.63C443.994 139.881 441.182 139.596 439.776 139.596L439.496 142.686C442.648 142.912 446.623 139.316 447.932 137.625V137.63Z" fill="#1D164D"/>
<path d="M439.759 126.714C439.95 126.039 439.887 125.429 439.618 125.353C439.349 125.277 438.976 125.762 438.784 126.438C438.593 127.113 438.656 127.722 438.925 127.798C439.194 127.874 439.567 127.389 439.759 126.714Z" fill="#151C58"/>
<path d="M445.614 128.374C445.806 127.699 445.743 127.09 445.474 127.013C445.205 126.937 444.831 127.423 444.64 128.098C444.448 128.773 444.511 129.382 444.78 129.458C445.049 129.535 445.423 129.049 445.614 128.374Z" fill="#151C58"/>
<path fill-rule="evenodd" clip-rule="evenodd" d="M439.953 123.346C439.544 123.313 439.129 123.48 438.876 123.658C438.8 123.706 438.709 123.69 438.655 123.615C438.606 123.545 438.623 123.443 438.693 123.394C438.983 123.195 439.474 122.99 439.98 123.028C440.508 123.071 441.025 123.378 441.37 124.153C441.408 124.234 441.37 124.326 441.289 124.363C441.208 124.401 441.117 124.363 441.079 124.282C440.777 123.604 440.346 123.378 439.948 123.346H439.953Z" fill="#7C4030"/>
<path fill-rule="evenodd" clip-rule="evenodd" d="M446.014 125.236C445.604 125.204 445.189 125.371 444.936 125.549C444.861 125.597 444.769 125.581 444.715 125.505C444.667 125.435 444.683 125.333 444.753 125.285C445.044 125.085 445.534 124.881 446.041 124.919C446.569 124.962 447.086 125.269 447.43 126.044C447.468 126.125 447.43 126.216 447.35 126.254C447.269 126.292 447.177 126.254 447.14 126.173C446.838 125.495 446.407 125.269 446.008 125.236H446.014Z" fill="#7C4030"/>
<path fill-rule="evenodd" clip-rule="evenodd" d="M442.028 126.755C442.098 126.793 442.125 126.879 442.082 126.944C441.672 127.719 440.757 129.394 439.512 130.298C439.41 130.374 439.367 130.433 439.351 130.481C439.34 130.519 439.34 130.562 439.361 130.605C439.41 130.707 439.566 130.82 439.792 130.917C440.019 131.009 440.288 131.074 440.525 131.09C440.643 131.095 440.757 131.09 440.848 131.079C440.94 131.063 441.004 131.036 441.047 131.009C441.107 130.96 441.198 130.977 441.247 131.036C441.29 131.1 441.279 131.187 441.22 131.235C441.128 131.3 441.015 131.337 440.897 131.359C440.778 131.38 440.649 131.38 440.514 131.375C440.245 131.359 439.948 131.289 439.695 131.181C439.453 131.079 439.216 130.934 439.124 130.734C439.07 130.627 439.049 130.508 439.097 130.39C439.14 130.271 439.232 130.169 439.361 130.077C440.541 129.216 441.43 127.601 441.845 126.815C441.882 126.745 441.969 126.718 442.033 126.755H442.028Z" fill="#F4AC94"/>
<path fill-rule="evenodd" clip-rule="evenodd" d="M443.202 133.341C443.261 133.4 443.272 133.502 443.213 133.567C442.717 134.105 442.168 134.283 441.678 134.288C441.193 134.288 440.772 134.116 440.53 133.949C440.455 133.901 440.433 133.804 440.487 133.728C440.535 133.658 440.638 133.637 440.708 133.685C440.913 133.82 441.263 133.971 441.683 133.971C442.087 133.971 442.556 133.825 442.981 133.357C443.035 133.292 443.137 133.287 443.207 133.346L443.202 133.341Z" fill="#D74848"/>
<path d="M438.936 119.64C436.463 116.49 437.346 110.831 438.09 108.398C438.936 106.992 440.342 107.272 441.182 107.838C442.022 108.403 448.772 114.019 448.492 113.459C448.212 112.899 449.053 110.648 449.618 111.774C450.184 112.899 454.962 118.24 455.522 117.675C456.083 117.11 454.677 114.864 458.334 117.395C461.26 119.419 459.924 123.485 458.895 125.267C463.113 126.112 461.707 129.203 459.175 132.013C456.853 134.592 453.831 135.761 451.865 137.074L452.425 133.984C453.271 134.264 456.643 132.579 456.083 130.048C455.63 128.023 452.894 129.391 451.585 130.328C451.132 128.303 452.333 124.987 452.991 123.581C449.618 124.427 445.68 120.771 445.115 120.771C444.549 120.771 445.96 122.176 445.96 122.736C445.96 123.296 442.022 123.581 438.93 119.646L438.936 119.64Z" fill="#4E3644"/>
<path d="M442.874 148.027C440.401 147.801 439.404 145.873 439.216 144.936C436.124 163.77 430.273 201.827 431.625 203.399C432.977 204.971 443.999 204.056 449.343 203.399L450.469 144.656C449.343 146.342 445.971 148.312 442.879 148.027H442.874Z" fill="#332C58"/>
<path fill-rule="evenodd" clip-rule="evenodd" d="M442.453 151.001C440.277 150.85 438.876 149.385 438.246 148.088L438.505 147.964C439.097 149.197 440.422 150.575 442.47 150.715C444.517 150.861 447.339 149.768 450.927 145.961L451.132 146.155C447.523 149.988 444.624 151.151 442.453 150.995V151.001Z" fill="#755CFD"/>
<path d="M422.063 152.524C423.189 149.6 433.969 146.246 439.216 144.938C438.37 150.747 436.63 162.926 436.404 165.177C436.178 167.428 434.06 195.91 433.031 209.867C431.345 210.146 423.75 209.021 423.75 207.616V200.869L415.033 179.225C416.908 171.541 420.937 155.448 422.063 152.524Z" fill="#74B9FF"/>
<path fill-rule="evenodd" clip-rule="evenodd" d="M430.92 209.859C431.593 182.642 435.698 155.5 437.67 145.469L437.95 145.523C435.984 155.543 431.873 182.669 431.2 209.865H430.92V209.859Z" fill="#C2E1FF"/>
<path d="M448.497 209.867C447.597 208.968 447.559 196.562 447.651 190.473L466.21 192.158C466.21 192.535 466.156 194.575 465.929 199.744C465.649 206.211 469.302 207.616 468.181 208.736C467.061 209.856 449.623 210.987 448.497 209.861V209.867Z" fill="#74B9FF"/>
<path d="M440.061 173.182C439.835 173.409 437.249 179.084 436.123 181.894C436.403 182.923 436.743 184.813 436.969 184.813C437.249 184.813 441.187 174.695 441.187 173.85C441.187 173.005 440.341 172.903 440.061 173.182Z" fill="#FF7878"/>
<path d="M442.593 181.474C443.999 182.421 444.656 184.564 445.405 185.689L445.125 189.905C443.439 190.185 438.94 188.78 438.375 187.94C437.809 187.1 435.843 181.474 436.123 180.914C436.403 180.354 440.486 180.058 442.593 181.474Z" fill="url(#paint14_linear_4587_71649)"/>
<path d="M470.993 153.648C469.194 150.724 450.463 144.656 450.463 144.656C450.463 144.656 449.558 147.181 449.337 148.872C447.651 161.8 448.028 175.013 447.931 184.85L445.399 185.41C445.022 186.907 444.446 189.965 445.119 190.186C445.965 190.466 463.397 192.151 472.114 192.716C480.83 193.282 479.704 188.5 479.99 185.41C480.27 182.319 473.24 157.304 470.993 153.648Z" fill="#74B9FF"/>
<path d="M460.871 180.067C461.997 178.661 460.871 163.203 460.871 163.203C460.871 163.203 465.009 181.58 464.244 182.037C462.838 182.883 447.932 184.848 447.932 184.848C447.932 184.848 459.842 181.348 460.866 180.072L460.871 180.067Z" fill="#4FA4F9"/>
<path fill-rule="evenodd" clip-rule="evenodd" d="M449.483 184.29C449.257 158.876 450.986 148.107 451.74 145.184L452.01 145.254C451.266 148.14 449.542 158.881 449.763 184.284H449.483V184.29Z" fill="#C2E1FF"/>
<path d="M456.373 194.969C454.121 192.718 448.965 190.941 447.656 190.473L467.621 192.438C467.998 197.591 468.687 208.063 468.467 208.742C465.558 209.49 459.863 210.201 460.311 207.056C460.758 203.912 459.001 202.372 458.059 201.995C454.967 200.03 459.185 197.779 456.373 194.969Z" fill="#4FA4F9"/>
<path d="M449.623 190.75C449.623 194.966 449.623 202.838 450.469 210.144" stroke="#C2E1FF" stroke-width="0.5"/>
<path fill-rule="evenodd" clip-rule="evenodd" d="M423.34 169.805C422.839 167.549 420.84 166.72 418.981 166.763C418.157 166.784 417.344 167.253 416.719 167.899C416.412 168.216 416.159 168.566 415.992 168.895C415.819 169.229 415.738 169.514 415.738 169.713H414.893C414.893 169.326 415.027 168.906 415.237 168.502C415.447 168.098 415.749 167.683 416.11 167.306C416.827 166.569 417.839 165.939 418.96 165.912C421.039 165.863 423.539 166.811 424.164 169.616L423.34 169.799V169.805Z" fill="#2C3D48"/>
<path d="M418.405 202.27L406.877 169.383H433.031L443.999 202.27H418.411H418.405Z" fill="#E4F2FB"/>
<path d="M410.249 184.848C407.776 183.276 409.123 179.695 409.969 178.102C410.249 179.227 415.032 180.912 416.719 181.192C418.405 181.472 419.811 183.157 418.97 185.688C418.13 188.219 413.346 186.813 410.254 184.843L410.249 184.848Z" fill="url(#paint15_linear_4587_71649)"/>
<path d="M358.504 98.9336H354.566V126.48H358.504V98.9336Z" fill="#D4ECFE"/>
<path d="M347.817 84.8828H302.824V88.8187H347.817V84.8828Z" fill="#D4ECFE"/>
<path d="M337.592 72.5137C337.592 70.963 338.852 69.7031 340.404 69.7031H362.34V72.5137H337.592Z" fill="#3C9BFA"/>
<path fill-rule="evenodd" clip-rule="evenodd" d="M364.873 66.6133H374.435C376.401 66.6133 376.967 67.4586 376.967 69.1439V72.5144H376.864C379.283 72.5144 381.125 74.6735 380.754 77.0588L377.489 97.8582C377.187 99.775 375.539 101.186 373.6 101.186H340.965C339.025 101.186 337.377 99.775 337.075 97.8582L333.811 77.0588C333.434 74.6735 335.281 72.5144 337.7 72.5144H358.968L361.98 68.2986C361.98 68.2986 362.906 66.6133 364.873 66.6133Z" fill="#74B9FF"/>
<path d="M353.931 93.3204C350.817 94.2734 347.504 92.5181 346.551 89.406C345.597 86.2939 347.353 82.9826 350.467 82.0296C353.155 81.2058 355.989 82.4011 357.325 84.7432L366.601 81.9057C367.285 81.6957 368.018 82.0834 368.228 82.7672C368.438 83.451 368.05 84.1833 367.366 84.3933L366.968 84.5171L367.479 86.1916C367.625 86.6708 367.377 87.1715 366.925 87.3115C366.472 87.4515 365.982 87.1769 365.836 86.6977L365.826 86.6654C365.777 86.5039 365.61 86.4177 365.448 86.4662L364.991 86.6062C364.829 86.6546 364.743 86.8269 364.791 86.9831L364.802 87.0154C364.947 87.4946 364.7 87.9953 364.247 88.1353C363.795 88.2753 363.304 88.0007 363.159 87.5215L362.647 85.847L358.095 87.2415C358.3 89.9337 356.619 92.5074 353.936 93.3311L353.931 93.3204ZM355.38 86.7031C354.841 84.9478 352.983 83.9625 351.227 84.5009C349.47 85.0394 348.485 86.8969 349.023 88.6522C349.562 90.4075 351.42 91.3928 353.177 90.8544C354.933 90.316 355.919 88.4584 355.38 86.7031Z" fill="#FFDC60"/>
<path d="M131.838 81.5117H127.9V126.481H131.838V81.5117Z" fill="#D4ECFE"/>
<path d="M188.079 71.1562H143.086V75.0922H188.079V71.1562Z" fill="#D4ECFE"/>
<path d="M110.365 59.9082C110.365 58.3576 111.626 57.0977 113.177 57.0977H135.114V59.9082H110.365Z" fill="#3C9BFA"/>
<path fill-rule="evenodd" clip-rule="evenodd" d="M137.64 54.0078H147.202C149.169 54.0078 149.734 54.8531 149.734 56.5384V59.909H149.632C152.051 59.909 153.893 62.0681 153.521 64.4533L150.257 85.2528C149.955 87.1696 148.307 88.5803 146.367 88.5803H113.732C111.793 88.5803 110.145 87.1696 109.843 85.2528L106.578 64.4533C106.201 62.0681 108.049 59.909 110.468 59.909H131.736L134.747 55.6931C134.747 55.6931 135.674 54.0078 137.64 54.0078Z" fill="#74B9FF"/>
<path d="M130.153 65.5312C125.499 65.5312 121.717 69.3164 121.717 73.963C121.717 78.6097 125.504 82.3948 130.153 82.3948C134.802 82.3948 138.589 78.6097 138.589 73.963C138.589 69.3164 134.802 65.5312 130.153 65.5312ZM134.43 72.1755L129.862 76.7413C129.727 76.8759 129.544 76.9459 129.366 76.9459C129.189 76.9459 129.006 76.8759 128.871 76.7413L126.587 74.4584C126.312 74.1838 126.312 73.7369 126.587 73.4623C126.861 73.1877 127.303 73.1877 127.578 73.4623L129.366 75.2499L133.439 71.1794C133.714 70.9048 134.161 70.9048 134.436 71.1794C134.71 71.454 134.71 71.8955 134.436 72.1701L134.43 72.1755Z" fill="#194079"/>
<path d="M402.371 124.855H280.321C277.215 124.855 274.697 127.372 274.697 130.477V299.629C274.697 302.734 277.215 305.25 280.321 305.25H402.371C405.477 305.25 407.995 302.734 407.995 299.629V130.477C407.995 127.372 405.477 124.855 402.371 124.855Z" fill="#B3DCFF"/>
<path d="M394.588 271.211H288.107C285 271.211 282.482 273.728 282.482 276.832V285.038C282.482 288.142 285 290.659 288.107 290.659H394.588C397.694 290.659 400.212 288.142 400.212 285.038V276.832C400.212 273.728 397.694 271.211 394.588 271.211Z" fill="#5995CD"/>
<path d="M379.223 279.477H343.857C343.548 279.477 343.297 279.727 343.297 280.037V282.319C343.297 282.629 343.548 282.879 343.857 282.879H379.223C379.533 282.879 379.784 282.629 379.784 282.319V280.037C379.784 279.727 379.533 279.477 379.223 279.477Z" fill="#D4ECFE"/>
<path d="M288.807 281.016C288.807 280.144 289.469 279.417 290.337 279.336L302.528 278.195C303.519 278.103 304.37 278.879 304.37 279.875V282.491C304.37 283.488 303.513 284.263 302.528 284.171L290.337 283.03C289.469 282.949 288.807 282.222 288.807 281.35V281.016Z" fill="#D4ECFE"/>
<path d="M392.696 276.559H387.309C386.378 276.559 385.623 277.313 385.623 278.244V283.628C385.623 284.559 386.378 285.313 387.309 285.313H392.696C393.628 285.313 394.382 284.559 394.382 283.628V278.244C394.382 277.313 393.628 276.559 392.696 276.559Z" fill="#194079"/>
<path d="M311.185 282.395C311.991 282.395 312.644 281.742 312.644 280.936C312.644 280.13 311.991 279.477 311.185 279.477C310.378 279.477 309.725 280.13 309.725 280.936C309.725 281.742 310.378 282.395 311.185 282.395Z" fill="#7AFF80"/>
<path d="M318.483 282.395C319.29 282.395 319.943 281.742 319.943 280.936C319.943 280.13 319.29 279.477 318.483 279.477C317.677 279.477 317.023 280.13 317.023 280.936C317.023 281.742 317.677 282.395 318.483 282.395Z" fill="#7AFF80"/>
<path d="M333.077 282.395C333.883 282.395 334.537 281.742 334.537 280.936C334.537 280.13 333.883 279.477 333.077 279.477C332.271 279.477 331.617 280.13 331.617 280.936C331.617 281.742 332.271 282.395 333.077 282.395Z" fill="#FFE143"/>
<path d="M325.784 282.395C326.59 282.395 327.244 281.742 327.244 280.936C327.244 280.13 326.59 279.477 325.784 279.477C324.978 279.477 324.324 280.13 324.324 280.936C324.324 281.742 324.978 282.395 325.784 282.395Z" fill="#FF5656"/>
<path d="M394.588 244.465H288.107C285 244.465 282.482 246.982 282.482 250.086V258.292C282.482 261.396 285 263.913 288.107 263.913H394.588C397.694 263.913 400.212 261.396 400.212 258.292V250.086C400.212 246.982 397.694 244.465 394.588 244.465Z" fill="#5995CD"/>
<path d="M379.223 252.73H343.857C343.548 252.73 343.297 252.981 343.297 253.29V255.573C343.297 255.883 343.548 256.133 343.857 256.133H379.223C379.533 256.133 379.784 255.883 379.784 255.573V253.29C379.784 252.981 379.533 252.73 379.223 252.73Z" fill="#D4ECFE"/>
<path d="M288.807 254.27C288.807 253.398 289.469 252.671 290.337 252.59L302.528 251.449C303.519 251.357 304.37 252.133 304.37 253.129V255.745C304.37 256.741 303.513 257.517 302.528 257.425L290.337 256.284C289.469 256.203 288.807 255.476 288.807 254.604V254.27Z" fill="#D4ECFE"/>
<path d="M392.696 249.812H387.309C386.378 249.812 385.623 250.567 385.623 251.498V256.882C385.623 257.813 386.378 258.567 387.309 258.567H392.696C393.628 258.567 394.382 257.813 394.382 256.882V251.498C394.382 250.567 393.628 249.812 392.696 249.812Z" fill="#194079"/>
<path d="M311.185 255.649C311.991 255.649 312.644 254.995 312.644 254.19C312.644 253.384 311.991 252.73 311.185 252.73C310.378 252.73 309.725 253.384 309.725 254.19C309.725 254.995 310.378 255.649 311.185 255.649Z" fill="#FFE143"/>
<path d="M318.483 255.649C319.29 255.649 319.943 254.995 319.943 254.19C319.943 253.384 319.29 252.73 318.483 252.73C317.677 252.73 317.023 253.384 317.023 254.19C317.023 254.995 317.677 255.649 318.483 255.649Z" fill="#FF5656"/>
<path d="M333.077 255.649C333.883 255.649 334.537 254.995 334.537 254.19C334.537 253.384 333.883 252.73 333.077 252.73C332.271 252.73 331.617 253.384 331.617 254.19C331.617 254.995 332.271 255.649 333.077 255.649Z" fill="#194079"/>
<path d="M325.784 255.649C326.59 255.649 327.244 254.995 327.244 254.19C327.244 253.384 326.59 252.73 325.784 252.73C324.978 252.73 324.324 253.384 324.324 254.19C324.324 254.995 324.978 255.649 325.784 255.649Z" fill="#194079"/>
<path d="M394.588 217.723H288.107C285 217.723 282.482 220.239 282.482 223.344V231.549C282.482 234.654 285 237.171 288.107 237.171H394.588C397.694 237.171 400.212 234.654 400.212 231.549V223.344C400.212 220.239 397.694 217.723 394.588 217.723Z" fill="#5995CD"/>
<path d="M379.223 225.988H343.857C343.548 225.988 343.297 226.239 343.297 226.548V228.831C343.297 229.14 343.548 229.391 343.857 229.391H379.223C379.533 229.391 379.784 229.14 379.784 228.831V226.548C379.784 226.239 379.533 225.988 379.223 225.988Z" fill="#D4ECFE"/>
<path d="M288.807 227.528C288.807 226.656 289.469 225.929 290.337 225.848L302.528 224.707C303.519 224.615 304.37 225.39 304.37 226.386V229.003C304.37 229.999 303.513 230.775 302.528 230.683L290.337 229.542C289.469 229.461 288.807 228.734 288.807 227.862V227.528Z" fill="#D4ECFE"/>
<path d="M392.696 223.074H387.309C386.378 223.074 385.623 223.829 385.623 224.76V230.144C385.623 231.075 386.378 231.829 387.309 231.829H392.696C393.628 231.829 394.382 231.075 394.382 230.144V224.76C394.382 223.829 393.628 223.074 392.696 223.074Z" fill="#194079"/>
<path d="M311.185 228.907C311.991 228.907 312.644 228.253 312.644 227.447C312.644 226.642 311.991 225.988 311.185 225.988C310.378 225.988 309.725 226.642 309.725 227.447C309.725 228.253 310.378 228.907 311.185 228.907Z" fill="#D4ECFE"/>
<path d="M318.483 228.907C319.29 228.907 319.943 228.253 319.943 227.447C319.943 226.642 319.29 225.988 318.483 225.988C317.677 225.988 317.023 226.642 317.023 227.447C317.023 228.253 317.677 228.907 318.483 228.907Z" fill="#FF5656"/>
<path d="M333.077 228.907C333.883 228.907 334.537 228.253 334.537 227.447C334.537 226.642 333.883 225.988 333.077 225.988C332.271 225.988 331.617 226.642 331.617 227.447C331.617 228.253 332.271 228.907 333.077 228.907Z" fill="#7AFF80"/>
<path d="M325.784 228.907C326.59 228.907 327.244 228.253 327.244 227.447C327.244 226.642 326.59 225.988 325.784 225.988C324.978 225.988 324.324 226.642 324.324 227.447C324.324 228.253 324.978 228.907 325.784 228.907Z" fill="#D4ECFE"/>
<path d="M394.588 190.977H288.107C285 190.977 282.482 193.493 282.482 196.598V204.803C282.482 207.908 285 210.425 288.107 210.425H394.588C397.694 210.425 400.212 207.908 400.212 204.803V196.598C400.212 193.493 397.694 190.977 394.588 190.977Z" fill="#5995CD"/>
<path d="M379.223 199.246H343.857C343.548 199.246 343.297 199.497 343.297 199.806V202.089C343.297 202.398 343.548 202.649 343.857 202.649H379.223C379.533 202.649 379.784 202.398 379.784 202.089V199.806C379.784 199.497 379.533 199.246 379.223 199.246Z" fill="#D4ECFE"/>
<path d="M288.807 200.782C288.807 199.91 289.469 199.183 290.337 199.102L302.528 197.96C303.519 197.869 304.37 198.644 304.37 199.64V202.257C304.37 203.253 303.513 204.029 302.528 203.937L290.337 202.796C289.469 202.715 288.807 201.988 288.807 201.116V200.782Z" fill="#D4ECFE"/>
<path d="M392.696 196.328H387.309C386.378 196.328 385.623 197.083 385.623 198.013V203.398C385.623 204.328 386.378 205.083 387.309 205.083H392.696C393.628 205.083 394.382 204.328 394.382 203.398V198.013C394.382 197.083 393.628 196.328 392.696 196.328Z" fill="#194079"/>
<path d="M311.185 202.16C311.991 202.16 312.644 201.507 312.644 200.701C312.644 199.895 311.991 199.242 311.185 199.242C310.378 199.242 309.725 199.895 309.725 200.701C309.725 201.507 310.378 202.16 311.185 202.16Z" fill="#FF5656"/>
<path d="M318.483 202.16C319.29 202.16 319.943 201.507 319.943 200.701C319.943 199.895 319.29 199.242 318.483 199.242C317.677 199.242 317.023 199.895 317.023 200.701C317.023 201.507 317.677 202.16 318.483 202.16Z" fill="#FFE143"/>
<path d="M333.077 202.16C333.883 202.16 334.537 201.507 334.537 200.701C334.537 199.895 333.883 199.242 333.077 199.242C332.271 199.242 331.617 199.895 331.617 200.701C331.617 201.507 332.271 202.16 333.077 202.16Z" fill="#194079"/>
<path d="M325.784 202.16C326.59 202.16 327.244 201.507 327.244 200.701C327.244 199.895 326.59 199.242 325.784 199.242C324.978 199.242 324.324 199.895 324.324 200.701C324.324 201.507 324.978 202.16 325.784 202.16Z" fill="#FF5656"/>
<path d="M394.588 164.234H288.107C285 164.234 282.482 166.751 282.482 169.856V178.061C282.482 181.166 285 183.682 288.107 183.682H394.588C397.694 183.682 400.212 181.166 400.212 178.061V169.856C400.212 166.751 397.694 164.234 394.588 164.234Z" fill="#5995CD"/>
<path d="M379.223 172.504H343.857C343.548 172.504 343.297 172.755 343.297 173.064V175.347C343.297 175.656 343.548 175.907 343.857 175.907H379.223C379.533 175.907 379.784 175.656 379.784 175.347V173.064C379.784 172.755 379.533 172.504 379.223 172.504Z" fill="#D4ECFE"/>
<path d="M288.807 174.04C288.807 173.167 289.469 172.441 290.337 172.36L302.528 171.218C303.519 171.127 304.37 171.902 304.37 172.898V175.515C304.37 176.511 303.513 177.286 302.528 177.195L290.337 176.053C289.469 175.973 288.807 175.246 288.807 174.373V174.04Z" fill="#D4ECFE"/>
<path d="M392.696 169.586H387.309C386.378 169.586 385.623 170.34 385.623 171.271V176.655C385.623 177.586 386.378 178.341 387.309 178.341H392.696C393.628 178.341 394.382 177.586 394.382 176.655V171.271C394.382 170.34 393.628 169.586 392.696 169.586Z" fill="#194079"/>
<path d="M311.185 175.422C311.991 175.422 312.644 174.769 312.644 173.963C312.644 173.157 311.991 172.504 311.185 172.504C310.378 172.504 309.725 173.157 309.725 173.963C309.725 174.769 310.378 175.422 311.185 175.422Z" fill="#FFE143"/>
<path d="M318.483 175.422C319.29 175.422 319.943 174.769 319.943 173.963C319.943 173.157 319.29 172.504 318.483 172.504C317.677 172.504 317.023 173.157 317.023 173.963C317.023 174.769 317.677 175.422 318.483 175.422Z" fill="#7AFF80"/>
<path d="M333.077 175.422C333.883 175.422 334.537 174.769 334.537 173.963C334.537 173.157 333.883 172.504 333.077 172.504C332.271 172.504 331.617 173.157 331.617 173.963C331.617 174.769 332.271 175.422 333.077 175.422Z" fill="#FFE143"/>
<path d="M325.784 175.422C326.59 175.422 327.244 174.769 327.244 173.963C327.244 173.157 326.59 172.504 325.784 172.504C324.978 172.504 324.324 173.157 324.324 173.963C324.324 174.769 324.978 175.422 325.784 175.422Z" fill="#FF5656"/>
<path d="M394.588 137.496H288.107C285 137.496 282.482 140.013 282.482 143.117V151.323C282.482 154.427 285 156.944 288.107 156.944H394.588C397.694 156.944 400.212 154.427 400.212 151.323V143.117C400.212 140.013 397.694 137.496 394.588 137.496Z" fill="#5995CD"/>
<path d="M379.223 145.762H343.857C343.548 145.762 343.297 146.012 343.297 146.322V148.605C343.297 148.914 343.548 149.165 343.857 149.165H379.223C379.533 149.165 379.784 148.914 379.784 148.605V146.322C379.784 146.012 379.533 145.762 379.223 145.762Z" fill="#D4ECFE"/>
<path d="M288.807 147.297C288.807 146.425 289.469 145.698 290.337 145.618L302.528 144.476C303.519 144.385 304.37 145.16 304.37 146.156V148.773C304.37 149.769 303.513 150.544 302.528 150.453L290.337 149.311C289.469 149.23 288.807 148.504 288.807 147.631V147.297Z" fill="#D4ECFE"/>
<path d="M392.696 142.844H387.309C386.378 142.844 385.623 143.598 385.623 144.529V149.913C385.623 150.844 386.378 151.599 387.309 151.599H392.696C393.628 151.599 394.382 150.844 394.382 149.913V144.529C394.382 143.598 393.628 142.844 392.696 142.844Z" fill="#194079"/>
<path d="M311.185 148.68C311.991 148.68 312.644 148.027 312.644 147.221C312.644 146.415 311.991 145.762 311.185 145.762C310.378 145.762 309.725 146.415 309.725 147.221C309.725 148.027 310.378 148.68 311.185 148.68Z" fill="#194079"/>
<path d="M318.483 148.68C319.29 148.68 319.943 148.027 319.943 147.221C319.943 146.415 319.29 145.762 318.483 145.762C317.677 145.762 317.023 146.415 317.023 147.221C317.023 148.027 317.677 148.68 318.483 148.68Z" fill="#FFE143"/>
<path d="M333.077 148.68C333.883 148.68 334.537 148.027 334.537 147.221C334.537 146.415 333.883 145.762 333.077 145.762C332.271 145.762 331.617 146.415 331.617 147.221C331.617 148.027 332.271 148.68 333.077 148.68Z" fill="#D4ECFE"/>
<path d="M325.784 148.68C326.59 148.68 327.244 148.027 327.244 147.221C327.244 146.415 326.59 145.762 325.784 145.762C324.978 145.762 324.324 146.415 324.324 147.221C324.324 148.027 324.978 148.68 325.784 148.68Z" fill="#FF5656"/>
<path d="M204.391 124.855H82.3409C79.2348 124.855 76.7168 127.372 76.7168 130.477V299.629C76.7168 302.734 79.2348 305.25 82.3409 305.25H204.391C207.497 305.25 210.015 302.734 210.015 299.629V130.477C210.015 127.372 207.497 124.855 204.391 124.855Z" fill="#B3DCFF"/>
<path d="M196.607 271.211H90.1261C87.02 271.211 84.502 273.728 84.502 276.832V285.038C84.502 288.142 87.02 290.659 90.1261 290.659H196.607C199.713 290.659 202.231 288.142 202.231 285.038V276.832C202.231 273.728 199.713 271.211 196.607 271.211Z" fill="#5995CD"/>
<path d="M181.243 279.477H145.877C145.567 279.477 145.316 279.727 145.316 280.037V282.319C145.316 282.629 145.567 282.879 145.877 282.879H181.243C181.552 282.879 181.803 282.629 181.803 282.319V280.037C181.803 279.727 181.552 279.477 181.243 279.477Z" fill="#D4ECFE"/>
<path d="M90.8262 281.016C90.8262 280.144 91.4888 279.417 92.3561 279.336L104.547 278.195C105.538 278.103 106.389 278.879 106.389 279.875V282.491C106.389 283.488 105.533 284.263 104.547 284.171L92.3561 283.03C91.4888 282.949 90.8262 282.222 90.8262 281.35V281.016Z" fill="#D4ECFE"/>
<path d="M194.716 276.559H189.329C188.397 276.559 187.643 277.313 187.643 278.244V283.628C187.643 284.559 188.397 285.313 189.329 285.313H194.716C195.647 285.313 196.402 284.559 196.402 283.628V278.244C196.402 277.313 195.647 276.559 194.716 276.559Z" fill="#194079"/>
<path d="M113.204 282.395C114.01 282.395 114.664 281.742 114.664 280.936C114.664 280.13 114.01 279.477 113.204 279.477C112.398 279.477 111.744 280.13 111.744 280.936C111.744 281.742 112.398 282.395 113.204 282.395Z" fill="#7AFF80"/>
<path d="M120.503 282.395C121.309 282.395 121.963 281.742 121.963 280.936C121.963 280.13 121.309 279.477 120.503 279.477C119.697 279.477 119.043 280.13 119.043 280.936C119.043 281.742 119.697 282.395 120.503 282.395Z" fill="#7AFF80"/>
<path d="M135.097 282.395C135.903 282.395 136.557 281.742 136.557 280.936C136.557 280.13 135.903 279.477 135.097 279.477C134.29 279.477 133.637 280.13 133.637 280.936C133.637 281.742 134.29 282.395 135.097 282.395Z" fill="#FFE143"/>
<path d="M127.804 282.395C128.61 282.395 129.264 281.742 129.264 280.936C129.264 280.13 128.61 279.477 127.804 279.477C126.997 279.477 126.344 280.13 126.344 280.936C126.344 281.742 126.997 282.395 127.804 282.395Z" fill="#FF5656"/>
<path d="M196.607 244.465H90.1261C87.02 244.465 84.502 246.982 84.502 250.086V258.292C84.502 261.396 87.02 263.913 90.1261 263.913H196.607C199.713 263.913 202.231 261.396 202.231 258.292V250.086C202.231 246.982 199.713 244.465 196.607 244.465Z" fill="#5995CD"/>
<path d="M181.243 252.73H145.877C145.567 252.73 145.316 252.981 145.316 253.29V255.573C145.316 255.883 145.567 256.133 145.877 256.133H181.243C181.552 256.133 181.803 255.883 181.803 255.573V253.29C181.803 252.981 181.552 252.73 181.243 252.73Z" fill="#D4ECFE"/>
<path d="M90.8262 254.27C90.8262 253.398 91.4888 252.671 92.3561 252.59L104.547 251.449C105.538 251.357 106.389 252.133 106.389 253.129V255.745C106.389 256.741 105.533 257.517 104.547 257.425L92.3561 256.284C91.4888 256.203 90.8262 255.476 90.8262 254.604V254.27Z" fill="#D4ECFE"/>
<path d="M194.716 249.812H189.329C188.397 249.812 187.643 250.567 187.643 251.498V256.882C187.643 257.813 188.397 258.567 189.329 258.567H194.716C195.647 258.567 196.402 257.813 196.402 256.882V251.498C196.402 250.567 195.647 249.812 194.716 249.812Z" fill="#194079"/>
<path d="M113.204 255.649C114.01 255.649 114.664 254.995 114.664 254.19C114.664 253.384 114.01 252.73 113.204 252.73C112.398 252.73 111.744 253.384 111.744 254.19C111.744 254.995 112.398 255.649 113.204 255.649Z" fill="#FFE143"/>
<path d="M120.503 255.649C121.309 255.649 121.963 254.995 121.963 254.19C121.963 253.384 121.309 252.73 120.503 252.73C119.697 252.73 119.043 253.384 119.043 254.19C119.043 254.995 119.697 255.649 120.503 255.649Z" fill="#FF5656"/>
<path d="M135.097 255.649C135.903 255.649 136.557 254.995 136.557 254.19C136.557 253.384 135.903 252.73 135.097 252.73C134.29 252.73 133.637 253.384 133.637 254.19C133.637 254.995 134.29 255.649 135.097 255.649Z" fill="#194079"/>
<path d="M127.804 255.649C128.61 255.649 129.264 254.995 129.264 254.19C129.264 253.384 128.61 252.73 127.804 252.73C126.997 252.73 126.344 253.384 126.344 254.19C126.344 254.995 126.997 255.649 127.804 255.649Z" fill="#194079"/>
<path d="M196.607 217.723H90.1261C87.02 217.723 84.502 220.239 84.502 223.344V231.549C84.502 234.654 87.02 237.171 90.1261 237.171H196.607C199.713 237.171 202.231 234.654 202.231 231.549V223.344C202.231 220.239 199.713 217.723 196.607 217.723Z" fill="#5995CD"/>
<path d="M181.243 225.988H145.877C145.567 225.988 145.316 226.239 145.316 226.548V228.831C145.316 229.14 145.567 229.391 145.877 229.391H181.243C181.552 229.391 181.803 229.14 181.803 228.831V226.548C181.803 226.239 181.552 225.988 181.243 225.988Z" fill="#D4ECFE"/>
<path d="M90.8262 227.528C90.8262 226.656 91.4888 225.929 92.3561 225.848L104.547 224.707C105.538 224.615 106.389 225.39 106.389 226.386V229.003C106.389 229.999 105.533 230.775 104.547 230.683L92.3561 229.542C91.4888 229.461 90.8262 228.734 90.8262 227.862V227.528Z" fill="#D4ECFE"/>
<path d="M194.716 223.074H189.329C188.397 223.074 187.643 223.829 187.643 224.76V230.144C187.643 231.075 188.397 231.829 189.329 231.829H194.716C195.647 231.829 196.402 231.075 196.402 230.144V224.76C196.402 223.829 195.647 223.074 194.716 223.074Z" fill="#194079"/>
<path d="M113.204 228.907C114.01 228.907 114.664 228.253 114.664 227.447C114.664 226.642 114.01 225.988 113.204 225.988C112.398 225.988 111.744 226.642 111.744 227.447C111.744 228.253 112.398 228.907 113.204 228.907Z" fill="#D4ECFE"/>
<path d="M120.503 228.907C121.309 228.907 121.963 228.253 121.963 227.447C121.963 226.642 121.309 225.988 120.503 225.988C119.697 225.988 119.043 226.642 119.043 227.447C119.043 228.253 119.697 228.907 120.503 228.907Z" fill="#FF5656"/>
<path d="M135.097 228.907C135.903 228.907 136.557 228.253 136.557 227.447C136.557 226.642 135.903 225.988 135.097 225.988C134.29 225.988 133.637 226.642 133.637 227.447C133.637 228.253 134.29 228.907 135.097 228.907Z" fill="#7AFF80"/>
<path d="M127.804 228.907C128.61 228.907 129.264 228.253 129.264 227.447C129.264 226.642 128.61 225.988 127.804 225.988C126.997 225.988 126.344 226.642 126.344 227.447C126.344 228.253 126.997 228.907 127.804 228.907Z" fill="#D4ECFE"/>
<path d="M196.607 190.977H90.1261C87.02 190.977 84.502 193.493 84.502 196.598V204.803C84.502 207.908 87.02 210.425 90.1261 210.425H196.607C199.713 210.425 202.231 207.908 202.231 204.803V196.598C202.231 193.493 199.713 190.977 196.607 190.977Z" fill="#5995CD"/>
<path d="M181.243 199.246H145.877C145.567 199.246 145.316 199.497 145.316 199.806V202.089C145.316 202.398 145.567 202.649 145.877 202.649H181.243C181.552 202.649 181.803 202.398 181.803 202.089V199.806C181.803 199.497 181.552 199.246 181.243 199.246Z" fill="#D4ECFE"/>
<path d="M90.8262 200.782C90.8262 199.91 91.4888 199.183 92.3561 199.102L104.547 197.96C105.538 197.869 106.389 198.644 106.389 199.64V202.257C106.389 203.253 105.533 204.029 104.547 203.937L92.3561 202.796C91.4888 202.715 90.8262 201.988 90.8262 201.116V200.782Z" fill="#D4ECFE"/>
<path d="M194.716 196.328H189.329C188.397 196.328 187.643 197.083 187.643 198.013V203.398C187.643 204.328 188.397 205.083 189.329 205.083H194.716C195.647 205.083 196.402 204.328 196.402 203.398V198.013C196.402 197.083 195.647 196.328 194.716 196.328Z" fill="#194079"/>
<path d="M113.204 202.16C114.01 202.16 114.664 201.507 114.664 200.701C114.664 199.895 114.01 199.242 113.204 199.242C112.398 199.242 111.744 199.895 111.744 200.701C111.744 201.507 112.398 202.16 113.204 202.16Z" fill="#FF5656"/>
<path d="M120.503 202.16C121.309 202.16 121.963 201.507 121.963 200.701C121.963 199.895 121.309 199.242 120.503 199.242C119.697 199.242 119.043 199.895 119.043 200.701C119.043 201.507 119.697 202.16 120.503 202.16Z" fill="#FFE143"/>
<path d="M135.097 202.16C135.903 202.16 136.557 201.507 136.557 200.701C136.557 199.895 135.903 199.242 135.097 199.242C134.29 199.242 133.637 199.895 133.637 200.701C133.637 201.507 134.29 202.16 135.097 202.16Z" fill="#194079"/>
<path d="M127.804 202.16C128.61 202.16 129.264 201.507 129.264 200.701C129.264 199.895 128.61 199.242 127.804 199.242C126.997 199.242 126.344 199.895 126.344 200.701C126.344 201.507 126.997 202.16 127.804 202.16Z" fill="#FF5656"/>
<path d="M196.607 164.234H90.1261C87.02 164.234 84.502 166.751 84.502 169.856V178.061C84.502 181.166 87.02 183.682 90.1261 183.682H196.607C199.713 183.682 202.231 181.166 202.231 178.061V169.856C202.231 166.751 199.713 164.234 196.607 164.234Z" fill="#5995CD"/>
<path d="M181.243 172.504H145.877C145.567 172.504 145.316 172.755 145.316 173.064V175.347C145.316 175.656 145.567 175.907 145.877 175.907H181.243C181.552 175.907 181.803 175.656 181.803 175.347V173.064C181.803 172.755 181.552 172.504 181.243 172.504Z" fill="#D4ECFE"/>
<path d="M90.8262 174.04C90.8262 173.167 91.4888 172.441 92.3561 172.36L104.547 171.218C105.538 171.127 106.389 171.902 106.389 172.898V175.515C106.389 176.511 105.533 177.286 104.547 177.195L92.3561 176.053C91.4888 175.973 90.8262 175.246 90.8262 174.373V174.04Z" fill="#D4ECFE"/>
<path d="M194.716 169.586H189.329C188.397 169.586 187.643 170.34 187.643 171.271V176.655C187.643 177.586 188.397 178.341 189.329 178.341H194.716C195.647 178.341 196.402 177.586 196.402 176.655V171.271C196.402 170.34 195.647 169.586 194.716 169.586Z" fill="#194079"/>
<path d="M113.204 175.422C114.01 175.422 114.664 174.769 114.664 173.963C114.664 173.157 114.01 172.504 113.204 172.504C112.398 172.504 111.744 173.157 111.744 173.963C111.744 174.769 112.398 175.422 113.204 175.422Z" fill="#FFE143"/>
<path d="M120.503 175.422C121.309 175.422 121.963 174.769 121.963 173.963C121.963 173.157 121.309 172.504 120.503 172.504C119.697 172.504 119.043 173.157 119.043 173.963C119.043 174.769 119.697 175.422 120.503 175.422Z" fill="#7AFF80"/>
<path d="M135.097 175.422C135.903 175.422 136.557 174.769 136.557 173.963C136.557 173.157 135.903 172.504 135.097 172.504C134.29 172.504 133.637 173.157 133.637 173.963C133.637 174.769 134.29 175.422 135.097 175.422Z" fill="#FFE143"/>
<path d="M127.804 175.422C128.61 175.422 129.264 174.769 129.264 173.963C129.264 173.157 128.61 172.504 127.804 172.504C126.997 172.504 126.344 173.157 126.344 173.963C126.344 174.769 126.997 175.422 127.804 175.422Z" fill="#FF5656"/>
<path d="M196.607 137.496H90.1261C87.02 137.496 84.502 140.013 84.502 143.117V151.323C84.502 154.427 87.02 156.944 90.1261 156.944H196.607C199.713 156.944 202.231 154.427 202.231 151.323V143.117C202.231 140.013 199.713 137.496 196.607 137.496Z" fill="#5995CD"/>
<path d="M181.243 145.762H145.877C145.567 145.762 145.316 146.012 145.316 146.322V148.605C145.316 148.914 145.567 149.165 145.877 149.165H181.243C181.552 149.165 181.803 148.914 181.803 148.605V146.322C181.803 146.012 181.552 145.762 181.243 145.762Z" fill="#D4ECFE"/>
<path d="M90.8262 147.297C90.8262 146.425 91.4888 145.698 92.3561 145.618L104.547 144.476C105.538 144.385 106.389 145.16 106.389 146.156V148.773C106.389 149.769 105.533 150.544 104.547 150.453L92.3561 149.311C91.4888 149.23 90.8262 148.504 90.8262 147.631V147.297Z" fill="#D4ECFE"/>
<path d="M194.716 142.844H189.329C188.397 142.844 187.643 143.598 187.643 144.529V149.913C187.643 150.844 188.397 151.599 189.329 151.599H194.716C195.647 151.599 196.402 150.844 196.402 149.913V144.529C196.402 143.598 195.647 142.844 194.716 142.844Z" fill="#194079"/>
<path d="M113.204 148.68C114.01 148.68 114.664 148.027 114.664 147.221C114.664 146.415 114.01 145.762 113.204 145.762C112.398 145.762 111.744 146.415 111.744 147.221C111.744 148.027 112.398 148.68 113.204 148.68Z" fill="#194079"/>
<path d="M120.503 148.68C121.309 148.68 121.963 148.027 121.963 147.221C121.963 146.415 121.309 145.762 120.503 145.762C119.697 145.762 119.043 146.415 119.043 147.221C119.043 148.027 119.697 148.68 120.503 148.68Z" fill="#FFE143"/>
<path d="M135.097 148.68C135.903 148.68 136.557 148.027 136.557 147.221C136.557 146.415 135.903 145.762 135.097 145.762C134.29 145.762 133.637 146.415 133.637 147.221C133.637 148.027 134.29 148.68 135.097 148.68Z" fill="#D4ECFE"/>
<path d="M127.804 148.68C128.61 148.68 129.264 148.027 129.264 147.221C129.264 146.415 128.61 145.762 127.804 145.762C126.997 145.762 126.344 146.415 126.344 147.221C126.344 148.027 126.997 148.68 127.804 148.68Z" fill="#FF5656"/>
<path opacity="0.5" d="M319.131 124.797H330.379L321.943 305.246H319.131V124.797Z" fill="#4B86BD"/>
<path d="M316.318 106.809H173.458C170.352 106.809 167.834 109.325 167.834 112.43V309.747C167.834 312.852 170.352 315.369 173.458 315.369H316.318C319.424 315.369 321.942 312.852 321.942 309.747V112.43C321.942 109.325 319.424 106.809 316.318 106.809Z" fill="#CFE9FF"/>
<path d="M307.322 276.016H182.46C179.354 276.016 176.836 278.532 176.836 281.637V292.879C176.836 295.984 179.354 298.5 182.46 298.5H307.322C310.428 298.5 312.946 295.984 312.946 292.879V281.637C312.946 278.532 310.428 276.016 307.322 276.016Z" fill="#5995CD"/>
<path d="M288.757 285.574H247.697C247.388 285.574 247.137 285.825 247.137 286.134V288.95C247.137 289.259 247.388 289.51 247.697 289.51H288.757C289.067 289.51 289.318 289.259 289.318 288.95V286.134C289.318 285.825 289.067 285.574 288.757 285.574Z" fill="#D4ECFE"/>
<path d="M184.146 287.113C184.146 286.241 184.809 285.514 185.676 285.434L200.302 284.066C201.294 283.974 202.145 284.75 202.145 285.746V289.348C202.145 290.339 201.288 291.119 200.302 291.028L185.676 289.66C184.809 289.579 184.146 288.853 184.146 287.98V287.119V287.113Z" fill="#D4ECFE"/>
<path d="M304.51 282.203H297.76C296.829 282.203 296.074 282.958 296.074 283.888V290.635C296.074 291.566 296.829 292.32 297.76 292.32H304.51C305.442 292.32 306.197 291.566 306.197 290.635V283.888C306.197 282.958 305.442 282.203 304.51 282.203Z" fill="#194079"/>
<path d="M210.02 288.949C210.951 288.949 211.706 288.194 211.706 287.263C211.706 286.333 210.951 285.578 210.02 285.578C209.089 285.578 208.334 286.333 208.334 287.263C208.334 288.194 209.089 288.949 210.02 288.949Z" fill="#7AFF80"/>
<path d="M218.458 288.949C219.389 288.949 220.144 288.194 220.144 287.263C220.144 286.333 219.389 285.578 218.458 285.578C217.526 285.578 216.771 286.333 216.771 287.263C216.771 288.194 217.526 288.949 218.458 288.949Z" fill="#FF5656"/>
<path d="M235.329 288.949C236.26 288.949 237.015 288.194 237.015 287.263C237.015 286.333 236.26 285.578 235.329 285.578C234.397 285.578 233.643 286.333 233.643 287.263C233.643 288.194 234.397 288.949 235.329 288.949Z" fill="#FF5656"/>
<path d="M226.893 288.949C227.824 288.949 228.579 288.194 228.579 287.263C228.579 286.333 227.824 285.578 226.893 285.578C225.962 285.578 225.207 286.333 225.207 287.263C225.207 288.194 225.962 288.949 226.893 288.949Z" fill="#FF5656"/>
<path d="M307.322 245.098H182.46C179.354 245.098 176.836 247.614 176.836 250.719V261.961C176.836 265.066 179.354 267.582 182.46 267.582H307.322C310.428 267.582 312.946 265.066 312.946 261.961V250.719C312.946 247.614 310.428 245.098 307.322 245.098Z" fill="#5995CD"/>
<path d="M288.757 254.656H247.697C247.388 254.656 247.137 254.907 247.137 255.216V258.032C247.137 258.341 247.388 258.592 247.697 258.592H288.757C289.067 258.592 289.318 258.341 289.318 258.032V255.216C289.318 254.907 289.067 254.656 288.757 254.656Z" fill="#D4ECFE"/>
<path d="M184.146 256.192C184.146 255.319 184.809 254.592 185.676 254.512L200.302 253.144C201.294 253.053 202.145 253.828 202.145 254.824V258.426C202.145 259.417 201.288 260.197 200.302 260.106L185.676 258.738C184.809 258.658 184.146 257.931 184.146 257.058V256.197V256.192Z" fill="#D4ECFE"/>
<path d="M304.51 251.285H297.76C296.829 251.285 296.074 252.04 296.074 252.97V259.717C296.074 260.648 296.829 261.402 297.76 261.402H304.51C305.442 261.402 306.197 260.648 306.197 259.717V252.97C306.197 252.04 305.442 251.285 304.51 251.285Z" fill="#194079"/>
<path d="M210.02 258.027C210.951 258.027 211.706 257.272 211.706 256.342C211.706 255.411 210.951 254.656 210.02 254.656C209.089 254.656 208.334 255.411 208.334 256.342C208.334 257.272 209.089 258.027 210.02 258.027Z" fill="#FFE143"/>
<path d="M218.458 258.027C219.389 258.027 220.144 257.272 220.144 256.342C220.144 255.411 219.389 254.656 218.458 254.656C217.526 254.656 216.771 255.411 216.771 256.342C216.771 257.272 217.526 258.027 218.458 258.027Z" fill="#FF5656"/>
<path d="M235.329 258.027C236.26 258.027 237.015 257.272 237.015 256.342C237.015 255.411 236.26 254.656 235.329 254.656C234.397 254.656 233.643 255.411 233.643 256.342C233.643 257.272 234.397 258.027 235.329 258.027Z" fill="#194079"/>
<path d="M226.893 258.027C227.824 258.027 228.579 257.272 228.579 256.342C228.579 255.411 227.824 254.656 226.893 254.656C225.962 254.656 225.207 255.411 225.207 256.342C225.207 257.272 225.962 258.027 226.893 258.027Z" fill="#194079"/>
<path d="M307.322 214.18H182.46C179.354 214.18 176.836 216.696 176.836 219.801V231.043C176.836 234.148 179.354 236.664 182.46 236.664H307.322C310.428 236.664 312.946 234.148 312.946 231.043V219.801C312.946 216.696 310.428 214.18 307.322 214.18Z" fill="#5995CD"/>
<path d="M288.757 223.734H247.697C247.388 223.734 247.137 223.985 247.137 224.294V227.11C247.137 227.42 247.388 227.67 247.697 227.67H288.757C289.067 227.67 289.318 227.42 289.318 227.11V224.294C289.318 223.985 289.067 223.734 288.757 223.734Z" fill="#D4ECFE"/>
<path d="M184.146 225.27C184.146 224.397 184.809 223.671 185.676 223.59L200.302 222.222C201.294 222.131 202.145 222.906 202.145 223.902V227.504C202.145 228.495 201.288 229.276 200.302 229.184L185.676 227.816C184.809 227.736 184.146 227.009 184.146 226.137V225.275V225.27Z" fill="#D4ECFE"/>
<path d="M304.51 220.359H297.76C296.829 220.359 296.074 221.114 296.074 222.045V228.791C296.074 229.722 296.829 230.476 297.76 230.476H304.51C305.442 230.476 306.197 229.722 306.197 228.791V222.045C306.197 221.114 305.442 220.359 304.51 220.359Z" fill="#194079"/>
<path d="M210.02 227.105C210.951 227.105 211.706 226.35 211.706 225.42C211.706 224.489 210.951 223.734 210.02 223.734C209.089 223.734 208.334 224.489 208.334 225.42C208.334 226.35 209.089 227.105 210.02 227.105Z" fill="#7AFF80"/>
<path d="M218.458 227.105C219.389 227.105 220.144 226.35 220.144 225.42C220.144 224.489 219.389 223.734 218.458 223.734C217.526 223.734 216.771 224.489 216.771 225.42C216.771 226.35 217.526 227.105 218.458 227.105Z" fill="#FF5656"/>
<path d="M235.329 227.105C236.26 227.105 237.015 226.35 237.015 225.42C237.015 224.489 236.26 223.734 235.329 223.734C234.397 223.734 233.643 224.489 233.643 225.42C233.643 226.35 234.397 227.105 235.329 227.105Z" fill="#FFE143"/>
<path d="M226.893 227.105C227.824 227.105 228.579 226.35 228.579 225.42C228.579 224.489 227.824 223.734 226.893 223.734C225.962 223.734 225.207 224.489 225.207 225.42C225.207 226.35 225.962 227.105 226.893 227.105Z" fill="#7AFF80"/>
<path d="M307.322 183.258H182.46C179.354 183.258 176.836 185.775 176.836 188.879V200.121C176.836 203.226 179.354 205.743 182.46 205.743H307.322C310.428 205.743 312.946 203.226 312.946 200.121V188.879C312.946 185.775 310.428 183.258 307.322 183.258Z" fill="#5995CD"/>
<path d="M288.757 192.816H247.697C247.388 192.816 247.137 193.067 247.137 193.376V196.192C247.137 196.502 247.388 196.752 247.697 196.752H288.757C289.067 196.752 289.318 196.502 289.318 196.192V193.376C289.318 193.067 289.067 192.816 288.757 192.816Z" fill="#D4ECFE"/>
<path d="M184.146 194.356C184.146 193.483 184.809 192.757 185.676 192.676L200.302 191.308C201.294 191.217 202.145 191.992 202.145 192.988V196.59C202.145 197.581 201.288 198.362 200.302 198.27L185.676 196.902C184.809 196.822 184.146 196.095 184.146 195.222V194.361V194.356Z" fill="#D4ECFE"/>
<path d="M304.51 189.445H297.76C296.829 189.445 296.074 190.2 296.074 191.131V197.877C296.074 198.808 296.829 199.562 297.76 199.562H304.51C305.442 199.562 306.197 198.808 306.197 197.877V191.131C306.197 190.2 305.442 189.445 304.51 189.445Z" fill="#194079"/>
<path d="M210.02 196.191C210.951 196.191 211.706 195.436 211.706 194.506C211.706 193.575 210.951 192.82 210.02 192.82C209.089 192.82 208.334 193.575 208.334 194.506C208.334 195.436 209.089 196.191 210.02 196.191Z" fill="#FFE143"/>
<path d="M218.458 196.191C219.389 196.191 220.144 195.436 220.144 194.506C220.144 193.575 219.389 192.82 218.458 192.82C217.526 192.82 216.771 193.575 216.771 194.506C216.771 195.436 217.526 196.191 218.458 196.191Z" fill="#D4ECFE"/>
<path d="M235.329 196.191C236.26 196.191 237.015 195.436 237.015 194.506C237.015 193.575 236.26 192.82 235.329 192.82C234.397 192.82 233.643 193.575 233.643 194.506C233.643 195.436 234.397 196.191 235.329 196.191Z" fill="#FF5656"/>
<path d="M226.893 196.191C227.824 196.191 228.579 195.436 228.579 194.506C228.579 193.575 227.824 192.82 226.893 192.82C225.962 192.82 225.207 193.575 225.207 194.506C225.207 195.436 225.962 196.191 226.893 196.191Z" fill="#D4ECFE"/>
<path d="M307.322 152.344H182.46C179.354 152.344 176.836 154.86 176.836 157.965V169.207C176.836 172.312 179.354 174.828 182.46 174.828H307.322C310.428 174.828 312.946 172.312 312.946 169.207V157.965C312.946 154.86 310.428 152.344 307.322 152.344Z" fill="#5995CD"/>
<path d="M288.757 161.902H247.697C247.388 161.902 247.137 162.153 247.137 162.462V165.278C247.137 165.588 247.388 165.838 247.697 165.838H288.757C289.067 165.838 289.318 165.588 289.318 165.278V162.462C289.318 162.153 289.067 161.902 288.757 161.902Z" fill="#D4ECFE"/>
<path d="M184.146 163.438C184.146 162.565 184.809 161.839 185.676 161.758L200.302 160.39C201.294 160.299 202.145 161.074 202.145 162.07V165.672C202.145 166.663 201.288 167.444 200.302 167.352L185.676 165.984C184.809 165.904 184.146 165.177 184.146 164.305V163.443V163.438Z" fill="#D4ECFE"/>
<path d="M304.51 158.531H297.76C296.829 158.531 296.074 159.286 296.074 160.217V166.963C296.074 167.894 296.829 168.648 297.76 168.648H304.51C305.442 168.648 306.197 167.894 306.197 166.963V160.217C306.197 159.286 305.442 158.531 304.51 158.531Z" fill="#194079"/>
<path d="M210.02 165.273C210.951 165.273 211.706 164.518 211.706 163.588C211.706 162.657 210.951 161.902 210.02 161.902C209.089 161.902 208.334 162.657 208.334 163.588C208.334 164.518 209.089 165.273 210.02 165.273Z" fill="#7AFF80"/>
<path d="M218.458 165.273C219.389 165.273 220.144 164.518 220.144 163.588C220.144 162.657 219.389 161.902 218.458 161.902C217.526 161.902 216.771 162.657 216.771 163.588C216.771 164.518 217.526 165.273 218.458 165.273Z" fill="#FF5656"/>
<path d="M235.329 165.273C236.26 165.273 237.015 164.518 237.015 163.588C237.015 162.657 236.26 161.902 235.329 161.902C234.397 161.902 233.643 162.657 233.643 163.588C233.643 164.518 234.397 165.273 235.329 165.273Z" fill="#FFE143"/>
<path d="M226.893 165.273C227.824 165.273 228.579 164.518 228.579 163.588C228.579 162.657 227.824 161.902 226.893 161.902C225.962 161.902 225.207 162.657 225.207 163.588C225.207 164.518 225.962 165.273 226.893 165.273Z" fill="#FF5656"/>
<path d="M307.322 121.426H182.46C179.354 121.426 176.836 123.942 176.836 127.047V138.289C176.836 141.394 179.354 143.911 182.46 143.911H307.322C310.428 143.911 312.946 141.394 312.946 138.289V127.047C312.946 123.942 310.428 121.426 307.322 121.426Z" fill="#5995CD"/>
<path d="M288.757 130.98H247.697C247.388 130.98 247.137 131.231 247.137 131.54V134.356C247.137 134.666 247.388 134.916 247.697 134.916H288.757C289.067 134.916 289.318 134.666 289.318 134.356V131.54C289.318 131.231 289.067 130.98 288.757 130.98Z" fill="#D4ECFE"/>
<path d="M184.146 132.516C184.146 131.644 184.809 130.917 185.676 130.836L200.302 129.468C201.294 129.377 202.145 130.152 202.145 131.148V134.75C202.145 135.741 201.288 136.522 200.302 136.43L185.676 135.063C184.809 134.982 184.146 134.255 184.146 133.383V132.521V132.516Z" fill="#D4ECFE"/>
<path d="M304.51 127.605H297.76C296.829 127.605 296.074 128.36 296.074 129.291V136.037C296.074 136.968 296.829 137.723 297.76 137.723H304.51C305.442 137.723 306.197 136.968 306.197 136.037V129.291C306.197 128.36 305.442 127.605 304.51 127.605Z" fill="#194079"/>
<path d="M210.02 134.351C210.951 134.351 211.706 133.596 211.706 132.666C211.706 131.735 210.951 130.98 210.02 130.98C209.089 130.98 208.334 131.735 208.334 132.666C208.334 133.596 209.089 134.351 210.02 134.351Z" fill="#FF5656"/>
<path d="M218.458 134.351C219.389 134.351 220.144 133.596 220.144 132.666C220.144 131.735 219.389 130.98 218.458 130.98C217.526 130.98 216.771 131.735 216.771 132.666C216.771 133.596 217.526 134.351 218.458 134.351Z" fill="#FFE143"/>
<path d="M235.329 134.351C236.26 134.351 237.015 133.596 237.015 132.666C237.015 131.735 236.26 130.98 235.329 130.98C234.397 130.98 233.643 131.735 233.643 132.666C233.643 133.596 234.397 134.351 235.329 134.351Z" fill="#194079"/>
<path d="M226.893 134.351C227.824 134.351 228.579 133.596 228.579 132.666C228.579 131.735 227.824 130.98 226.893 130.98C225.962 130.98 225.207 131.735 225.207 132.666C225.207 133.596 225.962 134.351 226.893 134.351Z" fill="#D4ECFE"/>
<path opacity="0.5" fill-rule="evenodd" clip-rule="evenodd" d="M177.957 16.8635V91.9095C177.957 105.962 184.707 129.013 199.328 142.506C211.028 153.301 234.575 164.802 244.886 169.206C255.197 164.802 278.744 153.296 290.445 142.506C305.071 129.013 311.815 105.968 311.815 91.9095V16.8635C311.815 16.8635 295.045 20.1909 282.849 18.5487C268.32 16.5943 251.916 9.46008 244.886 5.62109C237.856 9.46008 221.447 16.5943 206.923 18.5487C194.727 20.1909 177.957 16.8635 177.957 16.8635Z" fill="#4B86BD"/>
<path d="M177.957 86.2884V11.2424C177.957 11.2424 194.727 14.5699 206.923 12.9276C221.452 10.9732 237.856 3.83899 244.886 0V163.585C234.575 159.181 211.028 147.675 199.328 136.884C184.702 123.391 177.957 100.347 177.957 86.2884Z" fill="#E9EFFF"/>
<path d="M311.82 86.2884V11.2424C311.82 11.2424 295.05 14.5699 282.853 12.9276C268.324 10.9732 251.921 3.83899 244.891 0V163.585C255.202 159.181 278.748 147.675 290.449 136.884C305.075 123.391 311.82 100.347 311.82 86.2884Z" fill="#CDDEFF"/>
<path d="M186.959 85.6868V20.7309C186.959 20.7309 201.472 23.6115 212.03 22.19C224.604 20.4993 238.804 14.3236 244.892 10.9961V152.586C235.965 148.774 215.586 138.819 205.458 129.472C192.799 117.793 186.959 97.8445 186.959 85.6814V85.6868Z" fill="#D6E1FF"/>
<path d="M302.825 85.6868V20.7309C302.825 20.7309 288.312 23.6115 277.754 22.19C265.18 20.4993 250.98 14.3236 244.893 10.9961V152.586C253.819 148.774 274.198 138.819 284.326 129.472C296.986 117.793 302.825 97.8445 302.825 85.6814V85.6868Z" fill="#AFCAFF"/>
<path d="M192.582 85.3092V26.6582C192.582 26.6582 205.689 29.2588 215.219 27.9774C226.569 26.4482 239.396 20.8755 244.891 17.8711V145.715C236.832 142.275 218.429 133.283 209.287 124.846C197.856 114.304 192.582 96.2877 192.582 85.3038V85.3092Z" fill="#74B9FF"/>
<path d="M297.199 85.3092V26.6582C297.199 26.6582 284.092 29.2588 274.563 27.9774C263.212 26.4482 250.385 20.8755 244.891 17.8711V145.715C252.95 142.275 271.352 133.283 280.494 124.846C291.92 114.304 297.199 96.2877 297.199 85.3038V85.3092Z" fill="#74B9FF"/>
<path d="M233.644 66.8932V74.4797H227.174V66.8932C227.174 63.5227 227.454 46.0938 244.892 46.0938C262.33 46.0938 262.33 64.3626 262.33 66.8932V74.4797H256.146V66.8932C256.146 63.2965 253.894 52.2749 244.897 52.2749C237.021 52.2749 233.649 59.8237 233.649 66.8932H233.644Z" fill="#D4ECFE"/>
<path d="M269.64 74.2031H220.143C219.212 74.2031 218.457 74.9576 218.457 75.8884V107.936C218.457 108.866 219.212 109.621 220.143 109.621H269.64C270.571 109.621 271.326 108.866 271.326 107.936V75.8884C271.326 74.9576 270.571 74.2031 269.64 74.2031Z" fill="#B3DCFF"/>
<path fill-rule="evenodd" clip-rule="evenodd" d="M244.892 98.0945H241.342C240.916 98.0945 240.641 97.6368 240.851 97.2599L242.543 94.1909C242.672 93.9593 242.618 93.6686 242.435 93.4694C241.773 92.764 240.862 91.4126 240.868 90.018C240.884 87.6382 242.053 85.4414 244.892 85.4414C247.731 85.4414 248.905 87.6382 248.916 90.018C248.921 91.4126 248.011 92.7586 247.348 93.4694C247.165 93.6632 247.111 93.9539 247.241 94.1909L248.932 97.2599C249.137 97.6368 248.867 98.0945 248.442 98.0945H244.892Z" fill="#194079"/>
</g>
<defs>
<linearGradient id="paint0_linear_4587_71649" x1="18.7255" y1="322.398" x2="32.1599" y2="334.794" gradientUnits="userSpaceOnUse">
<stop stop-color="#FFD6C7"/>
<stop offset="1" stop-color="#FFD0C1"/>
</linearGradient>
<linearGradient id="paint1_linear_4587_71649" x1="56.6227" y1="320.528" x2="72.6943" y2="337.259" gradientUnits="userSpaceOnUse">
<stop stop-color="#FFD6C7"/>
<stop offset="1" stop-color="#FFD0C1"/>
</linearGradient>
<linearGradient id="paint2_linear_4587_71649" x1="23.7411" y1="126.312" x2="61.9048" y2="155.455" gradientUnits="userSpaceOnUse">
<stop stop-color="#FFD6C7"/>
<stop offset="1" stop-color="#FFD0C1"/>
</linearGradient>
<linearGradient id="paint3_linear_4587_71649" x1="77.4717" y1="157.731" x2="95.6454" y2="184.78" gradientUnits="userSpaceOnUse">
<stop stop-color="#FFD6C7"/>
<stop offset="1" stop-color="#FFD0C1"/>
</linearGradient>
<linearGradient id="paint4_linear_4587_71649" x1="55.649" y1="112.354" x2="60.7022" y2="208.765" gradientUnits="userSpaceOnUse">
<stop stop-color="#FFCC7E"/>
<stop offset="1" stop-color="#FF9D43"/>
</linearGradient>
<linearGradient id="paint5_linear_4587_71649" x1="39.7726" y1="167.456" x2="59.3438" y2="168.577" gradientUnits="userSpaceOnUse">
<stop stop-color="#FF8616"/>
<stop offset="1" stop-color="#FF8616" stop-opacity="0"/>
</linearGradient>
<linearGradient id="paint6_linear_4587_71649" x1="27.4152" y1="136.007" x2="20.6452" y2="201.384" gradientUnits="userSpaceOnUse">
<stop stop-color="#FFCC7E"/>
<stop offset="1" stop-color="#FF9D43"/>
</linearGradient>
<linearGradient id="paint7_linear_4587_71649" x1="9.06108" y1="200.329" x2="22.3241" y2="199.773" gradientUnits="userSpaceOnUse">
<stop stop-color="#FF8616"/>
<stop offset="1" stop-color="#FF8616" stop-opacity="0"/>
</linearGradient>
<linearGradient id="paint8_linear_4587_71649" x1="27.5599" y1="179.487" x2="38.2442" y2="201.497" gradientUnits="userSpaceOnUse">
<stop stop-color="#FFD6C7"/>
<stop offset="1" stop-color="#FFD0C1"/>
</linearGradient>
<linearGradient id="paint9_linear_4587_71649" x1="12.9231" y1="138.819" x2="18.2831" y2="195.817" gradientUnits="userSpaceOnUse">
<stop stop-color="#FFCC7E"/>
<stop offset="1" stop-color="#FF9D43"/>
</linearGradient>
<linearGradient id="paint10_linear_4587_71649" x1="6.84649" y1="170.048" x2="23.4381" y2="173.142" gradientUnits="userSpaceOnUse">
<stop stop-color="#FF8616"/>
<stop offset="1" stop-color="#FF8616" stop-opacity="0"/>
</linearGradient>
<linearGradient id="paint11_linear_4587_71649" x1="428.064" y1="323.632" x2="438.261" y2="336.279" gradientUnits="userSpaceOnUse">
<stop stop-color="#FFD6C7"/>
<stop offset="1" stop-color="#FFC0AC"/>
</linearGradient>
<linearGradient id="paint12_linear_4587_71649" x1="457.844" y1="323.632" x2="468.04" y2="336.279" gradientUnits="userSpaceOnUse">
<stop stop-color="#FFD6C7"/>
<stop offset="1" stop-color="#FFC0AC"/>
</linearGradient>
<linearGradient id="paint13_linear_4587_71649" x1="432.342" y1="124.942" x2="480.35" y2="160.997" gradientUnits="userSpaceOnUse">
<stop stop-color="#FFD6C7"/>
<stop offset="1" stop-color="#FFC0AC"/>
</linearGradient>
<linearGradient id="paint14_linear_4587_71649" x1="436.656" y1="180.515" x2="451.295" y2="196.326" gradientUnits="userSpaceOnUse">
<stop stop-color="#FFD6C7"/>
<stop offset="1" stop-color="#FFC0AC"/>
</linearGradient>
<linearGradient id="paint15_linear_4587_71649" x1="409.839" y1="177.865" x2="423.277" y2="195.042" gradientUnits="userSpaceOnUse">
<stop stop-color="#FFD6C7"/>
<stop offset="1" stop-color="#FFC0AC"/>
</linearGradient>
<clipPath id="clip0_4587_71649">
<rect width="480" height="343" fill="white"/>
</clipPath>
</defs>
</svg>
