<svg width="29" height="28" viewBox="0 0 29 28" fill="none" xmlns="http://www.w3.org/2000/svg">
<g clip-path="url(#clip0_2473_42239)">
<path d="M0.9375 11.5163C3.93917 6.41892 9.4565 6.98295 9.4565 6.98295C12.4582 7.16987 16.4157 6.10033 18.137 3.40371C18.6924 2.53409 18.8636 1.85303 18.841 1.32801C18.8232 0.911892 18.5374 0.552667 18.137 0.448638C17.0245 0.157683 15.8587 0.00163978 14.6557 1.43267e-05C7.80792 -0.00973837 2.10814 4.96089 0.9375 11.5163Z" fill="#9CD298"/>
<path d="M3.30622 7.66076C4.06673 6.2905 5.07106 5.05516 6.28044 4.02788C8.61849 2.0432 11.5927 0.952528 14.6541 0.957404C15.7489 0.957404 16.8388 1.09882 17.8915 1.37352C17.9028 1.65147 17.8156 2.13911 17.3377 2.88681C16.4803 4.22943 15.0223 4.98202 13.9501 5.37538C12.5825 5.87764 10.9727 6.11658 9.52755 6.02881C9.31764 6.01093 7.86443 5.90852 6.06408 6.41729C5.06621 6.70012 4.14101 7.11786 3.30461 7.66238L3.30622 7.66076ZM0.9375 11.5163C3.93917 6.41892 9.4565 6.98295 9.4565 6.98295C12.4582 7.16987 16.4157 6.10033 18.137 3.40371C18.6924 2.53409 18.8636 1.85303 18.841 1.32801C18.8345 1.17684 18.7925 1.03217 18.7215 0.90539C18.5988 0.684329 18.3905 0.515282 18.1354 0.448638C17.0245 0.157683 15.8587 0.00163978 14.6557 1.43267e-05C7.80792 -0.00973837 2.10814 4.96089 0.9375 11.5163Z" fill="#69C481"/>
<path opacity="0.7" d="M14.6761 1.5475e-05C6.98867 -0.0113627 0.749584 6.25312 0.738281 13.9919V13.9951C0.738281 14.2276 0.852923 14.447 1.04345 14.5771C1.53754 14.9135 2.35618 15.0923 3.70443 14.6469C6.73032 13.6473 8.7535 10.0616 9.32994 7.09023C9.32994 7.09023 10.1454 1.77663 15.5222 0.0276481C15.2429 0.00976818 14.9603 1.5475e-05 14.6761 1.5475e-05Z" fill="#009B2F"/>
<path d="M1.69094 13.8472C1.73292 10.4143 3.08278 7.19588 5.50156 4.76746C7.16951 3.09325 9.21046 1.93105 11.4339 1.36052C10.7153 2.04321 10.0953 2.83968 9.58506 3.73855C8.6873 5.32336 8.43057 6.71312 8.39505 6.91793C8.11571 8.3467 7.48114 9.85674 6.65443 11.0612C6.00534 12.0056 4.91543 13.2361 3.40895 13.7351C2.6662 13.9805 2.06393 14.0179 1.69094 13.8456V13.8472ZM0.827088 14.3365C0.878758 14.4308 0.953032 14.5137 1.04507 14.5754C1.53916 14.9119 2.3578 15.0907 3.70605 14.6453C6.73194 13.6457 8.75512 10.0599 9.33156 7.0886C9.33156 7.0886 10.147 1.77501 15.5238 0.0260227C15.2429 0.00976817 14.9603 1.5475e-05 14.6761 1.5475e-05C6.98867 -0.0113627 0.749584 6.25312 0.738281 13.9919C0.738281 13.9919 0.738281 13.9935 0.738281 13.9951C0.738281 14.117 0.76896 14.2341 0.827088 14.3381V14.3365Z" fill="url(#paint0_linear_2473_42239)"/>
<path d="M26.329 21.9134C27.7386 16.1593 23.4097 12.6694 23.4097 12.6694C21.1378 10.6848 19.0614 7.12991 19.7105 3.99116C19.9187 2.98013 20.2724 2.37222 20.6534 2.01462C20.957 1.73016 21.4091 1.6749 21.7692 1.88458C22.7654 2.46324 23.7051 3.17356 24.5642 4.02205C29.455 8.84638 30.0589 16.4129 26.3306 21.915L26.329 21.9134Z" fill="#9CD298"/>
<path d="M27.3236 17.4928C27.1056 16.5143 26.7374 15.5634 26.2223 14.658C25.2923 13.0245 24.1846 12.0736 24.0232 11.937C22.9317 10.9813 21.9483 9.67441 21.3234 8.35129C20.8342 7.31425 20.3175 5.74894 20.6404 4.18689C20.8197 3.31727 21.0974 2.90766 21.2992 2.71748C22.2406 3.26526 23.1157 3.93332 23.8972 4.70541C26.0851 6.86238 27.4463 9.73943 27.7321 12.8034C27.879 14.3898 27.7369 15.9795 27.3252 17.4928H27.3236ZM26.3305 21.914C30.0604 16.4119 29.4549 8.84543 24.5641 4.02109C23.7051 3.17423 22.7653 2.46228 21.7691 1.88362C21.5414 1.75196 21.275 1.72433 21.0328 1.79748C20.8939 1.83811 20.7632 1.91126 20.6534 2.01529C20.2723 2.37288 19.9187 2.9808 19.7104 3.99183C19.0613 7.13058 21.1394 10.6854 23.4096 12.6701C23.4096 12.6701 27.7385 16.16 26.3289 21.914H26.3305Z" fill="#69C481"/>
<path opacity="0.7" d="M24.548 4.00672C30.0379 9.42272 30.1267 18.2944 24.7467 23.821H24.745C24.5836 23.99 24.3494 24.0648 24.1218 24.0225C23.5356 23.9136 22.8268 23.4634 22.1745 22.1955C20.7132 19.3477 21.766 15.3621 23.4226 12.8362C23.4226 12.8362 26.5406 8.47021 23.9232 3.42969C24.1347 3.61499 24.343 3.80679 24.5464 4.00672H24.548Z" fill="#009B2F"/>
<path d="M24.1704 23.0456C23.7844 22.9058 23.3808 22.454 23.0223 21.755C22.2941 20.336 22.3732 18.6894 22.5686 17.5581C22.8173 16.1147 23.4163 14.59 24.2123 13.3742C24.3302 13.2035 25.1149 12.0316 25.5783 10.2663C25.8415 9.26505 25.9529 8.2589 25.9158 7.26575C27.1058 9.2423 27.7517 11.5098 27.7759 13.8813C27.8098 17.3192 26.531 20.5684 24.172 23.0456H24.1704ZM24.4465 24.0046C24.5595 23.9705 24.6628 23.9087 24.7484 23.8226H24.75C30.1301 18.2928 30.0413 9.42272 24.5514 4.00672C24.348 3.80679 24.1397 3.61499 23.9282 3.42969C26.5455 8.47021 23.4276 12.8362 23.4276 12.8362C21.7693 15.3621 20.7166 19.3477 22.1795 22.1955C22.8318 23.465 23.5406 23.9136 24.1268 24.0225C24.2349 24.042 24.3447 24.0355 24.4481 24.0063L24.4465 24.0046Z" fill="url(#paint1_linear_2473_42239)"/>
<path d="M2.13281 19.9062C6.32288 24.0674 11.5173 22.1087 11.5173 22.1087C14.3736 21.1595 18.47 21.1806 20.8178 23.3457C21.5751 24.0446 21.9125 24.6591 22.0223 25.1727C22.1095 25.5807 21.9254 26.0001 21.5638 26.2049C20.561 26.7705 19.4728 27.2208 18.3102 27.5296C11.69 29.2932 4.92296 25.9464 2.13281 19.9079V19.9062Z" fill="#9CD298"/>
<path d="M5.397 23.0255C6.3432 23.3376 7.34268 23.505 8.3793 23.5229C10.2491 23.5538 11.628 23.0824 11.8266 23.0109C13.2007 22.5557 14.8186 22.3737 16.2686 22.5102C17.4053 22.6175 19.0038 22.9702 20.1729 24.0495C20.8236 24.6493 21.0319 25.0996 21.09 25.371C20.1406 25.9058 19.1233 26.3203 18.0641 26.6015C15.1044 27.3898 11.9526 27.0972 9.18986 25.7774C7.76088 25.0947 6.4756 24.1568 5.39377 23.0271L5.397 23.0255ZM2.12891 19.9062C4.91906 25.9464 11.6861 29.2916 18.3063 27.528C19.4689 27.2175 20.5571 26.7689 21.5599 26.2032C21.7891 26.0732 21.9474 25.857 22.0103 25.6116C22.0459 25.4702 22.0507 25.3206 22.0184 25.1727C21.907 24.6591 21.5695 24.0446 20.8139 23.3457C18.4661 21.1806 14.3697 21.1595 11.5134 22.1087C11.5134 22.1087 6.32059 24.0674 2.12891 19.9062V19.9062Z" fill="#69C481"/>
<path opacity="0.7" d="M18.3281 27.5218C10.8974 29.5016 3.27779 25.0414 1.31274 17.5611V17.5578C1.25299 17.3335 1.30789 17.0913 1.45967 16.9174C1.85204 16.4655 2.59963 16.0835 4.01569 16.168C7.19337 16.3599 10.0578 19.3084 11.3673 22.0343C11.3673 22.0343 13.4987 26.9643 19.1403 27.278C18.8739 27.3658 18.6026 27.4487 18.3281 27.5218Z" fill="#009B2F"/>
<path d="M2.2693 17.4587C2.58577 17.197 3.17836 17.0783 3.95824 17.1254C5.54224 17.2213 6.90663 18.1316 7.7721 18.8793C8.87653 19.8334 9.87278 21.1305 10.5025 22.4407C10.5881 22.6308 11.1887 23.9084 12.4563 25.2104C13.1764 25.95 13.9773 26.5612 14.8444 27.0374C12.5483 27.0553 10.2829 26.4555 8.24519 25.2624C5.29196 23.5346 3.17351 20.7664 2.26607 17.457L2.2693 17.4587ZM1.30695 17.2035C1.27789 17.3189 1.27789 17.4408 1.30695 17.5578V17.5611C3.27362 25.0414 10.8933 29.5016 18.324 27.5218C18.5985 27.4487 18.8697 27.3658 19.1361 27.278C13.4945 26.9643 11.3631 22.0343 11.3631 22.0343C10.0552 19.3084 7.19081 16.3599 4.01153 16.168C2.59546 16.0835 1.84787 16.4655 1.4555 16.9174C1.38284 17.0003 1.33279 17.0994 1.30534 17.2035H1.30695Z" fill="url(#paint2_linear_2473_42239)"/>
</g>
<defs>
<linearGradient id="paint0_linear_2473_42239" x1="2.37394" y1="10.2842" x2="15.1953" y2="2.87159" gradientUnits="userSpaceOnUse">
<stop offset="0.01" stop-color="#00583D"/>
<stop offset="0.15" stop-color="#007656"/>
<stop offset="0.77" stop-color="#19AC5D" stop-opacity="0.7"/>
</linearGradient>
<linearGradient id="paint1_linear_2473_42239" x1="27.3935" y1="13.3321" x2="21.4792" y2="14.085" gradientUnits="userSpaceOnUse">
<stop offset="0.01" stop-color="#00583D"/>
<stop offset="0.15" stop-color="#007656"/>
<stop offset="0.77" stop-color="#19AC5D" stop-opacity="0.7"/>
</linearGradient>
<linearGradient id="paint2_linear_2473_42239" x1="8.97568" y1="25.1752" x2="11.3754" y2="19.6817" gradientUnits="userSpaceOnUse">
<stop offset="0.01" stop-color="#00583D"/>
<stop offset="0.15" stop-color="#007656"/>
<stop offset="0.77" stop-color="#19AC5D" stop-opacity="0.7"/>
</linearGradient>
<clipPath id="clip0_2473_42239">
<rect width="28" height="28" fill="white" transform="translate(0.738281)"/>
</clipPath>
</defs>
</svg>
