<svg width="93" height="24" viewBox="0 0 93 24" fill="none" xmlns="http://www.w3.org/2000/svg">
<path d="M92.4959 18.0955C92.4959 19.4811 92.4926 20.8675 92.4999 22.2531C92.5008 22.4546 92.4349 22.5554 92.2454 22.6292C90.8143 23.1847 89.3335 23.5272 87.8137 23.7124C86.7762 23.8386 85.7353 23.8984 84.6921 23.8632C83.1186 23.8099 81.5712 23.6001 80.127 22.9151C78.8203 22.2957 77.8128 21.3386 77.0777 20.089C76.4556 19.0337 76.1296 17.8759 75.9385 16.6746C75.6766 15.0301 75.662 13.3717 75.7075 11.7132C75.7482 10.2522 75.8791 8.79864 76.2613 7.37945C76.6329 5.99877 77.2444 4.74756 78.2438 3.71759C79.309 2.6196 80.6296 1.98621 82.1022 1.65354C83.4666 1.34545 84.8482 1.27826 86.2419 1.3602C87.3641 1.42575 88.4618 1.60437 89.5262 1.9772C90.4321 2.2943 91.255 2.75726 91.9844 3.38573C92.0259 3.42097 92.0616 3.46276 92.1039 3.49717C92.2316 3.60205 92.2235 3.69956 92.1202 3.82575C91.6193 4.44439 91.1257 5.06876 90.6297 5.69068C90.4345 5.93568 90.2377 6.17904 90.0483 6.42732C89.9694 6.53056 89.9109 6.56661 89.7889 6.46747C88.6724 5.55712 87.3746 5.11301 85.9606 4.97945C84.9588 4.8844 83.9618 4.8844 82.9763 5.13514C81.6574 5.47027 80.8483 6.32407 80.4685 7.61789C80.2327 8.4209 80.1506 9.24766 80.0912 10.0802C80.0124 11.1978 79.9945 12.3171 80.0213 13.4356C80.0538 14.7917 80.0986 16.1478 80.388 17.4834C80.7597 19.1992 81.794 20.053 83.4634 20.3349C84.4579 20.5028 85.458 20.4848 86.4598 20.3955C87.1421 20.3349 87.8178 20.2365 88.4862 20.0841C88.6464 20.0473 88.7058 19.976 88.705 19.8055C88.6993 18.2487 88.6985 16.6927 88.705 15.1358C88.705 14.9449 88.6423 14.8884 88.4594 14.8892C87.2673 14.8949 86.0744 14.8925 84.8823 14.8916C84.5457 14.8916 84.5286 14.8736 84.5278 14.5319C84.5278 13.5962 84.5278 12.6613 84.5278 11.7255C84.5278 11.4215 84.54 11.4092 84.8319 11.4092C86.5257 11.4092 88.2195 11.4059 89.9133 11.4092C91.3404 11.4125 92.4845 12.5531 92.4951 13.9969C92.5056 15.362 92.4975 16.7279 92.4975 18.093L92.4959 18.0955Z" fill="white"/>
<path d="M45.4544 12.7527C45.4544 9.88484 45.4544 7.01697 45.4544 4.1491C45.4544 2.60045 46.5887 1.4574 48.128 1.4574C51.2383 1.45658 54.3486 1.4574 57.4589 1.4574C57.698 1.4574 57.8178 1.57921 57.8183 1.82284C57.8183 2.81267 57.8183 3.80332 57.8183 4.79314C57.8183 5.08894 57.8037 5.10287 57.5061 5.10369C54.9243 5.10369 52.3426 5.10369 49.7608 5.10369C49.5526 5.10369 49.4486 5.20939 49.4486 5.4208C49.4486 7.08662 49.4477 8.75326 49.4469 10.4191C49.4469 10.6387 49.5594 10.7485 49.7844 10.7485C52.1019 10.7485 54.4194 10.7485 56.7368 10.7485C56.9455 10.7485 57.0502 10.8553 57.0507 11.0689C57.0507 12.0726 57.0507 13.0764 57.0507 14.0801C57.0507 14.3604 57.0434 14.3686 56.7661 14.3686C54.4283 14.3686 52.0905 14.3686 49.7527 14.3686C49.5488 14.3686 49.4469 14.4688 49.4469 14.6693C49.4469 16.4719 49.4469 18.2746 49.4469 20.0773C49.4469 20.2772 49.5488 20.3774 49.7527 20.378C52.3751 20.378 54.9975 20.378 57.6199 20.378C57.8324 20.378 57.9392 20.4834 57.9403 20.6943C57.9403 21.7046 57.9403 22.7157 57.9403 23.726C57.9403 23.9825 57.9257 23.9981 57.6793 23.9981C54.447 23.9981 51.2147 24.0022 47.9824 23.9964C46.6025 23.994 45.4568 22.8206 45.4552 21.4186C45.4511 18.5303 45.4544 15.6419 45.4544 12.7535H45.4552L45.4544 12.7527Z" fill="white"/>
<path d="M66.305 23.9562C64.4371 23.9169 62.6246 23.6227 60.9365 22.7623C60.4755 22.5272 60.0469 22.242 59.6558 21.8995C59.5314 21.7905 59.5103 21.6979 59.6095 21.5529C60.2022 20.6876 60.7877 19.8174 61.3748 18.9489C61.522 18.7309 61.522 18.7293 61.7293 18.8858C62.7873 19.6814 63.9907 20.1083 65.2844 20.2943C66.2326 20.4303 67.1848 20.4811 68.1313 20.2714C69.3616 19.9993 69.9015 19.1865 69.9983 18.0516C70.0463 17.4912 70.0349 16.9315 69.7291 16.4227C69.3795 15.8409 68.8582 15.4591 68.276 15.1494C67.3856 14.6757 66.431 14.3627 65.4902 14.0137C64.4908 13.6425 63.5069 13.241 62.5937 12.6789C61.0544 11.7325 60.1095 10.3846 59.8965 8.56308C59.7355 7.18159 59.8949 5.85007 60.6422 4.63983C61.2309 3.68688 62.0676 3.0035 63.032 2.47254C64.1737 1.84324 65.404 1.51713 66.701 1.44338C68.6769 1.33112 70.5732 1.65478 72.3735 2.49794C72.7557 2.67739 73.1062 2.91091 73.4517 3.15181C73.5957 3.25178 73.6193 3.34437 73.5127 3.50333C72.9443 4.35222 72.3833 5.20603 71.8295 6.06393C71.7279 6.22044 71.6531 6.23601 71.4945 6.1344C70.5634 5.53707 69.5299 5.22652 68.4468 5.06673C67.6263 4.94628 66.8042 4.88893 65.9797 5.02494C65.1934 5.15441 64.4949 5.44775 64.1851 6.24912C63.8533 7.10948 63.7777 7.98295 64.3843 8.77694C64.6957 9.185 65.1267 9.45048 65.5731 9.68647C66.392 10.1191 67.2685 10.4108 68.1337 10.7279C69.2177 11.1253 70.2861 11.5547 71.2725 12.1668C72.8622 13.1533 73.8315 14.5578 74.064 16.4374C74.2316 17.7911 74.0974 19.1103 73.4794 20.3476C72.9281 21.4521 72.071 22.2543 71.0001 22.8353C69.8121 23.4801 68.5387 23.8177 67.1962 23.9177C66.8986 23.9398 66.6009 23.9455 66.3025 23.9545L66.305 23.9562Z" fill="white"/>
<path d="M32.7384 17.9772C32.7384 19.0359 32.7368 20.0937 32.74 21.1524C32.7408 21.4392 32.7913 21.7227 32.8433 22.0046C32.9661 22.665 33.3922 23.0993 33.915 23.4598C34.0882 23.5794 34.2679 23.6892 34.4444 23.8039C34.4777 23.8261 34.5233 23.8482 34.5095 23.8957C34.4964 23.9408 34.4468 23.9424 34.407 23.9449C34.3598 23.9482 34.3119 23.9482 34.2647 23.9482C33.5329 23.9498 32.801 23.9531 32.0692 23.9531C30.1103 23.9531 28.4824 22.497 28.2466 20.5411C28.2189 20.31 28.2148 20.0782 28.2148 19.8463C28.2157 15.8452 28.2173 11.8441 28.2189 7.84299C28.2189 7.14651 28.4596 6.88513 29.1532 6.86792C29.7688 6.85235 30.3079 7.0867 30.782 7.46525C31.7805 8.2617 32.3026 9.33675 32.4888 10.5789C32.653 11.6728 32.6717 12.779 32.7034 13.8844C32.7425 15.2495 32.7311 16.6146 32.74 17.9797L32.7384 17.9772Z" fill="white"/>
<path d="M39.3721 14.4013C38.6809 14.4013 37.9898 14.4021 37.2986 14.4013C37.0587 14.4013 37.0319 14.3734 37.0319 14.1276C37.031 13.0829 37.031 12.0382 37.0319 10.9943C37.0319 10.7402 37.0554 10.7181 37.3156 10.7181C38.698 10.7173 40.0796 10.7198 41.4619 10.7148C41.6489 10.7148 41.7278 10.7673 41.7262 10.9705C41.7181 12.0283 41.7189 13.087 41.7262 14.1448C41.7278 14.3448 41.6563 14.4062 41.466 14.4046C40.7683 14.3972 40.0706 14.4021 39.3721 14.4021V14.4013Z" fill="white"/>
<path d="M30.4875 4.6198C29.2239 4.61652 28.2107 3.58081 28.2188 2.3001C28.2269 1.03988 29.2678 0.0115402 30.5322 0.0156372C31.7902 0.0197342 32.7863 1.05381 32.7814 2.35091C32.7765 3.61195 31.7552 4.62308 30.4883 4.6198H30.4875Z" fill="white"/>
<path d="M0.671875 9.87041C3.24143 5.50059 7.96666 5.98485 7.96666 5.98485C10.537 6.14463 13.9254 5.22773 15.4005 2.91705C15.8762 2.17222 16.0226 1.58799 16.003 1.13815C15.9876 0.780893 15.7428 0.47362 15.3997 0.383487C14.4467 0.135212 13.4481 0.00165058 12.4187 1.18003e-05C6.55503 -0.00818212 1.67449 4.25184 0.671875 9.87041Z" fill="#9CD298"/>
<path d="M2.69988 6.56662C3.3504 5.39161 4.21152 4.33296 5.24748 3.45293C7.24865 1.75187 9.79462 0.816946 12.417 0.821043C13.3546 0.822682 14.2873 0.942313 15.1891 1.17748C15.1988 1.41592 15.124 1.83381 14.715 2.47376C13.9799 3.625 12.7325 4.26905 11.8145 4.60745C10.6436 5.03845 9.26445 5.24248 8.02765 5.1671C7.84794 5.15153 6.603 5.06304 5.06208 5.49977C4.20665 5.74149 3.41545 6.10039 2.69906 6.56662H2.69988ZM0.671875 9.87041C3.24143 5.50059 7.96666 5.98485 7.96666 5.98485C10.537 6.14463 13.9254 5.22773 15.4005 2.91705C15.8762 2.17222 16.0226 1.58799 16.003 1.13815C15.9973 1.00786 15.9616 0.884136 15.9014 0.775976C15.7965 0.585877 15.6184 0.440845 15.3997 0.384307C14.4467 0.135212 13.4481 0.00165058 12.4187 1.18003e-05C6.55503 -0.00818212 1.67449 4.25184 0.671875 9.87041Z" fill="#69C481"/>
<path opacity="0.7" d="M12.4354 1.13309e-05C5.85298 -0.00900198 0.508945 5.36047 0.5 11.9935V11.9959C0.5 12.195 0.597578 12.3827 0.761835 12.4941C1.18467 12.7817 1.88561 12.9358 3.04029 12.5539C5.63099 11.6977 7.36463 8.62411 7.85821 6.07662C7.85821 6.07662 8.55671 1.52162 13.1608 0.0229543C12.9209 0.00902464 12.6786 1.13309e-05 12.4354 1.13309e-05Z" fill="#009B2F"/>
<path d="M1.31559 11.8697C1.35137 8.92729 2.50686 6.16839 4.57796 4.08714C6.00585 2.65156 7.75331 1.656 9.65853 1.16764C9.04379 1.75269 8.51199 2.43524 8.07614 3.20629C7.30771 4.56484 7.08734 5.75542 7.05726 5.93159C6.81819 7.15658 6.275 8.4504 5.56594 9.48365C5.01055 10.2932 4.07706 11.3486 2.78658 11.7755C2.14989 11.9861 1.63435 12.018 1.31559 11.8705V11.8697ZM0.575623 12.2909C0.620346 12.372 0.683772 12.4425 0.761835 12.4957C1.18467 12.7833 1.88561 12.9374 3.04029 12.5556C5.63099 11.6993 7.36463 8.62575 7.85821 6.07826C7.85821 6.07826 8.55671 1.52326 13.1608 0.0245931C12.9209 0.00902464 12.6786 1.13309e-05 12.4354 1.13309e-05C5.85298 -0.00900198 0.508945 5.36047 0.5 11.9935C0.5 11.9943 0.5 11.9951 0.5 11.9959C0.5 12.1 0.526834 12.2008 0.575623 12.2901V12.2909Z" fill="url(#paint0_linear_2057_39285)"/>
<path d="M22.4114 18.7804C23.6181 13.8485 19.9118 10.8569 19.9118 10.8569C17.9667 9.155 16.1884 6.1085 16.7437 3.41843C16.9226 2.55151 17.2243 2.0312 17.5512 1.72393C17.8106 1.48057 18.1993 1.43304 18.5058 1.61167C19.3588 2.1074 20.1639 2.71703 20.8989 3.44383C25.0867 7.57931 25.6047 14.0648 22.4114 18.7804V18.7804Z" fill="#9CD298"/>
<path d="M23.2636 14.9924C23.0774 14.1542 22.7627 13.3389 22.3211 12.5621C21.525 11.1626 20.5769 10.3465 20.437 10.2301C19.5027 9.41074 18.6611 8.29063 18.1253 7.15659C17.7057 6.26755 17.2641 4.9262 17.5406 3.5865C17.6943 2.84085 17.9317 2.49015 18.1041 2.32709C18.9108 2.7966 19.6589 3.36936 20.3289 4.03061C22.2016 5.87997 23.3676 8.34553 23.6124 10.9717C23.7393 12.331 23.6165 13.6945 23.2636 14.9916V14.9924ZM22.4114 18.7805C25.6046 14.0649 25.0866 7.57939 20.8989 3.44392C20.1638 2.71794 19.358 2.10749 18.5058 1.61176C18.3107 1.49868 18.0822 1.47574 17.8756 1.5372C17.7569 1.57243 17.6455 1.6347 17.5512 1.72402C17.2243 2.03129 16.9226 2.5516 16.7437 3.41852C16.1883 6.10859 17.9675 9.15509 19.9117 10.857C19.9117 10.857 23.6181 13.8494 22.4114 18.7805V18.7805Z" fill="#69C481"/>
<path opacity="0.7" d="M20.8886 3.43323C25.5903 8.07591 25.6659 15.6799 21.0586 20.4176L21.0569 20.4192C20.9187 20.5618 20.7179 20.6265 20.5235 20.5897C20.0218 20.4963 19.4144 20.1111 18.8566 19.023C17.6043 16.582 18.5061 13.166 19.9259 11.0003C19.9259 11.0003 22.5962 7.25815 20.3544 2.9375C20.5357 3.09646 20.7146 3.26116 20.8886 3.43241V3.43323Z" fill="#009B2F"/>
<path d="M20.5622 19.7523C20.2312 19.6326 19.8865 19.245 19.5791 18.6453C18.9554 17.4293 19.0237 16.0183 19.1912 15.0481C19.4043 13.8108 19.9174 12.5039 20.5988 11.4616C20.7004 11.315 21.3713 10.3104 21.7681 8.79861C21.9933 7.94071 22.0893 7.07789 22.0576 6.22654C23.0756 7.92023 23.6294 9.86464 23.6497 11.8967C23.679 14.8441 22.5845 17.6284 20.563 19.7523H20.5622ZM20.798 20.5749C20.8948 20.5462 20.9842 20.493 21.0566 20.4184L21.0582 20.4168C25.6655 15.6791 25.5891 8.07509 20.8883 3.43241C20.7142 3.26034 20.5362 3.09564 20.354 2.9375C22.5959 7.25816 19.9255 11.0003 19.9255 11.0003C18.5057 13.166 17.6048 16.582 18.8562 19.023C19.414 20.1111 20.0214 20.4963 20.5232 20.5897C20.6159 20.6069 20.7102 20.6011 20.798 20.5749Z" fill="url(#paint1_linear_2057_39285)"/>
<path d="M1.69141 17.0633C5.27984 20.6301 9.72697 18.9504 9.72697 18.9504C12.1729 18.1367 15.6809 18.1547 17.691 20.0107C18.3391 20.6088 18.6285 21.1365 18.7229 21.5765C18.7977 21.9256 18.6391 22.2861 18.3301 22.4607C17.4714 22.9457 16.5396 23.3308 15.5443 23.5963C9.87578 25.1081 4.08045 22.2394 1.69141 17.0625V17.0633Z" fill="#9CD298"/>
<path d="M4.48702 19.7378C5.29773 20.0049 6.15317 20.1492 7.04113 20.1639C8.64223 20.1909 9.82292 19.787 9.99287 19.7247C11.1695 19.3347 12.5551 19.1782 13.796 19.2953C14.7685 19.3871 16.1387 19.6903 17.1397 20.6146C17.6967 21.1291 17.8747 21.5143 17.926 21.747C17.1136 22.2058 16.2419 22.5606 15.3353 22.8023C12.7999 23.4783 10.1018 23.2276 7.73638 22.096C6.51258 21.5102 5.41239 20.7072 4.48621 19.7378H4.48702ZM1.69141 17.0625C4.07963 22.2394 9.87578 25.1081 15.5443 23.5963C16.5396 23.3309 17.4722 22.9457 18.3301 22.4607C18.5269 22.3492 18.6627 22.1632 18.7164 21.9526C18.7473 21.8322 18.7505 21.7035 18.7237 21.5757C18.6285 21.1357 18.3391 20.608 17.6918 20.0099C15.6817 18.1531 12.1737 18.1359 9.72778 18.9496C9.72778 18.9496 5.28066 20.6293 1.69222 17.0625H1.69141Z" fill="#69C481"/>
<path opacity="0.7" d="M15.5599 23.5937C9.19616 25.2906 2.67306 21.4682 0.989021 15.0556V15.0532C0.937792 14.8606 0.984955 14.6541 1.11587 14.5042C1.45252 14.1174 2.09165 13.7888 3.30406 13.8618C6.02568 14.0256 8.47815 16.5535 9.59867 18.8904C9.59867 18.8904 11.4242 23.1168 16.2551 23.3847C16.0266 23.4609 15.7949 23.5306 15.5599 23.5937V23.5937Z" fill="#009B2F"/>
<path d="M1.80884 14.9663C2.08043 14.7418 2.58703 14.6402 3.25544 14.6812C4.61096 14.7631 5.78027 15.544 6.52187 16.1847C7.46838 17.0025 8.31975 18.1144 8.86049 19.237C8.93367 19.3992 9.44759 20.4947 10.534 21.6116C11.1503 22.2458 11.8366 22.7694 12.5798 23.1774C10.6145 23.193 8.67347 22.6784 6.92926 21.6566C4.40117 20.1752 2.58621 17.803 1.80884 14.9671V14.9663ZM0.987555 14.75C0.962348 14.8483 0.962348 14.9532 0.988369 15.0532V15.0556C2.67322 21.4682 9.19632 25.2907 15.56 23.5937C15.7959 23.5306 16.0268 23.4609 16.2553 23.3847C11.4244 23.116 9.59883 18.8904 9.59883 18.8904C8.47831 16.5535 6.02584 14.0256 3.30422 13.8618C2.091 13.7888 1.45187 14.1174 1.11603 14.5042C1.05342 14.5755 1.01032 14.6599 0.987555 14.75V14.75Z" fill="url(#paint2_linear_2057_39285)"/>
<defs>
<linearGradient id="paint0_linear_2057_39285" x1="1.90025" y1="8.81503" x2="12.8842" y2="2.47057" gradientUnits="userSpaceOnUse">
<stop offset="0.01" stop-color="#00583D"/>
<stop offset="0.15" stop-color="#007656"/>
<stop offset="0.77" stop-color="#19AC5D" stop-opacity="0.7"/>
</linearGradient>
<linearGradient id="paint1_linear_2057_39285" x1="23.3156" y1="11.4068" x2="18.2518" y2="12.0509" gradientUnits="userSpaceOnUse">
<stop offset="0.01" stop-color="#00583D"/>
<stop offset="0.15" stop-color="#007656"/>
<stop offset="0.77" stop-color="#19AC5D" stop-opacity="0.7"/>
</linearGradient>
<linearGradient id="paint2_linear_2057_39285" x1="7.53529" y1="21.5998" x2="9.59322" y2="16.8932" gradientUnits="userSpaceOnUse">
<stop offset="0.01" stop-color="#00583D"/>
<stop offset="0.15" stop-color="#007656"/>
<stop offset="0.77" stop-color="#19AC5D" stop-opacity="0.7"/>
</linearGradient>
</defs>
</svg>
