<svg width="159" height="43" viewBox="0 0 159 43" fill="none" xmlns="http://www.w3.org/2000/svg">
<g clip-path="url(#clip0_6308_45629)">
<path d="M158.39 31.8399C158.39 34.2799 158.39 36.7199 158.39 39.1599C158.39 39.5099 158.28 39.6899 157.95 39.8199C155.49 40.7999 152.94 41.3999 150.32 41.7299C148.53 41.9499 146.74 42.0599 144.95 41.9999C142.24 41.9099 139.58 41.5399 137.09 40.3299C134.84 39.2399 133.11 37.5599 131.84 35.3599C130.77 33.4999 130.21 31.4599 129.88 29.3499C129.43 26.4599 129.4 23.5399 129.48 20.6199C129.55 18.0499 129.78 15.4899 130.43 12.9899C131.07 10.5599 132.12 8.35994 133.84 6.54994C135.67 4.61994 137.95 3.49994 140.48 2.91994C142.83 2.37994 145.21 2.25994 147.61 2.39994C149.54 2.51994 151.43 2.82994 153.26 3.48994C154.82 4.04994 156.24 4.85994 157.49 5.96994C157.56 6.02994 157.62 6.10994 157.7 6.16994C157.92 6.34994 157.91 6.52994 157.73 6.74994C156.87 7.83994 156.02 8.93994 155.16 10.0299C154.82 10.4599 154.49 10.8899 154.16 11.3299C154.02 11.5099 153.92 11.5799 153.71 11.3999C151.79 9.79994 149.55 9.01994 147.12 8.77994C145.4 8.60994 143.68 8.60994 141.98 9.04994C139.71 9.63994 138.32 11.1399 137.66 13.4199C137.25 14.8299 137.11 16.2899 137.01 17.7499C136.87 19.7199 136.84 21.6899 136.89 23.6599C136.95 26.0499 137.02 28.4299 137.52 30.7799C138.16 33.7999 139.94 35.2999 142.81 35.7999C144.52 36.0999 146.24 36.0599 147.97 35.9099C149.14 35.7999 150.31 35.6299 151.46 35.3599C151.74 35.2999 151.84 35.1699 151.84 34.8699C151.84 32.1299 151.83 29.3899 151.84 26.6499C151.84 26.3099 151.73 26.2099 151.42 26.2199C149.37 26.2299 147.31 26.2199 145.26 26.2199C144.68 26.2199 144.65 26.1899 144.65 25.5899V20.6499C144.65 20.1099 144.67 20.0899 145.17 20.0899C148.09 20.0899 151 20.0899 153.92 20.0899C156.38 20.0899 158.35 22.0999 158.37 24.6399C158.39 27.0399 158.37 29.4499 158.37 31.8499L158.39 31.8399Z" fill="#1C1C1C"/>
<path d="M77.3999 22.4401V7.30006C77.3999 4.57006 79.3499 2.56006 81.9999 2.56006C87.3599 2.56006 92.7099 2.56006 98.0699 2.56006C98.4799 2.56006 98.6899 2.77006 98.6899 3.20006V8.43006C98.6899 8.95006 98.6599 8.98006 98.1499 8.98006H84.8099C84.4499 8.98006 84.2699 9.17006 84.2699 9.54006C84.2699 12.4701 84.2699 15.4101 84.2699 18.3401C84.2699 18.7301 84.4599 18.9201 84.8499 18.9201H96.8199C97.1799 18.9201 97.3599 19.1101 97.3599 19.4801V24.7801C97.3599 25.2701 97.3499 25.2901 96.8699 25.2901H84.7899C84.4399 25.2901 84.2599 25.4701 84.2599 25.8201V35.3401C84.2599 35.6901 84.4399 35.8701 84.7899 35.8701H98.3399C98.7099 35.8701 98.8899 36.0601 98.8899 36.4301V41.7701C98.8899 42.2201 98.8599 42.2501 98.4399 42.2501C92.8699 42.2501 87.3099 42.2501 81.7399 42.2501C79.3599 42.2501 77.3899 40.1801 77.3899 37.7101C77.3899 32.6301 77.3899 27.5401 77.3899 22.4601L77.3999 22.4401Z" fill="#1C1C1C"/>
<path d="M113.3 42.16C110.08 42.09 106.96 41.57 104.06 40.06C103.27 39.65 102.53 39.14 101.85 38.54C101.64 38.35 101.6 38.19 101.77 37.93C102.79 36.41 103.8 34.88 104.81 33.35C105.06 32.97 105.06 32.96 105.42 33.24C107.24 34.64 109.31 35.39 111.54 35.72C113.17 35.96 114.81 36.05 116.44 35.68C118.56 35.2 119.49 33.77 119.65 31.77C119.73 30.78 119.71 29.8 119.19 28.9C118.59 27.88 117.69 27.2 116.69 26.66C115.16 25.83 113.51 25.28 111.89 24.66C110.17 24.01 108.48 23.3 106.9 22.31C104.25 20.64 102.62 18.27 102.26 15.07C101.98 12.64 102.26 10.3 103.54 8.16999C104.55 6.48999 105.99 5.28999 107.65 4.35999C109.62 3.24999 111.73 2.67999 113.97 2.54999C117.37 2.34999 120.64 2.91999 123.74 4.40999C124.4 4.72999 125 5.13999 125.6 5.55999C125.85 5.73999 125.89 5.89999 125.7 6.17999C124.72 7.66999 123.76 9.17999 122.8 10.69C122.63 10.97 122.5 10.99 122.22 10.81C120.62 9.75999 118.84 9.20999 116.97 8.92999C115.56 8.71999 114.14 8.61999 112.72 8.85999C111.37 9.08999 110.16 9.59999 109.63 11.01C109.06 12.52 108.93 14.06 109.97 15.46C110.51 16.18 111.25 16.65 112.02 17.06C113.43 17.82 114.94 18.33 116.43 18.89C118.3 19.59 120.14 20.35 121.83 21.42C124.57 23.16 126.24 25.63 126.64 28.94C126.93 31.32 126.7 33.64 125.63 35.82C124.68 37.76 123.21 39.18 121.36 40.2C119.31 41.33 117.12 41.93 114.81 42.11C114.3 42.15 113.79 42.16 113.27 42.17L113.3 42.16Z" fill="#1C1C1C"/>
<path d="M55.5 31.64C55.5 33.5 55.5 35.37 55.5 37.23C55.5 37.73 55.59 38.23 55.68 38.73C55.89 39.89 56.63 40.66 57.53 41.29C57.83 41.5 58.14 41.69 58.44 41.9C58.5 41.94 58.58 41.98 58.55 42.06C58.53 42.14 58.44 42.14 58.37 42.15C58.29 42.15 58.21 42.15 58.13 42.15C56.87 42.15 55.61 42.15 54.35 42.15C50.98 42.15 48.17 39.59 47.77 36.15C47.72 35.74 47.72 35.34 47.72 34.93C47.72 27.89 47.72 20.85 47.72 13.8C47.72 12.57 48.13 12.11 49.33 12.08C50.39 12.05 51.32 12.47 52.13 13.13C53.85 14.53 54.75 16.42 55.07 18.61C55.35 20.54 55.39 22.48 55.44 24.43C55.51 26.83 55.49 29.24 55.5 31.64Z" fill="#1C1C1C"/>
<path d="M66.9299 25.34C65.7399 25.34 64.5499 25.34 63.3599 25.34C62.9499 25.34 62.8999 25.29 62.8999 24.86C62.8999 23.02 62.8999 21.18 62.8999 19.35C62.8999 18.9 62.9399 18.86 63.3899 18.86C65.7699 18.86 68.1499 18.86 70.5299 18.86C70.8499 18.86 70.9899 18.95 70.9799 19.31C70.9699 21.17 70.9699 23.04 70.9799 24.9C70.9799 25.25 70.8599 25.36 70.5299 25.36C69.3299 25.35 68.1299 25.36 66.9199 25.36L66.9299 25.34Z" fill="#1C1C1C"/>
<path d="M51.62 8.12995C49.44 8.12995 47.7 6.29995 47.71 4.04995C47.72 1.82995 49.52 0.0199485 51.69 0.0299485C53.86 0.0299485 55.57 1.85995 55.56 4.13995C55.56 6.35995 53.79 8.13995 51.61 8.12995H51.62Z" fill="#1C1C1C"/>
<path d="M0.290039 17.37C4.71004 9.68001 12.85 10.53 12.85 10.53C17.28 10.81 23.11 9.20001 25.65 5.13001C26.47 3.82001 26.72 2.79001 26.69 2.00001C26.66 1.37001 26.24 0.83001 25.65 0.67001C24.01 0.24001 22.29 1.00015e-05 20.52 1.00015e-05C10.42 -0.00999 2.02004 7.48001 0.290039 17.37Z" fill="#A6CF9C"/>
<path d="M3.79004 11.56C4.91004 9.49001 6.39004 7.63001 8.18004 6.08001C11.63 3.09001 16.01 1.44001 20.52 1.45001C22.13 1.45001 23.74 1.66001 25.29 2.08001C25.31 2.50001 25.18 3.24001 24.47 4.36001C23.2 6.39001 21.06 7.52001 19.48 8.12001C17.46 8.88001 15.09 9.24001 12.96 9.10001C12.65 9.07001 10.51 8.92001 7.85004 9.69001C6.38004 10.12 5.01004 10.75 3.78004 11.57L3.79004 11.56ZM0.290039 17.37C4.71004 9.68001 12.85 10.53 12.85 10.53C17.28 10.81 23.11 9.20001 25.65 5.13001C26.47 3.82001 26.72 2.79001 26.69 2.00001C26.69 1.77001 26.62 1.55001 26.51 1.36001C26.33 1.03001 26.02 0.77001 25.65 0.67001C24.01 0.24001 22.29 1.00015e-05 20.52 1.00015e-05C10.42 -0.00999 2.02004 7.48001 0.290039 17.37Z" fill="#80C186"/>
<path opacity="0.7" d="M20.55 3.16875e-05C9.22 -0.0199683 0.02 9.43003 0 21.11C0 21.46 0.17 21.79 0.45 21.99C1.18 22.5 2.38 22.77 4.37 22.1C8.83 20.59 11.82 15.18 12.67 10.7C12.67 10.7 13.87 2.68003 21.8 0.0500317C21.39 0.0200317 20.97 3.16875e-05 20.55 3.16875e-05Z" fill="#44983F"/>
<path d="M1.4 20.89C1.46 15.71 3.45 10.86 7.02 7.19003C9.48 4.66003 12.49 2.91003 15.77 2.05003C14.71 3.08003 13.8 4.28003 13.05 5.64003C11.73 8.03003 11.35 10.13 11.3 10.44C10.89 12.6 9.95 14.87 8.73 16.69C7.77 18.11 6.17 19.97 3.94 20.72C2.84 21.09 1.96 21.15 1.41 20.89H1.4ZM0.13 21.63C0.21 21.77 0.32 21.9 0.45 21.99C1.18 22.5 2.38 22.77 4.37 22.1C8.83 20.59 11.82 15.18 12.67 10.7C12.67 10.7 13.87 2.68003 21.8 0.0500317C21.39 0.0200317 20.97 3.16875e-05 20.55 3.16875e-05C9.22 -0.0199683 0.02 9.43003 0 21.11C0 21.3 0.05 21.47 0.13 21.63Z" fill="url(#paint0_linear_6308_45629)"/>
<path d="M37.7299 33.06C39.8099 24.38 33.4299 19.11 33.4299 19.11C30.0799 16.11 27.0199 10.75 27.9799 6.01999C28.2899 4.48999 28.8099 3.57999 29.3699 3.03999C29.8199 2.60999 30.4899 2.52999 31.0099 2.83999C32.4799 3.70999 33.8599 4.78999 35.1299 6.05999C42.3399 13.34 43.2299 24.75 37.7299 33.05V33.06Z" fill="#A6CF9C"/>
<path d="M39.19 26.39C38.87 24.91 38.33 23.4801 37.57 22.1101C36.2 19.6501 34.57 18.21 34.33 18.01C32.72 16.57 31.27 14.6 30.35 12.6C29.63 11.0401 28.87 8.67005 29.34 6.32005C29.6 5.01005 30.01 4.39005 30.31 4.10005C31.7 4.93005 32.99 5.93005 34.14 7.10005C37.36 10.35 39.37 14.69 39.79 19.32C40.01 21.71 39.79 24.1101 39.19 26.4V26.39ZM37.72 33.0601C43.22 24.7601 42.33 13.35 35.12 6.07005C33.85 4.79005 32.47 3.72005 31 2.85005C30.66 2.65005 30.27 2.61005 29.91 2.72005C29.71 2.78005 29.51 2.89005 29.35 3.05005C28.79 3.59005 28.27 4.51005 27.96 6.03005C27 10.76 30.07 16.1301 33.41 19.1201C33.41 19.1201 39.79 24.39 37.71 33.07L37.72 33.0601Z" fill="#80C186"/>
<path opacity="0.7" d="M35.0999 6.04003C43.1899 14.21 43.3299 27.59 35.3899 35.93C35.1499 36.18 34.8099 36.3 34.4699 36.23C33.6099 36.07 32.5599 35.39 31.5999 33.47C29.4399 29.17 30.9999 23.16 33.4399 19.35C33.4399 19.35 38.0399 12.76 34.1799 5.16003C34.4899 5.44003 34.7999 5.73003 35.0999 6.03003V6.04003Z" fill="#44983F"/>
<path d="M34.5399 34.76C33.9699 34.55 33.3799 33.87 32.8499 32.81C31.7799 30.67 31.8899 28.19 32.1799 26.48C32.5499 24.3 33.4299 22 34.5999 20.17C34.7799 19.91 35.9299 18.14 36.6099 15.48C36.9999 13.97 37.1599 12.45 37.1099 10.95C38.8599 13.93 39.8199 17.35 39.8499 20.93C39.8999 26.12 38.0199 31.02 34.5399 34.76ZM34.9499 36.21C35.1199 36.16 35.2699 36.07 35.3999 35.93C43.3299 27.59 43.1999 14.21 35.1099 6.03003C34.8099 5.73003 34.4999 5.44003 34.1899 5.16003C38.0499 12.76 33.4499 19.35 33.4499 19.35C31.0099 23.16 29.4499 29.17 31.6099 33.47C32.5699 35.39 33.6199 36.06 34.4799 36.23C34.6399 36.26 34.7999 36.25 34.9499 36.2V36.21Z" fill="url(#paint1_linear_6308_45629)"/>
<path d="M2.05005 30.03C8.23005 36.31 15.89 33.35 15.89 33.35C20.1 31.92 26.14 31.95 29.6 35.22C30.7201 36.27 31.21 37.2 31.38 37.98C31.51 38.59 31.2401 39.23 30.7001 39.54C29.2201 40.39 27.62 41.07 25.9 41.54C16.14 44.2 6.16005 39.15 2.05005 30.04V30.03Z" fill="#A6CF9C"/>
<path d="M6.86004 34.74C8.26004 35.21 9.73004 35.46 11.26 35.49C14.02 35.54 16.05 34.83 16.34 34.72C18.37 34.03 20.75 33.76 22.89 33.96C24.56 34.12 26.92 34.66 28.65 36.28C29.61 37.19 29.92 37.86 30 38.27C28.6 39.08 27.1 39.7 25.54 40.13C21.17 41.32 16.53 40.88 12.46 38.89C10.35 37.86 8.46004 36.45 6.86004 34.74ZM2.05004 30.03C6.16004 39.14 16.14 44.19 25.9 41.53C27.61 41.06 29.22 40.38 30.7 39.53C31.04 39.33 31.27 39.01 31.36 38.64C31.41 38.43 31.42 38.2 31.37 37.98C31.21 37.21 30.71 36.28 29.59 35.22C26.13 31.95 20.09 31.92 15.88 33.35C15.88 33.35 8.22004 36.31 2.04004 30.03H2.05004Z" fill="#80C186"/>
<path opacity="0.7" d="M25.93 41.5201C14.97 44.5101 3.74 37.7801 0.839995 26.4901C0.749995 26.1501 0.839995 25.7801 1.05999 25.5201C1.63999 24.8401 2.73999 24.2601 4.82999 24.3901C9.51999 24.6801 13.74 29.1301 15.67 33.2401C15.67 33.2401 18.81 40.6801 27.13 41.1501C26.74 41.2801 26.34 41.4101 25.93 41.5201Z" fill="#44983F"/>
<path d="M2.25006 26.3401C2.72006 25.9401 3.59006 25.7701 4.74006 25.8401C7.07006 25.9801 9.09006 27.3601 10.3601 28.4901C11.9901 29.9301 13.4601 31.8901 14.3901 33.8601C14.5201 34.1501 15.4001 36.0701 17.2701 38.0401C18.3301 39.1601 19.5101 40.0801 20.7901 40.8001C17.4101 40.8301 14.0601 39.9201 11.0601 38.1201C6.71006 35.5101 3.58006 31.3401 2.24006 26.3501L2.25006 26.3401ZM0.840059 25.9601C0.800059 26.1301 0.800059 26.3201 0.840059 26.4901C3.74006 37.7801 14.9701 44.5101 25.9301 41.5201C26.3401 41.4101 26.7301 41.2901 27.1301 41.1501C18.8101 40.6801 15.6701 33.2401 15.6701 33.2401C13.7401 29.1301 9.52006 24.6801 4.83006 24.3901C2.74006 24.2601 1.64006 24.8401 1.06006 25.5201C0.950059 25.6501 0.880059 25.7901 0.840059 25.9501V25.9601Z" fill="url(#paint2_linear_6308_45629)"/>
</g>
<defs>
<linearGradient id="paint0_linear_6308_45629" x1="2.33" y1="15.36" x2="21.44" y2="4.56003" gradientUnits="userSpaceOnUse">
<stop stop-color="#24573F"/>
<stop offset="0.15" stop-color="#327458"/>
<stop offset="0.77" stop-color="#50A865" stop-opacity="0.7"/>
</linearGradient>
<linearGradient id="paint1_linear_6308_45629" x1="39.2899" y1="20.11" x2="30.5599" y2="21.19" gradientUnits="userSpaceOnUse">
<stop stop-color="#24573F"/>
<stop offset="0.15" stop-color="#327458"/>
<stop offset="0.77" stop-color="#50A865" stop-opacity="0.7"/>
</linearGradient>
<linearGradient id="paint2_linear_6308_45629" x1="12.0001" y1="37.9601" x2="15.6801" y2="29.7401" gradientUnits="userSpaceOnUse">
<stop stop-color="#24573F"/>
<stop offset="0.15" stop-color="#327458"/>
<stop offset="0.77" stop-color="#50A865" stop-opacity="0.7"/>
</linearGradient>
<clipPath id="clip0_6308_45629">
<rect width="158.4" height="42.24" fill="white"/>
</clipPath>
</defs>
</svg>
