<svg width="115" height="30" viewBox="0 0 115 30" fill="none" xmlns="http://www.w3.org/2000/svg">
<g clip-path="url(#clip0_5191_74382)">
<path d="M114.989 22.6239C114.989 24.3511 114.989 26.0784 114.989 27.8056C114.989 28.0534 114.91 28.1808 114.672 28.2728C112.901 28.9665 111.065 29.3913 109.179 29.6249C107.89 29.7806 106.601 29.8585 105.312 29.816C103.361 29.7523 101.446 29.4904 99.6527 28.6338C98.0327 27.8622 96.787 26.673 95.8726 25.1157C95.1022 23.799 94.699 22.3549 94.4614 20.8613C94.1374 18.8155 94.1158 16.7485 94.1734 14.6815C94.2238 12.8622 94.3894 11.0501 94.8574 9.28036C95.3182 7.56021 96.0742 6.00287 97.3127 4.7216C98.6303 3.35539 100.272 2.56257 102.094 2.152C103.786 1.76974 105.499 1.68479 107.227 1.7839C108.617 1.86884 109.978 2.08829 111.295 2.55549C112.419 2.9519 113.441 3.52529 114.341 4.31103C114.391 4.35351 114.435 4.41014 114.492 4.45261C114.651 4.58003 114.643 4.70745 114.514 4.86318C113.895 5.63477 113.283 6.41344 112.663 7.18503C112.419 7.48942 112.181 7.79381 111.943 8.10528C111.843 8.23269 111.771 8.28225 111.619 8.15483C110.237 7.02222 108.624 6.47007 106.874 6.30018C105.636 6.17984 104.398 6.17984 103.174 6.49131C101.539 6.90896 100.538 7.97078 100.063 9.58475C99.7679 10.5829 99.6671 11.6164 99.5951 12.6499C99.4943 14.0444 99.4727 15.4389 99.5087 16.8334C99.5519 18.5253 99.6023 20.21 99.9623 21.8736C100.423 24.0114 101.705 25.0732 103.771 25.4271C105.002 25.6395 106.241 25.6112 107.486 25.505C108.329 25.4271 109.171 25.3068 109.999 25.1157C110.201 25.0732 110.273 24.9812 110.273 24.7688C110.273 22.8292 110.266 20.8896 110.273 18.95C110.273 18.7093 110.194 18.6385 109.971 18.6456C108.494 18.6527 107.011 18.6456 105.535 18.6456C105.118 18.6456 105.096 18.6244 105.096 18.1997V14.7027C105.096 14.3205 105.11 14.3063 105.47 14.3063C107.573 14.3063 109.668 14.3063 111.771 14.3063C113.542 14.3063 114.96 15.7292 114.975 17.5272C114.989 19.2261 114.975 20.9321 114.975 22.631L114.989 22.6239Z" fill="white"/>
<path d="M56.6674 15.9627V5.24537C56.6674 3.31286 58.0714 1.89001 59.9794 1.89001C63.8387 1.89001 67.6908 1.89001 71.5501 1.89001C71.8453 1.89001 71.9965 2.03867 71.9965 2.34306V6.04528C71.9965 6.41337 71.9749 6.43461 71.6077 6.43461H62.0027C61.7435 6.43461 61.6139 6.56911 61.6139 6.83102C61.6139 8.90512 61.6139 10.9863 61.6139 13.0604C61.6139 13.3365 61.7507 13.4709 62.0315 13.4709H70.6501C70.9093 13.4709 71.0389 13.6054 71.0389 13.8674V17.6191C71.0389 17.966 71.0317 17.9802 70.6861 17.9802H61.9883C61.7363 17.9802 61.6067 18.1076 61.6067 18.3553V25.0944C61.6067 25.3421 61.7363 25.4695 61.9883 25.4695H71.7445C72.0109 25.4695 72.1405 25.604 72.1405 25.8659V29.646C72.1405 29.9646 72.1189 29.9858 71.8165 29.9858C67.806 29.9858 63.8027 29.9858 59.7922 29.9858C58.0786 29.9858 56.6602 28.5205 56.6602 26.772C56.6602 23.176 56.6602 19.5729 56.6602 15.9768L56.6674 15.9627Z" fill="white"/>
<path d="M82.5168 29.9221C80.1983 29.8726 77.9519 29.5045 75.8639 28.4356C75.295 28.1453 74.7622 27.7843 74.2726 27.3596C74.1214 27.2251 74.0926 27.1118 74.215 26.9278C74.9494 25.8518 75.6767 24.7687 76.4039 23.6857C76.5839 23.4167 76.5839 23.4096 76.8431 23.6078C78.1535 24.5988 79.6439 25.1298 81.2496 25.3634C82.4232 25.5333 83.604 25.597 84.7776 25.335C86.3041 24.9953 86.9737 23.983 87.0889 22.5672C87.1465 21.8664 87.1321 21.1727 86.7577 20.5356C86.3257 19.8136 85.6777 19.3322 84.9576 18.95C83.856 18.3624 82.668 17.9731 81.5016 17.5342C80.2631 17.0741 79.0463 16.5715 77.9087 15.8707C76.0007 14.6885 74.827 13.0108 74.5678 10.7456C74.3662 9.02546 74.5678 7.36902 75.4894 5.86123C76.2167 4.67199 77.2535 3.82254 78.4487 3.16421C79.8671 2.37846 81.3864 1.97497 82.9992 1.88294C85.4473 1.74137 87.8017 2.14486 90.0338 3.1996C90.509 3.42612 90.941 3.71635 91.373 4.01366C91.553 4.14108 91.5818 4.25434 91.445 4.45255C90.7394 5.50729 90.0482 6.57619 89.3569 7.64509C89.2345 7.8433 89.1409 7.85746 88.9393 7.73004C87.7873 6.98676 86.5057 6.59743 85.1592 6.39922C84.144 6.25057 83.1216 6.17978 82.0992 6.34967C81.1272 6.51248 80.2559 6.8735 79.8743 7.87162C79.4639 8.94052 79.3703 10.0307 80.1191 11.0217C80.5079 11.5314 81.0408 11.8641 81.5952 12.1543C82.6104 12.6923 83.6976 13.0533 84.7704 13.4497C86.1169 13.9452 87.4417 14.4832 88.6585 15.2407C90.6314 16.4724 91.8338 18.2208 92.1218 20.5639C92.3306 22.2487 92.165 23.891 91.3946 25.4341C90.7106 26.8074 89.6521 27.8126 88.3201 28.5347C86.8441 29.3346 85.2673 29.7593 83.604 29.8867C83.2368 29.915 82.8696 29.9221 82.4952 29.9292L82.5168 29.9221Z" fill="white"/>
<path d="M40.9064 22.4753C40.9064 23.7919 40.9064 25.1157 40.9064 26.4323C40.9064 26.7863 40.9712 27.1402 41.036 27.4942C41.1872 28.3153 41.72 28.8604 42.368 29.3063C42.584 29.455 42.8072 29.5895 43.0232 29.7381C43.0664 29.7664 43.1241 29.7948 43.1025 29.8514C43.0881 29.908 43.0232 29.908 42.9728 29.9151C42.9152 29.9151 42.8576 29.9151 42.8 29.9151C41.8928 29.9151 40.9856 29.9151 40.0784 29.9151C37.6519 29.9151 35.6287 28.1029 35.3407 25.6678C35.3047 25.3776 35.3047 25.0944 35.3047 24.8042C35.3047 19.8207 35.3047 14.8372 35.3047 9.84667C35.3047 8.97598 35.5999 8.65036 36.4639 8.62912C37.2271 8.60788 37.8967 8.90519 38.48 9.37239C39.7184 10.3634 40.3664 11.7013 40.5968 13.2516C40.7984 14.6178 40.8272 15.9911 40.8632 17.3715C40.9136 19.0704 40.8992 20.7764 40.9064 22.4753Z" fill="white"/>
<path d="M49.1282 18.0155C48.2714 18.0155 47.4146 18.0155 46.5578 18.0155C46.2626 18.0155 46.2266 17.9801 46.2266 17.6758C46.2266 16.3733 46.2266 15.0708 46.2266 13.7753C46.2266 13.4568 46.2554 13.4285 46.5794 13.4285C48.293 13.4285 50.0066 13.4285 51.7203 13.4285C51.9507 13.4285 52.0515 13.4922 52.0443 13.747C52.0371 15.0637 52.0371 16.3874 52.0443 17.7041C52.0443 17.9518 51.9579 18.0297 51.7203 18.0297C50.8563 18.0226 49.9922 18.0297 49.121 18.0297L49.1282 18.0155Z" fill="white"/>
<path d="M38.1122 5.83299C36.5425 5.83299 35.2897 4.53756 35.2969 2.94483C35.3041 1.37334 36.6001 0.0920715 38.1626 0.0991503C39.725 0.0991503 40.9562 1.39457 40.949 3.00854C40.949 4.58004 39.6746 5.84007 38.105 5.83299H38.1122Z" fill="white"/>
<path d="M20.2774 1.42284C20.3062 1.98915 20.119 2.71826 19.5286 3.64559C17.6926 6.53374 13.4805 7.68051 10.2764 7.4823C10.2764 7.4823 10.2332 7.4823 10.1684 7.47522C9.99562 7.46815 9.62841 7.45399 9.1316 7.4823C7.66277 7.58141 5.02031 8.07692 2.83147 10.2289C2.26266 10.7952 1.72264 11.4677 1.24023 12.2817C2.19785 7.0151 5.86993 2.71118 10.73 0.906088C10.9604 0.821142 11.1836 0.750354 11.414 0.672487C11.6445 0.601699 11.8821 0.530911 12.1197 0.467202C12.3285 0.410571 12.5445 0.361019 12.7533 0.318546C12.8037 0.311468 12.8541 0.29731 12.9045 0.283152C13.1133 0.24068 13.3221 0.205285 13.5381 0.17697C13.5525 0.17697 13.5669 0.17697 13.5813 0.17697C14.0637 0.0991033 14.5605 0.0495517 15.0573 0.0212364C15.3021 0.00707881 15.5541 0 15.7989 0H15.8421C16.1445 0 16.447 0.00707881 16.7422 0.0283152C17.6926 0.0849457 18.6286 0.24068 19.5286 0.481359C19.579 0.495517 19.6366 0.509674 19.6798 0.53799C19.8814 0.630014 20.047 0.778669 20.1478 0.976876C20.1766 1.01935 20.191 1.0689 20.2126 1.11845C20.2342 1.168 20.2414 1.21756 20.2558 1.26711C20.263 1.32374 20.2774 1.37329 20.2774 1.42992V1.42284Z" fill="#A6CF9C"/>
<path d="M20.2558 1.26003C20.2486 1.21048 20.2342 1.16092 20.2126 1.11137C20.191 1.06182 20.1694 1.01935 20.1478 0.969796C20.047 0.778668 19.8814 0.622934 19.6798 0.53091C19.6366 0.509673 19.579 0.488437 19.5286 0.474279C18.6286 0.233599 17.6926 0.0849445 16.7422 0.0212352C16.447 -1.26795e-06 16.1445 -0.00708008 15.8421 -0.00708008H15.7989C15.5541 -0.00708008 15.3021 -0.00708008 15.0573 0.0141564C14.5605 0.0424716 14.0637 0.0920233 13.5813 0.16989C13.5669 0.16989 13.5525 0.16989 13.5381 0.16989C13.3293 0.198205 13.1133 0.240678 12.9045 0.276072C12.8541 0.29023 12.8037 0.304388 12.7533 0.311466C12.5445 0.353939 12.3285 0.403491 12.1197 0.460121C11.8821 0.523831 11.6445 0.58754 11.414 0.665407C11.1836 0.743274 10.9532 0.814062 10.73 0.899008C5.86993 2.71118 2.19785 7.0151 1.24023 12.2817C1.72264 11.4677 2.26266 10.7952 2.83147 10.2289C5.02031 8.07692 7.66277 7.5814 9.1316 7.4823C9.62841 7.45399 9.99562 7.46107 10.1684 7.47522C10.2404 7.47522 10.2764 7.4823 10.2764 7.4823C13.4805 7.68051 17.6926 6.53374 19.5286 3.64559C20.119 2.71118 20.299 1.98207 20.2774 1.42284C20.2774 1.36621 20.2702 1.31666 20.2558 1.26003ZM18.679 3.09344C17.7646 4.53044 16.2093 5.33742 15.0717 5.76215C13.6389 6.29306 11.9613 6.5479 10.442 6.46295C10.4132 6.46295 10.3844 6.46295 10.3556 6.46295C10.262 6.46295 9.90922 6.43464 9.39081 6.45587C8.71399 6.47711 7.74917 6.57621 6.66915 6.8806C5.61793 7.17791 4.64591 7.62388 3.76029 8.19726C3.76029 8.19726 3.74589 8.20434 3.73869 8.21142C4.5379 6.73903 5.61073 5.42237 6.89955 4.31807C7.32436 3.95705 7.76357 3.62435 8.22438 3.32704C8.35398 3.23502 8.48359 3.15007 8.61319 3.07928C8.74279 2.98726 8.87239 2.90939 9.0092 2.8386C9.254 2.68995 9.51321 2.55545 9.77241 2.43511C9.94522 2.35016 10.118 2.26522 10.2908 2.19443C10.406 2.1378 10.5284 2.08825 10.6508 2.0387C11.0108 1.89004 11.378 1.76262 11.7525 1.64936C11.8605 1.60689 11.9685 1.57857 12.0765 1.55026C12.1773 1.52194 12.2853 1.49363 12.3861 1.46531C13.0701 1.28834 13.7757 1.16092 14.4957 1.09014C14.9349 1.04766 15.3813 1.02643 15.8205 1.02643C16.987 1.02643 18.1462 1.18216 19.2694 1.47239C19.2766 1.7697 19.1902 2.29353 18.679 3.09344Z" fill="#80C186"/>
<path opacity="0.7" d="M16.7428 0.0283152C15.8932 0.304389 15.1444 0.672487 14.4964 1.09014C12.0051 2.68995 10.9035 5.06843 10.4427 6.46295C10.2843 6.93723 10.2051 7.29825 10.1691 7.47522C10.1547 7.55309 10.1475 7.60264 10.1475 7.60264C9.53547 10.7881 7.37543 14.6319 4.15696 15.7008C3.76815 15.8282 3.42254 15.9061 3.11294 15.9556C2.60173 16.0193 2.19852 15.9769 1.86731 15.8849C1.75931 15.8495 1.65851 15.8141 1.57211 15.7716C1.4857 15.7291 1.3993 15.6796 1.3273 15.63C1.2769 15.6017 1.2337 15.5592 1.1977 15.5168C1.1617 15.4743 1.1329 15.4389 1.1041 15.3893C1.1041 15.3893 1.1041 15.3893 1.1041 15.3823H1.0897L1.01769 15.1982C1.01049 15.1699 1.00329 15.1416 0.996094 15.1062C0.996094 15.0779 0.996094 15.0425 0.996094 15.0142C0.996094 14.0868 1.0825 13.1807 1.2409 12.2959C2.19852 7.0151 5.8706 2.71118 10.7307 0.906088C10.9611 0.821142 11.1843 0.750354 11.4147 0.672487C11.6451 0.601699 11.8827 0.530911 12.1203 0.467202C12.3291 0.410571 12.5451 0.361019 12.7539 0.318546C12.8043 0.311468 12.8547 0.29731 12.9051 0.283152C13.1139 0.24068 13.3228 0.205286 13.5388 0.17697C13.5532 0.17697 13.5676 0.17697 13.582 0.17697C14.0644 0.0991034 14.5612 0.0495517 15.058 0.0212364C15.3028 0.00707881 15.5548 0 15.7996 0H15.8428C16.1452 0 16.4476 0.00707881 16.7428 0.0283152Z" fill="#44983F"/>
<path d="M15.8428 -2.5359e-06H15.7996C15.5548 -2.5359e-06 15.3028 -2.53722e-06 15.058 0.0212339C14.5612 0.0495491 14.0644 0.0991008 13.582 0.176968C13.5676 0.176968 13.5532 0.176968 13.5388 0.176968C13.33 0.205283 13.1139 0.247756 12.9051 0.28315C12.8547 0.297308 12.8043 0.311465 12.7539 0.318544C12.5451 0.361017 12.3291 0.410568 12.1203 0.467199C11.8827 0.530908 11.6451 0.594618 11.4147 0.672484C11.1843 0.750351 10.9539 0.821139 10.7307 0.906085C5.8706 2.71118 2.19852 7.0151 1.2409 12.2817C1.0825 13.1666 0.996094 14.0727 0.996094 15C0.996094 15.0283 0.996094 15.0637 0.996094 15.092C0.996094 15.1274 1.00329 15.1557 1.01769 15.184L1.0897 15.361C1.0897 15.361 1.0897 15.3681 1.0897 15.3752C1.1185 15.4176 1.1473 15.4601 1.1833 15.5026C1.2193 15.5451 1.2625 15.5875 1.3129 15.6159C1.3921 15.6654 1.4713 15.715 1.55771 15.7574C1.64411 15.7999 1.75211 15.8353 1.85291 15.8707C2.18412 15.9698 2.58733 16.0123 3.09854 15.9415C3.40814 15.899 3.75375 15.8141 4.14256 15.6866C7.36103 14.6177 9.52107 10.7739 10.1331 7.58848C10.1331 7.58848 10.1331 7.54601 10.1547 7.46106C10.1907 7.28409 10.2699 6.92307 10.4283 6.44879C10.8891 5.05427 11.9907 2.67579 14.482 1.07598C15.13 0.658327 15.8788 0.290229 16.7284 0.0141551C16.4332 -0.00708135 16.1308 -0.0141602 15.8284 -0.0141602L15.8428 -2.5359e-06ZM10.4211 4.0066C9.88828 4.94101 9.57147 5.81878 9.38427 6.44172C9.22587 6.95847 9.16827 7.31241 9.14667 7.41151C9.14667 7.43275 9.13947 7.45398 9.13227 7.4823C8.82986 8.99717 8.16024 10.5828 7.28903 11.8499C6.59781 12.8693 5.43859 14.1859 3.83295 14.7168C3.04094 14.9788 2.40012 15.0212 2.00411 14.8301C2.01852 13.2374 2.30652 11.68 2.83213 10.2218C3.08414 9.521 3.39374 8.84143 3.75375 8.1831C4.36576 7.06465 5.14338 6.03114 6.065 5.10382C6.73461 4.43133 7.45463 3.83671 8.22505 3.31996C8.35465 3.23501 8.48425 3.15007 8.61385 3.0722C8.74346 2.98726 8.87306 2.90939 9.00986 2.83152C9.25467 2.68287 9.51387 2.54837 9.77308 2.42803C9.94588 2.34308 10.1187 2.25814 10.2915 2.18735C10.4139 2.13072 10.5363 2.08117 10.6515 2.03162C11.0115 1.88296 11.3787 1.75554 11.7531 1.64228C11.8611 1.60689 11.9691 1.57149 12.0771 1.54318C12.1851 1.51486 12.2859 1.48655 12.3867 1.45823C11.6235 2.18735 10.9611 3.03681 10.4211 4.0066Z" fill="url(#paint0_linear_5191_74382)"/>
<path d="M28.2621 23.4096C28.4781 22.5035 28.5573 21.647 28.5429 20.8471C28.4853 17.7466 26.9445 15.5097 25.9581 14.3912C25.6269 14.016 25.3533 13.7683 25.2237 13.655C25.1661 13.6055 25.1373 13.5842 25.1373 13.5842C22.718 11.4535 20.5076 7.64512 21.1988 4.28268C21.278 3.87919 21.386 3.53233 21.5084 3.2421C21.5516 3.14299 21.5948 3.05097 21.638 2.96602C21.8108 2.61916 21.998 2.36432 22.2068 2.16612C22.25 2.12364 22.3004 2.08825 22.3508 2.05286C22.3508 2.05286 22.3508 2.05286 22.358 2.04578C22.4012 2.01746 22.4516 1.99623 22.502 1.97499C22.5092 1.97499 22.5236 1.96791 22.5308 1.96791C22.7252 1.89004 22.9412 1.87589 23.15 1.93252C23.2364 1.95375 23.3156 1.98915 23.3948 2.03162C24.194 2.5059 24.9645 3.05097 25.6917 3.68806C25.9221 3.88627 26.1381 4.09155 26.3541 4.311C26.9085 4.86314 27.4125 5.44361 27.8661 6.05946C31.639 11.1633 31.783 18.1642 28.2621 23.4238V23.4096Z" fill="#A6CF9C"/>
<path d="M27.8661 6.0382C27.4125 5.42234 26.9085 4.84188 26.3541 4.28973C26.1381 4.07029 25.9149 3.865 25.6917 3.66679C24.9717 3.0297 24.2012 2.48463 23.3948 2.01035C23.3228 1.96788 23.2364 1.93248 23.15 1.91125C23.0492 1.88293 22.9412 1.87585 22.8404 1.87585C22.8404 1.87585 22.8332 1.87585 22.826 1.87585C22.754 1.87585 22.682 1.89001 22.61 1.91125C22.5812 1.91833 22.5596 1.92541 22.5308 1.93956C22.5236 1.93956 22.5092 1.93956 22.502 1.94664C22.4516 1.96788 22.4084 1.98912 22.358 2.01743C22.358 2.01743 22.3508 2.01743 22.3508 2.02451C22.3004 2.0599 22.25 2.0953 22.2068 2.13777C21.998 2.3289 21.8108 2.59081 21.638 2.93768C21.5948 3.0297 21.5516 3.11465 21.5084 3.21375C21.386 3.50398 21.278 3.85084 21.1988 4.25434C20.5076 7.61677 22.718 11.4252 25.1373 13.5559C25.1373 13.5559 25.1661 13.5842 25.2237 13.6267C25.3533 13.7399 25.6197 13.9877 25.9581 14.3629C26.9445 15.4813 28.4853 17.7182 28.5429 20.8188C28.5573 21.6187 28.4781 22.4752 28.2621 23.3813C31.783 18.1217 31.6318 11.1208 27.8661 6.01696V6.0382ZM28.1397 15.7008C27.5853 14.7168 26.9661 13.9594 26.4981 13.4639C26.1381 13.0745 25.8645 12.848 25.7925 12.7843C25.7709 12.7631 25.7493 12.7489 25.7349 12.7277C24.5973 11.7083 23.5748 10.328 22.9196 8.93343C22.394 7.82206 21.8468 6.15146 22.1852 4.47378C22.3796 3.53938 22.6748 3.10049 22.8836 2.8952C23.8916 3.48274 24.8205 4.1977 25.6557 5.02593C25.9725 5.33739 26.2677 5.66302 26.5485 6.00988C27.0165 6.56203 27.4341 7.15665 27.8013 7.78666C27.8301 7.82913 27.8589 7.87869 27.8877 7.92824C28.1973 8.45207 28.4709 9.00422 28.7013 9.56344C28.7733 9.72626 28.8381 9.88907 28.8957 10.0519C28.9101 10.0944 28.9245 10.1439 28.9461 10.1864C29.0037 10.3633 29.0685 10.5332 29.1261 10.7102C29.1693 10.8659 29.2197 11.0146 29.2629 11.1633C29.3061 11.3119 29.3494 11.4606 29.3782 11.6092C29.4214 11.7579 29.4502 11.9136 29.4862 12.0623C29.6086 12.6003 29.695 13.1524 29.7454 13.7045C29.9038 15.4035 29.7454 17.1095 29.3134 18.7305C29.3134 18.7234 29.3134 18.7093 29.3062 18.6951C29.0757 17.6616 28.6869 16.6564 28.1397 15.6937V15.7008Z" fill="#80C186"/>
<path opacity="0.7" d="M28.2627 23.4097C27.7731 24.1529 27.2042 24.8608 26.5634 25.5262C26.5274 25.5687 26.4914 25.6041 26.4482 25.6253C26.369 25.6749 26.2898 25.7174 26.2034 25.7315C26.1026 25.7598 26.0018 25.7669 25.8938 25.7457C25.541 25.6749 25.1522 25.4979 24.7562 25.1086C24.6194 24.9812 24.4826 24.8254 24.353 24.6485C24.2594 24.5281 24.1802 24.4007 24.0866 24.2591C24.0002 24.1176 23.9066 23.9547 23.8274 23.7848C22.2721 20.7339 23.3882 16.4583 25.1594 13.7542C25.1594 13.7542 25.1882 13.7188 25.2314 13.648C25.3322 13.4923 25.5194 13.1808 25.7354 12.7348C26.3762 11.4182 27.2402 8.92643 26.5562 6.01704C26.3834 5.2596 26.1026 4.47385 25.6922 3.66687C25.9226 3.86508 26.1386 4.07036 26.3546 4.28981C26.909 4.84195 27.413 5.42242 27.8667 6.03827C31.6395 11.1421 31.7835 18.143 28.2627 23.4026V23.4097Z" fill="#44983F"/>
<path d="M27.8667 6.03827C27.413 5.42242 26.909 4.84195 26.3546 4.28981C26.1386 4.07036 25.9154 3.86508 25.6922 3.66687C26.1026 4.46678 26.3906 5.2596 26.5562 6.01704C27.2402 8.92643 26.3762 11.4111 25.7354 12.7348C25.5194 13.1808 25.3322 13.4923 25.2314 13.648C25.1882 13.7188 25.1594 13.7542 25.1594 13.7542C23.3882 16.4583 22.2721 20.7339 23.8274 23.7848C23.9138 23.9547 24.0002 24.1105 24.0866 24.2591C24.1802 24.4007 24.2594 24.5281 24.353 24.6485C24.4898 24.8254 24.6194 24.9812 24.7562 25.1086C25.1522 25.4979 25.541 25.6749 25.8938 25.7457C26.0018 25.7669 26.1026 25.7598 26.2034 25.7315C26.2106 25.7315 26.2322 25.7315 26.2394 25.7315C26.2538 25.7315 26.261 25.7174 26.2754 25.7174C26.333 25.6961 26.3906 25.6678 26.4482 25.6324C26.4914 25.6041 26.5274 25.5758 26.5634 25.5404C27.2042 24.8679 27.7731 24.16 28.2627 23.4168C31.7835 18.1572 31.6323 11.1563 27.8667 6.05243V6.03827ZM28.5507 20.8401C27.9099 22.2417 27.0458 23.5442 25.9514 24.6909C25.541 24.5423 25.109 24.0538 24.7274 23.3106C23.9498 21.7886 24.0362 20.026 24.245 18.8084C24.5042 17.2865 25.1306 15.6796 25.9586 14.3842C25.9658 14.363 25.9874 14.3417 25.9946 14.3276C26.0522 14.2426 26.2538 13.9453 26.4986 13.471C26.801 12.8906 27.1826 12.0411 27.4491 11.0005C27.7299 9.93162 27.8523 8.84856 27.8091 7.79382C27.8379 7.83629 27.8667 7.88584 27.8955 7.93539C28.2051 8.45922 28.4787 9.00429 28.7091 9.5706C28.7811 9.73341 28.8459 9.89622 28.9035 10.059C28.9179 10.1015 28.9323 10.1511 28.9539 10.1935C29.0115 10.3705 29.0763 10.5404 29.1339 10.7174C29.1771 10.8731 29.2275 11.0218 29.2707 11.1704C29.3139 11.3191 29.3499 11.4677 29.3859 11.6164C29.4291 11.7721 29.4579 11.9208 29.4939 12.0694C29.6883 12.9755 29.7891 13.9099 29.7963 14.8726C29.8035 16.1893 29.6451 17.4776 29.3067 18.7093C29.1123 19.4455 28.8603 20.1534 28.5507 20.8471V20.8401Z" fill="url(#paint1_linear_5191_74382)"/>
<path d="M23.6559 27.4446C23.6559 27.4446 23.6559 27.4517 23.6559 27.4588C23.6415 27.5154 23.6199 27.5791 23.5911 27.6357C23.5695 27.6853 23.5407 27.7348 23.5047 27.7773C23.4615 27.8552 23.3967 27.9189 23.3247 27.9826C23.2815 28.0251 23.2311 28.0534 23.1807 28.0817C22.3671 28.5418 21.5102 28.9311 20.603 29.2355C20.459 29.2851 20.3294 29.3276 20.1782 29.37C20.027 29.4125 19.8758 29.4621 19.7174 29.4974C19.2854 29.6107 18.8534 29.7098 18.4214 29.7877C18.0686 29.8514 17.7086 29.8939 17.3557 29.9293C16.4629 30.0213 15.5845 30.0284 14.7061 29.9505C11.2716 29.6603 8.04595 28.1525 5.6051 25.7528C5.3171 25.4696 5.04349 25.1723 4.77708 24.8679C4.51068 24.5635 4.25867 24.245 4.01387 23.9193C3.43786 23.1336 2.94105 22.2912 2.52344 21.3851H2.53064C2.94105 21.8028 3.36586 22.1567 3.79786 22.454C3.92747 22.5531 4.06427 22.6452 4.19387 22.7301C4.28747 22.7867 4.37388 22.8363 4.46748 22.8929C4.50348 22.9142 4.53948 22.9354 4.57548 22.9637C4.68348 23.0203 4.79869 23.084 4.90669 23.1407C5.05069 23.2185 5.20189 23.2893 5.3531 23.3601C5.5835 23.4663 5.79951 23.5512 6.02271 23.6362C6.10191 23.6645 6.17391 23.6928 6.24592 23.707C7.75795 24.2096 9.19798 24.2591 10.2996 24.1529C10.5012 24.1317 10.6956 24.1105 10.8684 24.0822C11.0412 24.0538 11.1996 24.0255 11.3508 23.9901C11.43 23.9831 11.5092 23.9618 11.5812 23.9477C11.7252 23.9264 11.8476 23.891 11.9628 23.8556C12.0708 23.8273 12.1572 23.799 12.2364 23.7778C12.2796 23.7565 12.3228 23.7495 12.3588 23.7353C12.4308 23.7141 12.4668 23.6999 12.4668 23.6999C12.9133 23.5512 13.3957 23.4238 13.8925 23.3247C14.3893 23.2185 14.9005 23.1478 15.4261 23.1053C17.9246 22.9 20.6102 23.3955 22.3743 25.0307C22.6767 25.3139 22.9215 25.5829 23.1087 25.8306C23.2311 26.0005 23.3391 26.1633 23.4183 26.3191C23.4615 26.3969 23.4975 26.4748 23.5263 26.5527C23.5911 26.7013 23.6343 26.85 23.6631 26.9845C23.6631 27.0199 23.6775 27.0553 23.6847 27.0907C23.6919 27.2181 23.6847 27.3455 23.6559 27.4588V27.4446Z" fill="#A6CF9C"/>
<path d="M23.6769 27.0765C23.6769 27.0765 23.6769 27.0057 23.6625 26.9703C23.6337 26.8358 23.5905 26.6872 23.5185 26.5385C23.4897 26.4606 23.4537 26.3828 23.4105 26.3049C23.3313 26.1492 23.2233 25.9864 23.1009 25.8165C22.9137 25.5616 22.676 25.2926 22.3664 25.0166C20.6024 23.3814 17.9167 22.8858 15.4183 23.0911C14.8927 23.1336 14.3815 23.2115 13.8847 23.3106C13.3879 23.4167 12.9126 23.5442 12.4662 23.6928C12.4662 23.6928 12.4302 23.707 12.3582 23.7282C12.3222 23.7424 12.279 23.7565 12.2286 23.7707C12.1494 23.7919 12.063 23.8273 11.955 23.8486C11.847 23.8769 11.7174 23.9123 11.5734 23.9406C11.5014 23.9618 11.4294 23.976 11.3502 23.9901C11.199 24.0184 11.0406 24.0468 10.8606 24.0751C10.6806 24.1034 10.4934 24.1246 10.2918 24.1459C9.19017 24.252 7.75013 24.2025 6.2381 23.6999C6.1661 23.6787 6.0941 23.6503 6.0149 23.6291C5.79169 23.5512 5.56849 23.4592 5.34528 23.353C5.20128 23.2823 5.05008 23.2115 4.89888 23.1336C4.79087 23.077 4.67567 23.0133 4.56767 22.9425C4.53167 22.9283 4.49567 22.9071 4.45967 22.8858C4.36606 22.8292 4.27966 22.7797 4.18606 22.723C4.05646 22.631 3.91965 22.5461 3.79005 22.4469C3.35804 22.1426 2.94043 21.7957 2.52283 21.378C2.52283 21.378 2.52283 21.371 2.51562 21.3639C2.51562 21.3639 2.51562 21.3663 2.51562 21.371C2.93323 22.2771 3.43004 23.1265 4.00606 23.9052C4.25086 24.2308 4.50287 24.5494 4.76927 24.8537C5.03568 25.1581 5.30928 25.4554 5.59729 25.7386C8.04534 28.1383 11.2638 29.6461 14.6983 29.9363C15.5695 30.0142 16.4551 30.0071 17.3479 29.9151C17.7007 29.8797 18.0608 29.8372 18.4136 29.7735C18.8528 29.7027 19.292 29.6036 19.7312 29.4833C19.8752 29.4408 20.0264 29.3983 20.1704 29.3559C20.3144 29.3134 20.4512 29.2709 20.5952 29.2214C21.5024 28.917 22.3664 28.5276 23.1729 28.0675C23.2233 28.0392 23.2665 28.0109 23.3169 27.9684C23.3889 27.9118 23.4537 27.841 23.4969 27.7631C23.5329 27.7207 23.5617 27.6711 23.5833 27.6216C23.6121 27.5649 23.6337 27.5083 23.6481 27.4446C23.6481 27.4446 23.6481 27.4375 23.6481 27.4304C23.6769 27.3172 23.6841 27.1898 23.6769 27.0623V27.0765ZM19.4432 28.5064C19.0184 28.6197 18.5792 28.7117 18.14 28.7825C17.4343 28.9099 16.7215 28.9665 16.0087 28.9736C15.8503 28.9736 15.6847 28.9736 15.5191 28.9736C15.3895 28.9736 15.2671 28.9736 15.1375 28.9595C14.8855 28.9453 14.6335 28.9241 14.3815 28.8957C14.1655 28.8745 13.9495 28.8462 13.7335 28.8037C13.6903 28.8037 13.6543 28.7966 13.6255 28.7896C13.3447 28.74 13.0638 28.6834 12.783 28.6126C11.8254 28.3861 10.8894 28.0604 9.98218 27.6286C8.46295 26.8924 7.09492 25.8943 5.9429 24.6768C5.9501 24.6768 5.9717 24.6839 5.9789 24.6839C6.97972 25.0166 8.03814 25.1864 9.12536 25.2077C10.2414 25.2289 11.199 25.0732 11.8542 24.9175C12.3654 24.8042 12.6966 24.6909 12.7902 24.6555C12.819 24.6485 12.8406 24.6343 12.8694 24.6343C14.3095 24.1671 16.0015 23.9831 17.5207 24.1246C18.7304 24.2379 20.4368 24.6131 21.6824 25.774C22.3736 26.4111 22.5968 26.8995 22.6616 27.1898C21.6464 27.7631 20.5664 28.2091 19.436 28.5064H19.4432Z" fill="#80C186"/>
<path d="M13.4586 29.7876C13.2786 29.7593 13.0986 29.7239 12.9258 29.6814C13.1058 29.7168 13.2786 29.7522 13.4586 29.7876Z" fill="#80C186"/>
<path d="M14.7049 29.9504C14.4312 29.9292 14.1648 29.8938 13.8984 29.8584C14.1648 29.8938 14.4384 29.9292 14.7049 29.9504Z" fill="#80C186"/>
<path d="M13.891 29.8513C13.747 29.8301 13.603 29.8088 13.459 29.7876C13.603 29.8159 13.747 29.8301 13.891 29.8513Z" fill="#80C186"/>
<path opacity="0.7" d="M20.588 29.2355C20.3 29.3275 20.0264 29.4196 19.724 29.4974C19.2847 29.6178 18.8455 29.7098 18.4063 29.7877C18.0535 29.8514 17.6935 29.8939 17.3407 29.9292C16.4479 30.0213 15.5695 30.0213 14.6911 29.9505C11.2566 29.6603 8.03091 28.1525 5.59006 25.7528C5.30206 25.4696 5.02845 25.1723 4.76204 24.8679C4.49564 24.5635 4.24363 24.245 3.99883 23.9193C3.43002 23.1336 2.93321 22.2912 2.5156 21.3851C2.4076 21.1444 2.29959 20.9038 2.19879 20.656C1.96839 20.0685 1.76678 19.4597 1.60118 18.8297C1.57238 18.7164 1.56518 18.6032 1.58678 18.497C1.59398 18.4545 1.60838 18.412 1.62278 18.3696C1.64438 18.3271 1.65878 18.2846 1.68038 18.2492C1.70198 18.2067 1.72358 18.1784 1.75958 18.143C2.17719 17.6546 2.96921 17.244 4.48124 17.3431C7.86531 17.5484 10.9182 20.7056 12.3078 23.6291C12.3078 23.6291 12.3222 23.6716 12.3582 23.7353C12.4302 23.9052 12.603 24.2308 12.8694 24.6485C13.6614 25.8802 15.3247 27.8976 18.1327 28.7966C18.8671 29.0373 19.6808 29.2001 20.5808 29.2497L20.588 29.2355Z" fill="#44983F"/>
<path d="M18.1469 28.7824C15.3388 27.8834 13.6756 25.866 12.8836 24.6342C12.6172 24.2166 12.4444 23.891 12.3724 23.7282C12.3364 23.6503 12.322 23.6149 12.322 23.6149C10.9323 20.6984 7.87947 17.5342 4.49539 17.3289C2.98336 17.2369 2.19135 17.6475 1.77374 18.1288C1.74494 18.1642 1.71614 18.1996 1.69453 18.235C1.67293 18.2704 1.65133 18.3129 1.63693 18.3483C1.63693 18.3483 1.61533 18.4049 1.60813 18.4332C1.60813 18.4474 1.60093 18.4615 1.60093 18.4828C1.57933 18.5889 1.58653 18.7022 1.60813 18.8084C1.77374 19.4455 1.97534 20.0543 2.21295 20.6418C2.30655 20.8825 2.40735 21.1232 2.52255 21.3568C2.52255 21.3568 2.52255 21.3591 2.52255 21.3638C2.94016 22.2699 3.43697 23.1194 4.01298 23.898C4.25779 24.2237 4.50979 24.5422 4.7762 24.8466C5.04261 25.151 5.31621 25.4483 5.60422 25.7315C8.05227 28.1312 11.2707 29.639 14.7052 29.9292C15.5764 30 16.462 30 17.3549 29.908C17.7077 29.8726 18.0677 29.8301 18.4205 29.7664C18.8597 29.6956 19.2989 29.5965 19.7381 29.4761C20.0333 29.3983 20.3141 29.3063 20.6021 29.2142C19.7021 29.1647 18.8957 29.0019 18.1541 28.7612L18.1469 28.7824ZM15.526 28.9665C15.3964 28.9665 15.274 28.9665 15.1444 28.9523C14.8924 28.9452 14.6404 28.9169 14.3884 28.8886C14.1724 28.8674 13.9564 28.8391 13.7404 28.7966C13.6972 28.7966 13.6612 28.7895 13.6324 28.7824C13.3516 28.7329 13.0708 28.6762 12.79 28.6055C11.4723 28.294 10.1907 27.7772 8.98829 27.0694C7.87227 26.4039 6.85704 25.604 5.98583 24.6838C5.46741 24.1458 4.9994 23.5653 4.5746 22.9495C3.70338 21.6682 3.04096 20.2454 2.62335 18.7093C2.96176 18.4332 3.58817 18.3058 4.42339 18.3553C6.10823 18.4615 7.56266 19.4384 8.48428 20.2383C9.6363 21.2435 10.6875 22.6026 11.3571 23.983C11.3643 24.0042 11.3787 24.0255 11.3859 24.0467C11.4291 24.1387 11.5803 24.4573 11.8539 24.9174C12.1924 25.4766 12.718 26.2411 13.4668 27.0127C14.23 27.7985 15.0796 28.4568 16.0012 28.9665C16.0012 28.9665 16.0012 28.9665 16.0084 28.9665C15.8428 28.9665 15.6772 28.9665 15.5116 28.9594L15.526 28.9665Z" fill="url(#paint2_linear_5191_74382)"/>
</g>
<defs>
<linearGradient id="paint0_linear_5191_74382" x1="2.67373" y1="10.9155" x2="16.369" y2="3.04267" gradientUnits="userSpaceOnUse">
<stop stop-color="#24573F"/>
<stop offset="0.15" stop-color="#327458"/>
<stop offset="0.77" stop-color="#50A865" stop-opacity="0.7"/>
</linearGradient>
<linearGradient id="paint1_linear_5191_74382" x1="29.3787" y1="14.2851" x2="23.0819" y2="15.0829" gradientUnits="userSpaceOnUse">
<stop stop-color="#24573F"/>
<stop offset="0.15" stop-color="#327458"/>
<stop offset="0.77" stop-color="#50A865" stop-opacity="0.7"/>
</linearGradient>
<linearGradient id="paint2_linear_5191_74382" x1="9.6651" y1="26.9702" x2="12.2476" y2="21.0975" gradientUnits="userSpaceOnUse">
<stop stop-color="#24573F"/>
<stop offset="0.15" stop-color="#327458"/>
<stop offset="0.77" stop-color="#50A865" stop-opacity="0.7"/>
</linearGradient>
<clipPath id="clip0_5191_74382">
<rect width="114" height="30" fill="white" transform="translate(0.996094)"/>
</clipPath>
</defs>
</svg>
