<svg width="105" height="29" viewBox="0 0 105 29" fill="none" xmlns="http://www.w3.org/2000/svg">
<g clip-path="url(#clip0_2436_42906)">
<path d="M104.922 21.7275C104.922 23.3855 104.918 25.0444 104.926 26.7024C104.927 26.9436 104.853 27.0642 104.638 27.1524C103.019 27.8172 101.343 28.227 99.6238 28.4486C98.4497 28.5996 97.2719 28.6712 96.0914 28.629C94.311 28.5653 92.56 28.3143 90.9259 27.4946C89.4472 26.7534 88.3072 25.6082 87.4754 24.113C86.7715 22.8501 86.4026 21.4647 86.1863 20.0274C85.8901 18.0596 85.8735 16.0751 85.925 14.0906C85.971 12.3425 86.1192 10.6031 86.5516 8.90495C86.9721 7.25286 87.6641 5.75569 88.7949 4.52324C90.0002 3.20941 91.4945 2.45151 93.1608 2.05344C94.7048 1.68479 96.2681 1.60439 97.8452 1.70244C99.1149 1.78087 100.357 1.99462 101.562 2.44073C102.587 2.82017 103.518 3.37413 104.343 4.12615C104.39 4.16831 104.43 4.21832 104.478 4.25949C104.623 4.38499 104.614 4.50167 104.497 4.65266C103.93 5.39291 103.371 6.14003 102.81 6.8842C102.589 7.17736 102.367 7.46856 102.152 7.76564C102.063 7.88918 101.997 7.93232 101.859 7.81369C100.595 6.72439 99.1269 6.19298 97.5268 6.03316C96.3932 5.91943 95.2652 5.91942 94.15 6.21945C92.6575 6.62046 91.742 7.64211 91.3123 9.19026C91.0455 10.1511 90.9526 11.1404 90.8854 12.1366C90.7961 13.4739 90.7759 14.8132 90.8063 16.1516C90.8431 17.7742 90.8937 19.3969 91.2212 20.9951C91.6417 23.0482 92.8121 24.0698 94.7011 24.4071C95.8264 24.6081 96.9582 24.5865 98.0918 24.4797C98.8637 24.4071 99.6284 24.2894 100.385 24.1071C100.566 24.063 100.633 23.9777 100.632 23.7737C100.626 21.9108 100.625 20.0489 100.632 18.186C100.632 17.9576 100.561 17.8899 100.354 17.8909C99.0054 17.8978 97.6556 17.8948 96.3067 17.8939C95.9258 17.8939 95.9065 17.8723 95.9056 17.4634C95.9056 16.3437 95.9056 15.225 95.9056 14.1053C95.9056 13.7416 95.9194 13.7269 96.2497 13.7269C98.1663 13.7269 100.083 13.723 101.999 13.7269C103.614 13.7308 104.909 15.0956 104.921 16.8232C104.933 18.4567 104.924 20.0911 104.924 21.7245L104.922 21.7275Z" fill="#242424"/>
<path d="M51.6889 15.3345C51.6889 11.9029 51.6889 8.47126 51.6889 5.03963C51.6889 3.18655 52.9725 1.8188 54.7142 1.8188C58.2337 1.81781 61.7532 1.8188 65.2726 1.8188C65.5431 1.8188 65.6787 1.96456 65.6793 2.25608C65.6793 3.44049 65.6793 4.62587 65.6793 5.81028C65.6793 6.16422 65.6628 6.18089 65.326 6.18187C62.4046 6.18187 59.4832 6.18187 56.5618 6.18187C56.3263 6.18187 56.2085 6.30835 56.2085 6.56131C56.2085 8.5546 56.2076 10.5489 56.2067 12.5422C56.2067 12.8049 56.334 12.9363 56.5885 12.9363C59.2109 12.9363 61.8332 12.9363 64.4556 12.9363C64.6917 12.9363 64.8101 13.0641 64.8107 13.3197C64.8107 14.5207 64.8107 15.7218 64.8107 16.9229C64.8107 17.2582 64.8024 17.268 64.4887 17.268C61.8433 17.268 59.198 17.268 56.5526 17.268C56.322 17.268 56.2067 17.388 56.2067 17.6278C56.2067 19.7849 56.2067 21.9419 56.2067 24.0989C56.2067 24.3382 56.322 24.4581 56.5526 24.4588C59.52 24.4588 62.4874 24.4588 65.4548 24.4588C65.6953 24.4588 65.8161 24.5849 65.8173 24.8372C65.8173 26.0461 65.8173 27.256 65.8173 28.4649C65.8173 28.7718 65.8008 28.7905 65.522 28.7905C61.8645 28.7905 58.207 28.7954 54.5495 28.7885C52.9881 28.7855 51.6917 27.3815 51.6898 25.7039C51.6852 22.2478 51.6889 18.7917 51.6889 15.3355H51.6898L51.6889 15.3345Z" fill="#242424"/>
<path d="M75.2838 28.7434C73.1703 28.6963 71.1193 28.3443 69.2092 27.3148C68.6875 27.0334 68.2026 26.6922 67.76 26.2824C67.6192 26.152 67.5953 26.0412 67.7075 25.8676C68.3783 24.8323 69.0408 23.791 69.7051 22.7517C69.8717 22.4909 69.8717 22.489 70.1063 22.6762C71.3034 23.6283 72.6651 24.1391 74.129 24.3617C75.2019 24.5244 76.2794 24.5852 77.3504 24.3342C78.7425 24.0087 79.3535 23.0361 79.463 21.6781C79.5173 21.0075 79.5044 20.3378 79.1584 19.7289C78.7628 19.0328 78.173 18.5759 77.5142 18.2053C76.5066 17.6386 75.4264 17.2641 74.3618 16.8464C73.231 16.4022 72.1177 15.9218 71.0844 15.2492C69.3426 14.1168 68.2734 12.5039 68.0323 10.3243C67.8502 8.67124 68.0305 7.07798 68.8761 5.62983C69.5423 4.48955 70.4891 3.67184 71.5803 3.0365C72.8722 2.2835 74.2643 1.89327 75.7319 1.80503C77.9678 1.67071 80.1135 2.05799 82.1506 3.06689C82.5831 3.28161 82.9797 3.56105 83.3707 3.8493C83.5336 3.96892 83.5603 4.07971 83.4397 4.26992C82.7966 5.28569 82.1617 6.30733 81.5351 7.33388C81.4201 7.52115 81.3354 7.53978 81.156 7.4182C80.1025 6.70344 78.933 6.33185 77.7074 6.14066C76.779 5.99653 75.8488 5.92789 74.9157 6.09065C74.026 6.24556 73.2356 6.59657 72.885 7.55547C72.5096 8.58496 72.4241 9.63014 73.1105 10.5802C73.4629 11.0685 73.9505 11.3862 74.4557 11.6685C75.3822 12.1862 76.3741 12.5353 77.3531 12.9147C78.5797 13.3902 79.7887 13.904 80.9048 14.6364C82.7036 15.8169 83.8004 17.4974 84.0636 19.7466C84.2531 21.3663 84.1013 22.9449 83.402 24.4254C82.7782 25.7471 81.8084 26.7069 80.5966 27.4021C79.2523 28.1737 77.8114 28.5777 76.2922 28.6973C75.9555 28.7238 75.6187 28.7306 75.281 28.7414L75.2838 28.7434Z" fill="#242424"/>
<path d="M37.3022 21.587C37.3022 22.8538 37.3004 24.1196 37.3041 25.3863C37.305 25.7295 37.362 26.0687 37.4209 26.406C37.5599 27.1963 38.042 27.7159 38.6336 28.1473C38.8296 28.2905 39.033 28.4218 39.2326 28.5591C39.2704 28.5856 39.3219 28.6121 39.3062 28.6689C39.2915 28.7228 39.2354 28.7248 39.1903 28.7278C39.1369 28.7317 39.0826 28.7317 39.0293 28.7317C38.2012 28.7336 37.3731 28.7376 36.545 28.7376C34.3284 28.7376 32.4863 26.9953 32.2195 24.6549C32.1882 24.3784 32.1836 24.1009 32.1836 23.8235C32.1845 19.0358 32.1864 14.2482 32.1882 9.4606C32.1882 8.6272 32.4606 8.31443 33.2454 8.29384C33.9419 8.27521 34.552 8.55563 35.0884 9.0086C36.2183 9.96162 36.809 11.248 37.0197 12.7344C37.2056 14.0433 37.2268 15.3669 37.2627 16.6896C37.3068 18.323 37.2939 19.9565 37.3041 21.59L37.3022 21.587Z" fill="#242424"/>
<path d="M44.8089 17.3076C44.0268 17.3076 43.2447 17.3086 42.4626 17.3076C42.1912 17.3076 42.1608 17.2743 42.1608 16.9801C42.1599 15.73 42.1599 14.4799 42.1608 13.2308C42.1608 12.9269 42.1875 12.9004 42.482 12.9004C44.0462 12.8994 45.6094 12.9024 47.1737 12.8965C47.3853 12.8965 47.4745 12.9592 47.4727 13.2024C47.4635 14.4682 47.4644 15.7349 47.4727 17.0007C47.4745 17.24 47.3936 17.3135 47.1783 17.3115C46.3888 17.3027 45.5993 17.3086 44.8089 17.3086V17.3076Z" fill="#242424"/>
<path d="M34.7547 5.60496C33.3248 5.60104 32.1784 4.36173 32.1876 2.82926C32.1968 1.3213 33.3745 0.0908154 34.8053 0.0957177C36.2287 0.10062 37.3559 1.33797 37.3503 2.89005C37.3448 4.39899 36.1891 5.60888 34.7556 5.60496H34.7547Z" fill="#242424"/>
<path d="M1.01562 11.8888C3.9232 6.66001 9.27001 7.23947 9.27001 7.23947C12.1785 7.43066 16.0126 6.33352 17.6817 3.5686C18.22 2.67736 18.3856 1.97828 18.3635 1.44001C18.3461 1.01252 18.0691 0.644849 17.6808 0.536997C16.6024 0.239916 15.4725 0.0801001 14.3077 0.0781391C7.67269 0.0683345 2.15013 5.16578 1.01562 11.8888Z" fill="#9CD298"/>
<path d="M3.3104 7.9356C4.0465 6.52961 5.0209 5.26285 6.19313 4.20983C8.45755 2.17438 11.3384 1.05566 14.3058 1.06057C15.3667 1.06253 16.4221 1.20568 17.4425 1.48707C17.4536 1.77239 17.3689 2.27242 16.9061 3.03817C16.0743 4.41572 14.6628 5.18637 13.624 5.5913C12.299 6.10703 10.7385 6.35117 9.33902 6.26096C9.13568 6.24233 7.72697 6.13644 5.98335 6.65903C5.01538 6.94827 4.12011 7.37771 3.30948 7.9356H3.3104ZM1.01562 11.8888C3.9232 6.66001 9.27001 7.23947 9.27001 7.23947C12.1785 7.43066 16.0126 6.33352 17.6817 3.5686C18.22 2.67736 18.3856 1.97828 18.3635 1.44001C18.3571 1.28411 18.3166 1.13606 18.2485 1.00664C18.1298 0.779173 17.9283 0.60563 17.6808 0.537978C16.6024 0.239916 15.4725 0.0801001 14.3077 0.0781391C7.67269 0.0683345 2.15013 5.16578 1.01562 11.8888Z" fill="#69C481"/>
<path opacity="0.7" d="M14.3297 0.0781386C6.88136 0.0673534 0.83434 6.49235 0.824219 14.4292V14.4322C0.824219 14.6704 0.934633 14.8949 1.1205 15.0283C1.59896 15.3724 2.3921 15.5568 3.69867 15.0999C6.63017 14.0753 8.59186 10.3975 9.15038 7.34928C9.15038 7.34928 9.94076 1.89887 15.1505 0.105592C14.879 0.0889237 14.6048 0.0781386 14.3297 0.0781386Z" fill="#009B2F"/>
<path d="M1.7471 14.2812C1.78758 10.7603 3.09507 7.45909 5.43862 4.96871C7.05435 3.25093 9.03168 2.05966 11.1875 1.4753C10.4919 2.17536 9.89015 2.99209 9.39697 3.9147C8.52746 5.54032 8.2781 6.96494 8.24406 7.17574C7.97354 8.64153 7.3589 10.1897 6.55656 11.4261C5.92812 12.3948 4.87182 13.6576 3.41159 14.1684C2.69114 14.4204 2.10778 14.4586 1.7471 14.2822V14.2812ZM0.90979 14.7851C0.960396 14.8822 1.03217 14.9665 1.1205 15.0303C1.59896 15.3744 2.3921 15.5587 3.69867 15.1018C6.63017 14.0772 8.59186 10.3995 9.15038 7.35124C9.15038 7.35124 9.94076 1.90083 15.1505 0.107553C14.879 0.0889237 14.6048 0.0781386 14.3297 0.0781386C6.88136 0.0673534 0.83434 6.49235 0.824219 14.4292C0.824219 14.4302 0.824219 14.4312 0.824219 14.4322C0.824219 14.5567 0.854583 14.6773 0.90979 14.7842V14.7851Z" fill="url(#paint0_linear_2436_42906)"/>
<path d="M25.6198 22.5516C26.9852 16.6501 22.7913 13.0705 22.7913 13.0705C20.5904 11.034 18.5781 7.38866 19.2065 4.16978C19.409 3.13245 19.7503 2.50985 20.1202 2.14218C20.4137 1.85098 20.8535 1.79411 21.2004 2.00785C22.1656 2.60104 23.0765 3.3305 23.9083 4.20018C28.6469 9.1486 29.2331 16.909 25.6198 22.5516Z" fill="#9CD298"/>
<path d="M26.584 18.017C26.3733 17.014 26.0172 16.0384 25.5176 15.109C24.6168 13.4343 23.5439 12.4578 23.3857 12.3186C22.3285 11.3381 21.3761 9.99779 20.7698 8.64083C20.295 7.57702 19.7954 5.972 20.1082 4.36893C20.2821 3.47671 20.5508 3.05707 20.7458 2.86196C21.6586 3.42376 22.5051 4.10911 23.2633 4.90035C25.3823 7.11326 26.7018 10.0635 26.9787 13.2059C27.1223 14.8325 26.9833 16.464 26.584 18.0161V18.017ZM25.6197 22.5497C29.233 16.9071 28.6469 9.14675 23.9083 4.19833C23.0765 3.32964 22.1647 2.59919 21.2004 2.00601C20.9796 1.8707 20.721 1.84325 20.4873 1.91679C20.353 1.95895 20.2269 2.03346 20.1202 2.14033C19.7503 2.50801 19.4089 3.1306 19.2065 4.16794C18.578 7.38681 20.5913 11.0322 22.7913 13.0686C22.7913 13.0686 26.9852 16.6493 25.6197 22.5497Z" fill="#69C481"/>
<path opacity="0.7" d="M23.8943 4.18498C29.2145 9.7403 29.3 18.839 24.0866 24.5081L24.0848 24.5101C23.9284 24.6807 23.7011 24.7581 23.4812 24.714C22.9135 24.6022 22.2262 24.1414 21.595 22.8393C20.178 19.9185 21.1984 15.831 22.8049 13.2396C22.8049 13.2396 25.8266 8.7618 23.2898 3.5918C23.495 3.78201 23.6974 3.97908 23.8943 4.184V4.18498Z" fill="#009B2F"/>
<path d="M23.525 23.712C23.1505 23.5688 22.7603 23.1051 22.4125 22.3874C21.7068 20.9323 21.7841 19.244 21.9736 18.0831C22.2147 16.6026 22.7953 15.0387 23.5664 13.7916C23.6814 13.6161 24.4405 12.414 24.8895 10.6051C25.1444 9.57853 25.2529 8.5461 25.2171 7.52739C26.3691 9.55402 26.9957 11.8807 27.0187 14.3122C27.0518 17.839 25.8133 21.1706 23.5259 23.712H23.525ZM23.7918 24.6963C23.9013 24.662 24.0025 24.5983 24.0844 24.5091L24.0862 24.5071C29.2996 18.8381 29.2131 9.73933 23.8939 4.184C23.697 3.9781 23.4955 3.78103 23.2894 3.5918C25.8262 8.7618 22.8045 13.2396 22.8045 13.2396C21.198 15.831 20.1785 19.9185 21.5946 22.8393C22.2258 24.1414 22.9131 24.6022 23.4808 24.714C23.5857 24.7346 23.6924 24.7277 23.7918 24.6963Z" fill="url(#paint1_linear_2436_42906)"/>
<path d="M2.17188 20.4971C6.23236 24.765 11.2645 22.7551 11.2645 22.7551C14.0322 21.7815 18.0016 21.8031 20.2761 24.0238C21.0095 24.7395 21.337 25.371 21.4438 25.8975C21.5284 26.3152 21.349 26.7466 20.9994 26.9554C20.0277 27.5358 18.9732 27.9967 17.847 28.3143C11.4329 30.1233 4.87518 26.6907 2.17188 20.4961V20.4971Z" fill="#9CD298"/>
<path d="M5.33524 23.6993C6.2526 24.0189 7.22057 24.1915 8.22534 24.2091C10.0371 24.2415 11.3731 23.7581 11.5654 23.6836C12.8968 23.2169 14.4647 23.0296 15.8688 23.1698C16.9692 23.2796 18.5196 23.6424 19.6523 24.7484C20.2826 25.3641 20.4841 25.8249 20.542 26.1034C19.6229 26.6524 18.6365 27.077 17.6105 27.3662C14.7416 28.1751 11.6887 27.8751 9.01204 26.5211C7.62726 25.82 6.38234 24.8592 5.33432 23.6993H5.33524ZM2.17188 20.498C4.87426 26.6926 11.4329 30.1253 17.847 28.3163C18.9732 27.9986 20.0286 27.5378 20.9993 26.9574C21.222 26.824 21.3757 26.6015 21.4364 26.3495C21.4714 26.2053 21.475 26.0514 21.4447 25.8985C21.337 25.3719 21.0095 24.7405 20.2771 24.0248C18.0025 21.803 14.0331 21.7825 11.2654 22.7561C11.2654 22.7561 6.23328 24.766 2.1728 20.498H2.17188Z" fill="#69C481"/>
<path opacity="0.7" d="M17.866 28.3096C10.6652 30.3401 3.28397 25.7662 1.37841 18.0931V18.0902C1.32044 17.8597 1.37381 17.6127 1.52194 17.4332C1.90287 16.9705 2.62609 16.5773 3.99799 16.6646C7.07762 16.8607 9.8527 19.8854 11.1206 22.6817C11.1206 22.6817 13.1863 27.7389 18.6527 28.0595C18.3942 28.1507 18.1319 28.2341 17.866 28.3096Z" fill="#009B2F"/>
<path d="M2.30607 17.9862C2.61339 17.7176 3.18662 17.596 3.94296 17.645C5.4768 17.7431 6.79993 18.6775 7.63908 19.4442C8.7101 20.4227 9.67346 21.7532 10.2853 23.0964C10.3682 23.2906 10.9497 24.6014 12.1789 25.9378C12.8764 26.6967 13.653 27.3232 14.494 27.8115C12.27 27.8301 10.0737 27.2144 8.10006 25.9917C5.23941 24.2191 3.1857 21.3806 2.30607 17.9872V17.9862ZM1.37675 17.7274C1.34822 17.845 1.34822 17.9705 1.37767 18.0902V18.0931C3.28415 25.7662 10.6653 30.3401 17.8662 28.3096C18.133 28.2341 18.3944 28.1507 18.6529 28.0595C13.1865 27.7379 11.1208 22.6817 11.1208 22.6817C9.85288 19.8854 7.07781 16.8607 3.99817 16.6646C2.62535 16.5773 1.90214 16.9705 1.52213 17.4332C1.45128 17.5185 1.40251 17.6195 1.37675 17.7274Z" fill="url(#paint2_linear_2436_42906)"/>
</g>
<defs>
<linearGradient id="paint0_linear_2436_42906" x1="2.40866" y1="10.626" x2="15.1752" y2="3.65264" gradientUnits="userSpaceOnUse">
<stop offset="0.01" stop-color="#00583D"/>
<stop offset="0.15" stop-color="#007656"/>
<stop offset="0.77" stop-color="#19AC5D" stop-opacity="0.7"/>
</linearGradient>
<linearGradient id="paint1_linear_2436_42906" x1="26.6406" y1="13.726" x2="20.901" y2="14.4163" gradientUnits="userSpaceOnUse">
<stop offset="0.01" stop-color="#00583D"/>
<stop offset="0.15" stop-color="#007656"/>
<stop offset="0.77" stop-color="#19AC5D" stop-opacity="0.7"/>
</linearGradient>
<linearGradient id="paint2_linear_2436_42906" x1="8.78582" y1="25.9238" x2="11.3413" y2="20.3968" gradientUnits="userSpaceOnUse">
<stop offset="0.01" stop-color="#00583D"/>
<stop offset="0.15" stop-color="#007656"/>
<stop offset="0.77" stop-color="#19AC5D" stop-opacity="0.7"/>
</linearGradient>
<clipPath id="clip0_2436_42906">
<rect width="104.102" height="28.7179" fill="white" transform="translate(0.824219 0.078125)"/>
</clipPath>
</defs>
</svg>
