<svg width="20" height="20" viewBox="0 0 20 20" fill="none" xmlns="http://www.w3.org/2000/svg">
<g clip-path="url(#clip0_1059_39248)">
<path d="M0.140625 8.22595C2.28468 4.58494 6.22563 4.98782 6.22563 4.98782C8.36968 5.12134 11.1965 4.35738 12.426 2.43122C12.8227 1.81006 12.945 1.32359 12.9288 0.948576C12.9161 0.651351 12.712 0.394762 12.426 0.320456C11.6313 0.112631 10.7986 0.00117127 9.93937 1.02333e-05C5.04807 -0.00695598 0.976794 3.54349 0.140625 8.22595Z" fill="#9CD298"/>
<path d="M1.83257 5.47197C2.37579 4.49322 3.09316 3.61083 3.95701 2.87706C5.62704 1.45943 7.75149 0.680377 9.93821 0.68386C10.7202 0.68386 11.4987 0.78487 12.2507 0.981085C12.2587 1.17962 12.1964 1.52793 11.8551 2.06201C11.2426 3.02102 10.2012 3.55858 9.43536 3.83955C8.45848 4.19831 7.30861 4.36899 6.27637 4.30629C6.12644 4.29352 5.08844 4.22037 3.80247 4.58378C3.0897 4.7858 2.42884 5.08418 1.83142 5.47313L1.83257 5.47197ZM0.140625 8.22595C2.28468 4.58494 6.22563 4.98782 6.22563 4.98782C8.36968 5.12134 11.1965 4.35738 12.426 2.43122C12.8227 1.81006 12.945 1.32359 12.9288 0.948576C12.9242 0.8406 12.8942 0.737268 12.8435 0.646707C12.7558 0.488806 12.607 0.368059 12.4248 0.320456C11.6313 0.112631 10.7986 0.00117127 9.93937 1.02333e-05C5.04807 -0.00695598 0.976794 3.54349 0.140625 8.22595Z" fill="#69C481"/>
<path opacity="0.7" d="M9.9556 1.10536e-05C4.46456 -0.0081162 0.00807335 4.46652 0 9.99421V9.99653C0 10.1626 0.0818869 10.3193 0.21798 10.4122C0.570901 10.6525 1.15564 10.7802 2.11868 10.4621C4.28003 9.74807 5.72516 7.18682 6.1369 5.06445C6.1369 5.06445 6.71933 1.26902 10.5599 0.0197487C10.3604 0.00697727 10.1586 1.10536e-05 9.9556 1.10536e-05Z" fill="#009B2F"/>
<path d="M0.680468 9.89087C0.710455 7.43877 1.67464 5.13992 3.40234 3.40533C4.59374 2.20946 6.05155 1.37932 7.6397 0.971798C7.12646 1.45943 6.68358 2.02834 6.31913 2.67039C5.67787 3.8024 5.49449 4.79509 5.46912 4.94138C5.26959 5.96193 4.81633 7.04053 4.22582 7.90086C3.76218 8.57542 2.98368 9.45432 1.90762 9.81076C1.37708 9.98608 0.946889 10.0128 0.680468 9.88971V9.89087ZM0.0634335 10.2403C0.10034 10.3077 0.153394 10.3669 0.219134 10.411C0.572055 10.6514 1.1568 10.7791 2.11983 10.4609C4.28118 9.7469 5.72631 7.18566 6.13805 5.06329C6.13805 5.06329 6.72049 1.26786 10.5611 0.0185876C10.3604 0.00697727 10.1586 1.10536e-05 9.9556 1.10536e-05C4.46456 -0.00811619 0.00807335 4.46651 0 9.9942C0 9.9942 0 9.99537 0 9.99653C0 10.0836 0.0219134 10.1672 0.0634335 10.2415V10.2403Z" fill="url(#paint0_linear_1059_39248)"/>
<path d="M18.2785 15.6527C19.2854 11.5426 16.1933 9.04988 16.1933 9.04988C14.5705 7.63226 13.0874 5.09307 13.551 2.85111C13.6998 2.12895 13.9524 1.69472 14.2245 1.43929C14.4414 1.23611 14.7643 1.19663 15.0215 1.34641C15.7331 1.75974 16.4043 2.26711 17.0179 2.87317C20.5114 6.31912 20.9427 11.7237 18.2797 15.6539L18.2785 15.6527Z" fill="#9CD298"/>
<path d="M18.9889 12.4942C18.8332 11.7952 18.5703 11.116 18.2023 10.4693C17.538 9.30249 16.7468 8.62328 16.6315 8.52575C15.8518 7.84307 15.1495 6.90959 14.7031 5.96451C14.3537 5.22377 13.9846 4.10569 14.2153 2.98994C14.3433 2.36878 14.5417 2.0762 14.6858 1.94036C15.3582 2.33163 15.9833 2.80881 16.5415 3.36031C18.1043 4.901 19.0766 6.95603 19.2807 9.14459C19.3857 10.2778 19.2842 11.4133 18.9901 12.4942H18.9889ZM18.2796 15.6522C20.9438 11.7221 20.5113 6.31746 17.0179 2.87151C16.4043 2.26661 15.7331 1.75808 15.0214 1.34475C14.8588 1.2507 14.6685 1.23097 14.4955 1.28321C14.3963 1.31224 14.3029 1.36449 14.2245 1.43879C13.9523 1.69422 13.6997 2.12845 13.5509 2.85061C13.0873 5.09257 14.5716 7.63176 16.1932 9.04938C16.1932 9.04938 19.2853 11.5421 18.2785 15.6522H18.2796Z" fill="#69C481"/>
<path opacity="0.7" d="M17.0075 2.86139C20.9289 6.72996 20.9923 13.0669 17.1494 17.0144H17.1482C17.0329 17.1352 16.8657 17.1886 16.7031 17.1584C16.2844 17.0806 15.7781 16.759 15.3121 15.8534C14.2684 13.8192 15.0203 10.9724 16.2037 9.16813C16.2037 9.16813 18.4308 6.04959 16.5612 2.44922C16.7123 2.58158 16.8611 2.71858 17.0064 2.86139H17.0075Z" fill="#009B2F"/>
<path d="M16.735 16.4606C16.4593 16.3608 16.171 16.038 15.9149 15.5387C15.3948 14.5252 15.4513 13.349 15.5908 12.5409C15.7685 11.5099 16.1964 10.4209 16.7649 9.55243C16.8491 9.43053 17.4097 8.59342 17.7407 7.33254C17.9287 6.61734 18.0082 5.89866 17.9817 5.18926C18.8317 6.60108 19.2931 8.22073 19.3104 9.91468C19.3346 12.3703 18.4211 14.6912 16.7361 16.4606H16.735ZM16.9322 17.1456C17.0129 17.1212 17.0867 17.0771 17.1479 17.0156H17.149C20.9919 13.0657 20.9285 6.72996 17.0071 2.86139C16.8618 2.71858 16.713 2.58158 16.562 2.44922C18.4315 6.04959 16.2044 9.16813 16.2044 9.16813C15.0199 10.9724 14.268 13.8192 15.3129 15.8534C15.7788 16.7601 16.2852 17.0806 16.7038 17.1584C16.7811 17.1723 16.8595 17.1677 16.9333 17.1468L16.9322 17.1456Z" fill="url(#paint1_linear_1059_39248)"/>
<path d="M0.996094 14.2188C3.989 17.191 7.69928 15.792 7.69928 15.792C9.73953 15.1139 12.6655 15.129 14.3425 16.6755C14.8834 17.1747 15.1245 17.6136 15.2029 17.9805C15.2652 18.2719 15.1337 18.5715 14.8753 18.7178C14.1591 19.1218 13.3818 19.4434 12.5514 19.664C7.82269 20.9237 2.98906 18.5332 0.996094 14.2199V14.2188Z" fill="#9CD298"/>
<path d="M3.32654 16.4487C4.0024 16.6716 4.71631 16.7912 5.45675 16.804C6.79232 16.8261 7.77726 16.4894 7.91913 16.4383C8.90061 16.1132 10.0563 15.9832 11.092 16.0807C11.9039 16.1573 13.0457 16.4093 13.8807 17.1802C14.3455 17.6086 14.4943 17.9302 14.5358 18.1241C13.8577 18.5061 13.1311 18.8021 12.3745 19.003C10.2604 19.5661 8.00909 19.3571 6.03573 18.4144C5.01502 17.9267 4.09697 17.2568 3.32423 16.4499L3.32654 16.4487ZM0.992188 14.2207C2.98515 18.5351 7.81879 20.9245 12.5475 19.6648C13.3779 19.443 14.1552 19.1226 14.8714 18.7186C15.0352 18.6257 15.1482 18.4713 15.1932 18.2959C15.2186 18.1949 15.2221 18.0881 15.199 17.9825C15.1194 17.6156 14.8784 17.1767 14.3386 16.6775C12.6616 15.131 9.73563 15.1159 7.69538 15.7939C7.69538 15.7939 3.98625 17.193 0.992188 14.2207Z" fill="#69C481"/>
<path opacity="0.7" d="M12.5653 19.6593C7.25764 21.0734 1.81505 17.8875 0.411441 12.5445V12.5421C0.368768 12.3819 0.407981 12.2089 0.516395 12.0847C0.796656 11.7619 1.33065 11.4891 2.34213 11.5494C4.61189 11.6864 6.65791 13.7926 7.59326 15.7396C7.59326 15.7396 9.11567 19.261 13.1454 19.4851C12.9551 19.5478 12.7614 19.607 12.5653 19.6593Z" fill="#009B2F"/>
<path d="M1.09358 12.4703C1.31964 12.2834 1.74291 12.1986 2.29997 12.2323C3.4314 12.3008 4.40596 12.951 5.02415 13.4851C5.81303 14.1666 6.52464 15.0931 6.97444 16.0289C7.03557 16.1647 7.46461 17.0773 8.36998 18.0073C8.88437 18.5356 9.45642 18.9721 10.0758 19.3123C8.43572 19.3251 6.81759 18.8967 5.36208 18.0445C3.25263 16.8103 1.73945 14.833 1.09128 12.4692L1.09358 12.4703ZM0.406195 12.288C0.385435 12.3705 0.385435 12.4576 0.406195 12.5412V12.5435C1.81096 17.8866 7.25355 21.0724 12.5612 19.6583C12.7573 19.6061 12.951 19.5468 13.1413 19.4841C9.11158 19.2601 7.58917 15.7386 7.58917 15.7386C6.65497 13.7916 4.60895 11.6855 2.33803 11.5485C1.32656 11.4881 0.792563 11.7609 0.512302 12.0837C0.460402 12.1429 0.424648 12.2137 0.405042 12.288H0.406195Z" fill="url(#paint2_linear_1059_39248)"/>
</g>
<defs>
<linearGradient id="paint0_linear_1059_39248" x1="1.16833" y1="7.34588" x2="10.3265" y2="2.05114" gradientUnits="userSpaceOnUse">
<stop offset="0.01" stop-color="#00583D"/>
<stop offset="0.15" stop-color="#007656"/>
<stop offset="0.77" stop-color="#19AC5D" stop-opacity="0.7"/>
</linearGradient>
<linearGradient id="paint1_linear_1059_39248" x1="19.0372" y1="9.5224" x2="14.8127" y2="10.0602" gradientUnits="userSpaceOnUse">
<stop offset="0.01" stop-color="#00583D"/>
<stop offset="0.15" stop-color="#007656"/>
<stop offset="0.77" stop-color="#19AC5D" stop-opacity="0.7"/>
</linearGradient>
<linearGradient id="paint2_linear_1059_39248" x1="5.88385" y1="17.9822" x2="7.59793" y2="14.0582" gradientUnits="userSpaceOnUse">
<stop offset="0.01" stop-color="#00583D"/>
<stop offset="0.15" stop-color="#007656"/>
<stop offset="0.77" stop-color="#19AC5D" stop-opacity="0.7"/>
</linearGradient>
<clipPath id="clip0_1059_39248">
<rect width="20" height="20" fill="white"/>
</clipPath>
</defs>
</svg>
