<svg width="18" height="18" viewBox="0 0 18 18" fill="none" xmlns="http://www.w3.org/2000/svg">
<g id="icn_save">
<path id="Vector" d="M14.7611 6.38839L14.7611 6.38834L11.6111 3.23834L11.611 3.23828C11.5867 3.21393 11.5537 3.20023 11.5192 3.2002L14.7611 6.38839ZM14.7611 6.38839C14.7855 6.41274 14.7992 6.44576 14.7992 6.4802L14.7611 6.38839ZM3.19922 14.6702C3.19922 14.7047 3.21292 14.7377 3.23729 14.7621C3.26167 14.7865 3.29474 14.8002 3.32922 14.8002L14.6692 14.8002C14.7037 14.8002 14.7368 14.7865 14.7611 14.7621C14.7855 14.7377 14.7992 14.7047 14.7992 14.6702L14.7992 6.4803L3.19922 14.6702ZM3.19922 14.6702L3.19922 3.3302C3.19922 3.29572 3.21292 3.26265 3.23729 3.23827C3.26167 3.21389 3.29474 3.2002 3.32922 3.2002L11.5191 3.2002L3.19922 14.6702ZM10.8892 14.5402H11.3892V14.0402V10.8902V10.3902L10.8892 10.3902H7.10922H6.60922V10.8902V14.0402V14.5402H7.10922L10.8892 14.5402ZM3.95922 3.4602H3.45922V3.9602L3.45922 14.0402V14.5402H3.95922H5.84922H6.34922V14.0402V10.2602C6.34922 10.2257 6.36292 10.1927 6.38729 10.1683C6.41168 10.1439 6.44474 10.1302 6.47922 10.1302L11.5192 10.1302C11.5537 10.1302 11.5868 10.1439 11.6111 10.1683C11.6355 10.1926 11.6492 10.2257 11.6492 10.2602V14.0402V14.5402H12.1492H14.0392H14.5392V14.0402L14.5392 6.74101V6.53391L14.3928 6.38746L11.612 3.60664L11.4655 3.4602H11.2584L3.95922 3.4602ZM6.34922 7.1102C6.34922 7.07572 6.36292 7.04265 6.38729 7.01827C6.41167 6.99389 6.44474 6.9802 6.47922 6.9802H8.99922C9.0337 6.9802 9.06676 6.99389 9.09114 7.01827C9.11552 7.04265 9.12922 7.07572 9.12922 7.1102C9.12922 7.14467 9.11552 7.17774 9.09114 7.20212C9.06676 7.2265 9.0337 7.2402 8.99922 7.2402H6.47922C6.44474 7.2402 6.41167 7.2265 6.38729 7.20212C6.36292 7.17774 6.34922 7.14467 6.34922 7.1102Z" fill="white" stroke="#027A57" style="fill:white;fill:white;fill-opacity:1;stroke:#027A57;stroke:color(display-p3 0.0078 0.4784 0.3412);stroke-opacity:1;"/>
</g>
</svg>
