<svg width="21" height="20" viewBox="0 0 21 20" fill="none" xmlns="http://www.w3.org/2000/svg">
<path d="M14.3343 13.2451C14.3566 13.3349 14.3695 13.4114 14.3771 13.4691V13.5796V14.2104C14.3771 14.382 14.2346 14.5244 14.063 14.5244L7.0523 14.5244C6.88073 14.5244 6.73828 14.382 6.73828 14.2104V13.5829L6.73872 13.5716C6.73935 13.559 6.74076 13.5372 6.74393 13.5073C6.75029 13.4474 6.76359 13.3565 6.79119 13.2451C6.84654 13.0216 6.95768 12.7222 7.18018 12.4227C7.60762 11.8474 8.52428 11.1694 10.5628 11.1694C12.6012 11.1694 13.5179 11.8474 13.9453 12.4227C14.1678 12.7222 14.279 13.0216 14.3343 13.2451ZM6.73827 13.5832L6.73826 13.5833L6.73827 13.5832ZM11.9357 6.10061L11.9357 6.10067L11.9412 6.10879C12.0896 6.32522 12.1807 6.58142 12.2097 6.8488V7.03688C12.2097 7.4895 12.0349 7.92036 11.7253 8.22996C11.4089 8.54642 10.9853 8.72455 10.5526 8.72455C10.221 8.72455 9.90337 8.63014 9.63467 8.44588L9.63472 8.4458L9.62649 8.44039C9.36029 8.26546 9.14805 8.00177 9.02082 7.69164C8.89612 7.3877 8.86338 7.04886 8.9273 6.71325C8.99017 6.38317 9.14637 6.08745 9.37985 5.85397C9.61942 5.6144 9.91793 5.45194 10.2312 5.39082C10.5532 5.32798 10.8906 5.35948 11.195 5.48389C11.4904 5.60877 11.7572 5.82892 11.9357 6.10061ZM17.9991 13.5743L17.9995 13.583V14.2308C17.9995 14.3982 17.8611 14.5346 17.6956 14.5346H16.8321V13.5796V13.5701L16.8318 13.5607C16.8091 12.9606 16.6734 12.3571 16.4212 11.806C16.375 11.7033 16.3253 11.6028 16.2722 11.5047C17.0079 11.7834 17.4148 12.1948 17.6469 12.5546C17.8247 12.8303 17.9135 13.0968 17.9576 13.2926C17.9796 13.3902 17.9901 13.4688 17.9951 13.5199C17.9976 13.5454 17.9987 13.5639 17.9991 13.5743ZM17.9995 13.5835C17.9995 13.584 17.9995 13.5839 17.9995 13.5832L17.9995 13.5835ZM14.3873 13.5837C14.3873 13.5838 14.3873 13.5838 14.3873 13.5837L14.3873 13.5837ZM14.3242 8.70634C14.5557 8.18235 14.675 7.61452 14.675 7.03688C14.675 6.45613 14.5497 5.88853 14.3194 5.36692C14.6962 5.40357 15.0591 5.5722 15.3398 5.83605C15.6518 6.1593 15.8219 6.5808 15.8219 7.0267C15.8219 7.47933 15.6471 7.91019 15.3375 8.21979C15.0601 8.49725 14.7003 8.66837 14.3242 8.70634Z" fill="white" stroke="white"/>
<path d="M2.5 9.62695H6.73845" stroke="white" stroke-width="1.25" stroke-linecap="round"/>
<path d="M4.62109 11.7463L4.62109 7.50781" stroke="white" stroke-width="1.25" stroke-linecap="round"/>
</svg>
