<svg width="19" height="19" viewBox="0 0 19 19" fill="none" xmlns="http://www.w3.org/2000/svg">
<g clip-path="url(#clip0_6844_13118)">
<path d="M13.6762 14.464V15.0593C13.6762 15.4819 13.3305 15.8276 12.908 15.8276H6.29166C5.86914 15.8276 5.52344 15.4819 5.52344 15.0593V14.464C5.52344 14.464 5.52344 11.7176 9.60462 11.7176C13.6858 11.7176 13.6858 14.464 13.6858 14.464H13.6762ZM11.6404 8.28937C11.6404 7.88606 11.5252 7.48274 11.2947 7.14664C11.0739 6.81054 10.7474 6.54166 10.3824 6.38802C10.0079 6.23438 9.59502 6.19596 9.20131 6.27279C8.80759 6.34961 8.44269 6.55127 8.1546 6.83935C7.86652 7.12743 7.67446 7.49234 7.59764 7.89566C7.52082 8.29897 7.55923 8.7119 7.71287 9.0864C7.86652 9.46091 8.12579 9.78741 8.46189 10.0083C8.79799 10.2387 9.1917 10.354 9.59502 10.354C10.1328 10.354 10.6513 10.1331 11.0354 9.749C11.4196 9.36488 11.6308 8.83673 11.6308 8.28937H11.6404ZM13.8202 11.756C14.1948 12.1017 14.4924 12.5146 14.7037 12.9851C14.915 13.4461 15.0302 13.955 15.0494 14.464V15.5779C15.0494 15.7219 15.1646 15.8372 15.3087 15.8372H16.3362C16.7491 15.8372 17.0948 15.5011 17.0948 15.0785V14.464C17.0948 14.464 17.0948 12.1017 13.8299 11.7656L13.8202 11.756ZM13.004 6.23438C12.8024 6.23438 12.5911 6.26318 12.399 6.3304C12.7927 6.90657 13.0136 7.58837 13.0136 8.28937C13.0136 8.99038 12.8024 9.67217 12.399 10.2483C12.5911 10.3156 12.8024 10.3444 13.004 10.3444C13.5418 10.3444 14.0603 10.1235 14.4444 9.73939C14.8285 9.35528 15.0398 8.82713 15.0398 8.27977C15.0398 7.73241 14.8285 7.21386 14.4444 6.82015C14.0603 6.45524 13.5418 6.23438 13.004 6.23438Z" fill="#5C5F66"/>
<path d="M1.99609 9.73438H5.99609" stroke="#5C5F66" stroke-width="1.25" stroke-linecap="round"/>
<path d="M3.99609 11.7344L3.99609 7.73438" stroke="#5C5F66" stroke-width="1.25" stroke-linecap="round"/>
</g>
<defs>
<clipPath id="clip0_6844_13118">
<rect width="18" height="18" fill="white" transform="translate(0.515625 0.734375)"/>
</clipPath>
</defs>
</svg>
