<svg width="17" height="18" viewBox="0 0 17 18" fill="none" xmlns="http://www.w3.org/2000/svg">
<g id="Group 1000006388">
<path id="Union" d="M2.68964 11.4661L3.18352 12.0306L3.43964 11.8065V11.4661H2.68964ZM1.3435 12.644L1.83738 13.2084L1.83738 13.2084L1.3435 12.644ZM15.1997 12.644L15.6936 12.0796L15.1997 12.644ZM13.8535 11.466H13.1035V11.8063L13.3596 12.0304L13.8535 11.466ZM3.43964 6.58191C3.43964 3.91332 5.60296 1.75 8.27154 1.75V0.25C4.77453 0.25 1.93964 3.08489 1.93964 6.58191H3.43964ZM3.43964 11.4661V6.58191H1.93964V11.4661H3.43964ZM1.83738 13.2084L3.18352 12.0306L2.19576 10.9017L0.849623 12.0796L1.83738 13.2084ZM2.00201 13.6466C1.77116 13.6466 1.66366 13.3604 1.83738 13.2084L0.849623 12.0796C-0.366461 13.1436 0.386125 15.1466 2.00201 15.1466V13.6466ZM14.5412 13.6466H2.00201V15.1466H14.5412V13.6466ZM14.7058 13.2084C14.8796 13.3604 14.772 13.6466 14.5412 13.6466V15.1466C16.1571 15.1466 16.9097 13.1436 15.6936 12.0796L14.7058 13.2084ZM13.3596 12.0304L14.7058 13.2084L15.6936 12.0796L14.3473 10.9016L13.3596 12.0304ZM13.1035 6.58191V11.466H14.6035V6.58191H13.1035ZM8.27154 1.75C10.9401 1.75 13.1035 3.91332 13.1035 6.58191H14.6035C14.6035 3.08489 11.7686 0.25 8.27154 0.25V1.75Z" fill="white"/>
<path id="Subtract" fill-rule="evenodd" clip-rule="evenodd" d="M5.76172 14.1973V15.3007C5.76172 16.6814 6.88101 17.8007 8.26172 17.8007C9.64243 17.8007 10.7617 16.6814 10.7617 15.3007V14.1973H9.26172V15.3007C9.26172 15.853 8.814 16.3007 8.26172 16.3007C7.70943 16.3007 7.26172 15.853 7.26172 15.3007V14.1973H5.76172Z" fill="white"/>
</g>
</svg>
