<svg width="18" height="18" viewBox="0 0 18 18" fill="none" xmlns="http://www.w3.org/2000/svg">
<path d="M9 13.5L3.75 13.5C3.35218 13.5 2.97064 13.342 2.68934 13.0607C2.40804 12.7794 2.25 12.3978 2.25 12L2.25 4.5C2.25 4.10218 2.40804 3.72064 2.68934 3.43934C2.97064 3.15804 3.35218 3 3.75 3L14.25 3C14.6478 3 15.0294 3.15804 15.3107 3.43934C15.592 3.72064 15.75 4.10218 15.75 4.5L15.75 10.125" stroke="white" stroke-width="1.25" stroke-linecap="round" stroke-linejoin="round"/>
<path d="M2.25 4.5L9 9L15.75 4.5M11.25 13.5H15.75M15.75 13.5L13.5 11.25M15.75 13.5L13.5 15.75" stroke="white" stroke-width="1.25" stroke-linecap="round" stroke-linejoin="round"/>
</svg>
