<svg width="18" height="18" viewBox="0 0 18 18" fill="none" xmlns="http://www.w3.org/2000/svg">
<path d="M15.6363 5.96456L15.6363 5.96462C15.6776 6.00584 15.7007 6.06174 15.7008 6.12005C15.7008 6.12008 15.7008 6.12012 15.7008 6.12016L15.7008 15.4801C15.7008 15.5384 15.6776 15.5944 15.6363 15.6356C15.5951 15.6769 15.5391 15.7 15.4808 15.7L2.52078 15.7C2.46243 15.7 2.40647 15.6769 2.36522 15.6356C2.32396 15.5944 2.30078 15.5384 2.30078 15.4801L2.30078 2.52005C2.30078 2.4617 2.32396 2.40574 2.36522 2.36449C2.40648 2.32323 2.46243 2.30005 2.52078 2.30005L11.8807 2.30005C11.8807 2.30005 11.8807 2.30005 11.8808 2.30005C11.9391 2.30009 11.995 2.32327 12.0362 2.36451L12.0363 2.36456L15.6363 5.96456ZM11.1608 15.26H11.6608V14.76V11.16V10.66H11.1608L6.84078 10.66H6.34078V11.16V14.76V15.26H6.84078L11.1608 15.26ZM3.24078 2.74005H2.74078V3.24005L2.74078 14.76V15.26H3.24078H5.40078H5.90078V14.76V10.44C5.90078 10.3817 5.92396 10.3257 5.96522 10.2845C6.00648 10.2432 6.06244 10.22 6.12078 10.22L11.8808 10.22C11.9391 10.22 11.9951 10.2432 12.0363 10.2845C12.0776 10.3257 12.1008 10.3817 12.1008 10.44V14.76V15.26H12.6008H14.7608H15.2608V14.76L15.2608 6.41813V6.21102L15.1143 6.06458L11.9363 2.8865L11.7898 2.74005H11.5827L3.24078 2.74005ZM5.90078 6.84005C5.90078 6.7817 5.92396 6.72574 5.96522 6.68449C6.00648 6.64323 6.06243 6.62005 6.12078 6.62005H9.00078C9.05913 6.62005 9.11509 6.64323 9.15635 6.68449C9.1976 6.72574 9.22078 6.7817 9.22078 6.84005C9.22078 6.8984 9.1976 6.95436 9.15635 6.99561C9.11509 7.03687 9.05913 7.06005 9.00078 7.06005H6.12078C6.06243 7.06005 6.00648 7.03687 5.96522 6.99561C5.92396 6.95435 5.90078 6.8984 5.90078 6.84005Z" fill="black" stroke="#F2F4F6"/>
</svg>
