<svg width="12" height="12" viewBox="0 0 12 12" fill="none" xmlns="http://www.w3.org/2000/svg">
<path d="M3 1.5C3 2.32843 2.32843 3 1.5 3C0.671573 3 0 2.32843 0 1.5C0 0.671573 0.671573 0 1.5 0C2.32843 0 3 0.671573 3 1.5Z" fill="#242424"/>
<path d="M3 6C3 6.82843 2.32843 7.5 1.5 7.5C0.671573 7.5 0 6.82843 0 6C0 5.17157 0.671573 4.5 1.5 4.5C2.32843 4.5 3 5.17157 3 6Z" fill="#242424"/>
<path d="M1.5 12C2.32843 12 3 11.3284 3 10.5C3 9.67157 2.32843 9 1.5 9C0.671573 9 0 9.67157 0 10.5C0 11.3284 0.671573 12 1.5 12Z" fill="#242424"/>
<path d="M7.5 1.5C7.5 2.32843 6.82843 3 6 3C5.17157 3 4.5 2.32843 4.5 1.5C4.5 0.671573 5.17157 0 6 0C6.82843 0 7.5 0.671573 7.5 1.5Z" fill="#242424"/>
<path d="M6 7.5C6.82843 7.5 7.5 6.82843 7.5 6C7.5 5.17157 6.82843 4.5 6 4.5C5.17157 4.5 4.5 5.17157 4.5 6C4.5 6.82843 5.17157 7.5 6 7.5Z" fill="#242424"/>
<path d="M7.5 10.5C7.5 11.3284 6.82843 12 6 12C5.17157 12 4.5 11.3284 4.5 10.5C4.5 9.67157 5.17157 9 6 9C6.82843 9 7.5 9.67157 7.5 10.5Z" fill="#242424"/>
<path d="M10.5 3C11.3284 3 12 2.32843 12 1.5C12 0.671573 11.3284 0 10.5 0C9.67157 0 9 0.671573 9 1.5C9 2.32843 9.67157 3 10.5 3Z" fill="#242424"/>
<path d="M12 6C12 6.82843 11.3284 7.5 10.5 7.5C9.67157 7.5 9 6.82843 9 6C9 5.17157 9.67157 4.5 10.5 4.5C11.3284 4.5 12 5.17157 12 6Z" fill="#242424"/>
<path d="M10.5 12C11.3284 12 12 11.3284 12 10.5C12 9.67157 11.3284 9 10.5 9C9.67157 9 9 9.67157 9 10.5C9 11.3284 9.67157 12 10.5 12Z" fill="#242424"/>
</svg>
