<svg width="17" height="16" viewBox="0 0 17 16" fill="none" xmlns="http://www.w3.org/2000/svg">
<path d="M1.56643 0H8.61539C9.03083 0 9.42926 0.168571 9.72302 0.468629C10.0168 0.768687 10.1818 1.17565 10.1818 1.6V2.8C10.1818 3.02091 10.0027 3.2 9.78182 3.2H9.01539C8.79447 3.2 8.61539 3.02091 8.61539 2.8V2C8.61539 1.77909 8.4363 1.6 8.21539 1.6H1.96643C1.74552 1.6 1.56643 1.77909 1.56643 2V14C1.56643 14.2209 1.74552 14.4 1.96643 14.4H8.21539C8.4363 14.4 8.61539 14.2209 8.61539 14V13.2C8.61539 12.9791 8.79447 12.8 9.01539 12.8H9.78182C10.0027 12.8 10.1818 12.9791 10.1818 13.2V14.4C10.1818 14.8243 10.0168 15.2313 9.72302 15.5314C9.42926 15.8314 9.03083 16 8.61539 16H1.56643C1.15099 16 0.752561 15.8314 0.458798 15.5314C0.165034 15.2313 0 14.8243 0 14.4V1.6C0 1.17565 0.165034 0.768687 0.458798 0.468629C0.752561 0.168571 1.15099 0 1.56643 0Z" fill="#242424"/>
<path d="M11.5777 10.7984C11.5348 10.8381 11.5349 10.9059 11.5779 10.9454L12.6559 11.9377C12.6941 11.9729 12.753 11.9729 12.7913 11.9377L16.6696 8.36788C16.8848 8.16982 16.8848 7.83018 16.6696 7.63212L12.7913 4.06234C12.753 4.02711 12.6941 4.02711 12.6559 4.06234L11.5779 5.05457C11.5349 5.09413 11.5348 5.16195 11.5777 5.20159L13.5528 7.02655C13.6196 7.08832 13.5759 7.2 13.4849 7.2H5.43594C5.38071 7.2 5.33594 7.24477 5.33594 7.3V8.7C5.33594 8.75523 5.38071 8.8 5.43594 8.8H9.53821H13.4849C13.5759 8.8 13.6196 8.91168 13.5528 8.97345L11.5777 10.7984Z" fill="#242424"/>
</svg>
