<svg width="18" height="12" viewBox="0 0 18 12" fill="none" xmlns="http://www.w3.org/2000/svg">
<g id="Group">
<path id="Vector" d="M9 10.5C13.1422 10.5 16.5 6 16.5 6C16.5 6 13.1422 1.5 9 1.5C4.85775 1.5 1.5 6 1.5 6C1.5 6 4.85775 10.5 9 10.5Z" stroke="#5C5F66" stroke-width="1.5" stroke-linejoin="round"/>
<path id="Vector_2" d="M9 7.875C9.49728 7.875 9.97419 7.67746 10.3258 7.32583C10.6775 6.97419 10.875 6.49728 10.875 6C10.875 5.50272 10.6775 5.02581 10.3258 4.67417C9.97419 4.32254 9.49728 4.125 9 4.125C8.50272 4.125 8.02581 4.32254 7.67417 4.67417C7.32254 5.02581 7.125 5.50272 7.125 6C7.125 6.49728 7.32254 6.97419 7.67417 7.32583C8.02581 7.67746 8.50272 7.875 9 7.875Z" stroke="#5C5F66" stroke-width="1.5" stroke-linejoin="round"/>
</g>
</svg>
