<svg width="20" height="20" viewBox="0 0 20 20" fill="none" xmlns="http://www.w3.org/2000/svg">
<path d="M10 14.8C9.55817 14.8 9.2 14.4418 9.2 14L9.2 9.2C9.2 8.75817 9.55817 8.4 10 8.4C10.4418 8.4 10.8 8.75817 10.8 9.2L10.8 14C10.8 14.4418 10.4418 14.8 10 14.8Z" fill="white"/>
<path d="M10 6.8C10.4418 6.8 10.8 6.44183 10.8 6C10.8 5.55817 10.4418 5.2 10 5.2C9.55817 5.2 9.2 5.55817 9.2 6C9.2 6.44183 9.55817 6.8 10 6.8Z" fill="white"/>
<path fill-rule="evenodd" clip-rule="evenodd" d="M10 18C14.4183 18 18 14.4183 18 10C18 5.58172 14.4183 2 10 2C5.58172 2 2 5.58172 2 10C2 14.4183 5.58172 18 10 18ZM16.4 10C16.4 6.46538 13.5346 3.6 10 3.6C6.46538 3.6 3.6 6.46538 3.6 10C3.6 13.5346 6.46538 16.4 10 16.4C13.5346 16.4 16.4 13.5346 16.4 10Z" fill="white"/>
</svg>
