<svg width="25" height="25" viewBox="0 0 25 25" fill="none" xmlns="http://www.w3.org/2000/svg">
<path fill-rule="evenodd" clip-rule="evenodd" d="M12.682 2.5625C7.3801 2.5625 3.08203 6.86057 3.08203 12.1625C3.08203 17.4644 7.3801 21.7625 12.682 21.7625C17.984 21.7625 22.282 17.4644 22.282 12.1625C22.282 6.86057 17.984 2.5625 12.682 2.5625ZM5.00203 12.1625C5.00203 16.404 8.44049 19.8425 12.682 19.8425C16.9236 19.8425 20.362 16.404 20.362 12.1625C20.362 7.92095 16.9236 4.4825 12.682 4.4825C8.44049 4.4825 5.00203 7.92095 5.00203 12.1625Z" fill="#A7ADB2"/>
<path d="M11.9035 16.6544C11.9035 16.2192 12.2564 15.8664 12.6916 15.8664C13.1268 15.8664 13.4796 16.2192 13.4796 16.6544C13.4796 17.0897 13.1268 17.4425 12.6916 17.4425C12.2564 17.4425 11.9035 17.0897 11.9035 16.6544ZM12.9543 6.8825C15.7913 6.99808 17.0207 9.85611 15.35 11.9891C14.9087 12.5145 14.2047 12.8612 13.8474 13.3131C13.6651 13.537 13.5732 13.779 13.5268 14.0301C13.4478 14.4581 13.1268 14.8156 12.6916 14.8156C12.2564 14.8156 11.8951 14.4625 11.9146 14.0277C11.9391 13.4801 12.0178 13.0132 12.2713 12.6511C12.618 12.1257 13.322 11.8105 13.7633 11.4638C15.0558 10.2764 14.7195 8.60572 12.9543 8.46913C12.3608 8.46913 11.8372 8.80308 11.5687 9.29933C11.3616 9.68213 11.0253 10.0558 10.5901 10.0558C10.1549 10.0558 9.79201 9.69754 9.89828 9.27548C10.2449 7.899 11.4866 6.8825 12.9543 6.8825Z" fill="#A7ADB2"/>
</svg>
