<svg width="20" height="20" viewBox="0 0 20 20" fill="none" xmlns="http://www.w3.org/2000/svg">
<path d="M10 5.2C10.4418 5.2 10.8 5.55817 10.8 6L10.8 10.8C10.8 11.2418 10.4418 11.6 10 11.6C9.55817 11.6 9.2 11.2418 9.2 10.8L9.2 6C9.2 5.55817 9.55817 5.2 10 5.2Z" fill="#F2F4F6" style="fill:#F2F4F6;fill:color(display-p3 0.9490 0.9569 0.9647);fill-opacity:1;"/>
<path d="M10 13.2C9.55817 13.2 9.2 13.5582 9.2 14C9.2 14.4418 9.55817 14.8 10 14.8C10.4418 14.8 10.8 14.4418 10.8 14C10.8 13.5582 10.4418 13.2 10 13.2Z" fill="#F2F4F6" style="fill:#F2F4F6;fill:color(display-p3 0.9490 0.9569 0.9647);fill-opacity:1;"/>
<path fill-rule="evenodd" clip-rule="evenodd" d="M10 2C5.58172 2 2 5.58172 2 10C2 14.4183 5.58172 18 10 18C14.4183 18 18 14.4183 18 10C18 5.58172 14.4183 2 10 2ZM3.6 10C3.6 13.5346 6.46538 16.4 10 16.4C13.5346 16.4 16.4 13.5346 16.4 10C16.4 6.46538 13.5346 3.6 10 3.6C6.46538 3.6 3.6 6.46538 3.6 10Z" fill="#F2F4F6" style="fill:#F2F4F6;fill:color(display-p3 0.9490 0.9569 0.9647);fill-opacity:1;"/>
</svg>
