<svg width="21" height="25" viewBox="0 0 21 25" fill="none" xmlns="http://www.w3.org/2000/svg">
<path d="M3.96135 23.1017C2.52224 22.2708 1.42982 20.9756 0.924401 19.5009C0.418987 18.0263 0.541985 16.493 1.26634 15.2384L5.44341 8.00347C5.91211 7.19166 6.73153 6.62667 7.7214 6.43279C8.71127 6.23892 9.79051 6.43203 10.7217 6.96965C11.6529 7.50728 12.3598 8.34537 12.6868 9.29956C13.0138 10.2538 12.9342 11.2459 12.4655 12.0577L9.16262 17.7785C8.85729 18.3074 8.18106 18.4886 7.65221 18.1832C7.12336 17.8779 6.94217 17.2017 7.2475 16.6728L10.5504 10.952C10.7635 10.583 10.7996 10.132 10.651 9.6983C10.5023 9.26458 10.181 8.88362 9.75776 8.63925C9.33449 8.39488 8.84393 8.3071 8.39399 8.39522C7.94404 8.48335 7.57158 8.74016 7.35854 9.10916L3.18146 16.3441C2.71276 17.1559 2.63318 18.148 2.96021 19.1022C3.28724 20.0564 3.9941 20.8945 4.92529 21.4321C5.85649 21.9697 6.93573 22.1629 7.9256 21.969C8.91547 21.7751 9.73489 21.2101 10.2036 20.3983L17.5938 7.59807C17.9773 6.93387 18.0424 6.12212 17.7748 5.34142C17.5073 4.56072 16.9289 3.87501 16.167 3.43513C15.4051 2.99526 14.5221 2.83725 13.7122 2.99588C12.9023 3.15451 12.2319 3.61677 11.8484 4.28098L11.7586 4.43648C11.4533 4.96533 10.7771 5.14652 10.2482 4.84119C9.71939 4.53586 9.53819 3.85963 9.84352 3.33078L9.9333 3.17528C10.5724 2.06827 11.6898 1.29783 13.0396 1.03345C14.3895 0.769075 15.8612 1.03241 17.131 1.76554C18.4008 2.49866 19.3647 3.64151 19.8106 4.94268C20.2566 6.24386 20.1481 7.59676 19.5089 8.70377L12.1187 21.504C11.76 22.1252 11.2645 22.6593 10.6605 23.0758C10.0564 23.4923 9.35567 23.783 8.59819 23.9314C7.84071 24.0798 7.04135 24.0829 6.24576 23.9405C5.45017 23.7981 4.67393 23.5131 3.96135 23.1017Z" fill="white"/>
</svg>
