<svg width="24" height="24" viewBox="0 0 24 24" fill="none" xmlns="http://www.w3.org/2000/svg">
<g id="icn_lock">
<g id="log-off">
<path d="M13 4.0082C13.0002 3.45592 12.5527 3.00803 12.0004 3.00781C11.4481 3.0076 11.0002 3.45514 11 4.00742L10.9968 12.0109C10.9966 12.5632 11.4442 13.011 11.9965 13.0113C12.5487 13.0115 12.9966 12.5639 12.9968 12.0117L13 4.0082Z" fill="white"/>
<path d="M4 12.9909C4 10.7818 4.89541 8.78186 6.34308 7.33415L7.7573 8.74837C6.67155 9.83415 6 11.3341 6 12.9909C6 16.3047 8.68629 18.9909 12 18.9909C15.3137 18.9909 18 16.3047 18 12.9909C18 11.3341 17.3284 9.83408 16.2426 8.7483L17.6568 7.33408C19.1046 8.7818 20 10.7818 20 12.9909C20 17.4092 16.4183 20.9909 12 20.9909C7.58172 20.9909 4 17.4092 4 12.9909Z" fill="white"/>
</g>
</g>
</svg>
