<svg width="40" height="40" viewBox="0 0 40 40" fill="none" xmlns="http://www.w3.org/2000/svg">
<path fill-rule="evenodd" clip-rule="evenodd" d="M7.82422 8.43504C7.82422 5.69763 9.64103 3.47852 11.8822 3.47852L22.7034 3.47852C27.9328 3.47852 32.172 8.65644 32.172 15.0437V31.5655C32.172 34.3029 30.3552 36.522 28.1141 36.522H11.8822C9.64103 36.522 7.82422 34.3029 7.82422 31.5655L7.82422 8.43504ZM21.3508 6.78286L11.8822 6.78286C11.1351 6.78286 10.5295 7.52257 10.5295 8.43504L10.5295 31.5655C10.5295 32.4779 11.1351 33.2176 11.8822 33.2176H28.1141C28.8611 33.2176 29.4667 32.4779 29.4667 31.5655V15.0437L21.3508 15.0437V6.78286ZM28.904 11.7394C28.0346 9.30913 26.2357 7.48851 24.0561 6.94811V11.7394L28.904 11.7394Z" fill="#242424"/>
</svg>
