<svg width="40" height="40" viewBox="0 0 40 40" fill="none" xmlns="http://www.w3.org/2000/svg">
<path fill-rule="evenodd" clip-rule="evenodd" d="M31.5669 7.82617C34.3043 7.82617 36.5234 9.64299 36.5234 11.8841L36.5234 22.7054C36.5234 27.9348 31.3455 32.174 24.9582 32.174L8.43648 32.174C5.69907 32.174 3.47996 30.3572 3.47996 28.116L3.47996 11.8841C3.47996 9.64299 5.69907 7.82617 8.43648 7.82617L31.5669 7.82617ZM33.2191 21.3527L33.2191 11.8841C33.2191 11.1371 32.4794 10.5315 31.5669 10.5315L8.43648 10.5315C7.52401 10.5315 6.78431 11.1371 6.78431 11.8841L6.78431 28.116C6.78431 28.8631 7.52401 29.4687 8.43648 29.4687L24.9582 29.4687L24.9582 21.3527L33.2191 21.3527ZM28.2626 28.9059C30.6928 28.0366 32.5134 26.2376 33.0538 24.0581L28.2626 24.0581L28.2626 28.9059Z" fill="#D8DBDD"/>
</svg>
