<svg width="20" height="20" viewBox="0 0 20 20" fill="none" xmlns="http://www.w3.org/2000/svg">
<path d="M9.99935 15C14.6018 15 18.3327 10 18.3327 10C18.3327 10 14.6018 5 9.99935 5C5.39685 5 1.66602 10 1.66602 10C1.66602 10 5.39685 15 9.99935 15Z" stroke="#7A8087" stroke-width="1.5" stroke-linejoin="round"/>
<path d="M9.99935 12.0846C10.5519 12.0846 11.0818 11.8651 11.4725 11.4744C11.8632 11.0837 12.0827 10.5538 12.0827 10.0013C12.0827 9.44877 11.8632 8.91886 11.4725 8.52816C11.0818 8.13746 10.5519 7.91797 9.99935 7.91797C9.44681 7.91797 8.91691 8.13746 8.52621 8.52816C8.13551 8.91886 7.91602 9.44877 7.91602 10.0013C7.91602 10.5538 8.13551 11.0837 8.52621 11.4744C8.91691 11.8651 9.44681 12.0846 9.99935 12.0846Z" stroke="#7A8087" stroke-width="1.5" stroke-linejoin="round"/>
</svg>
