<svg width="47" height="47" viewBox="0 0 47 47" fill="none" xmlns="http://www.w3.org/2000/svg">
<g id="Group 1000006249">
<g id="Group">
<path id="Vector" opacity="0.4" d="M29.9611 2.22022C30.0067 3.09454 29.7254 4.22736 28.8207 5.67189C26.0152 10.1651 19.5757 11.9442 14.6795 11.6325C14.6795 11.6325 14.6263 11.6173 14.5198 11.6173C14.2689 11.6021 13.7139 11.5792 12.9385 11.6325C10.6804 11.7769 6.63575 12.5524 3.29052 15.928C2.4162 16.7948 1.5951 17.8439 0.865234 19.106C1.84599 13.5864 4.70464 8.74341 8.74172 5.32216C9.02302 5.08647 9.31193 4.85839 9.59323 4.63031C11.3343 3.27701 13.273 2.18981 15.3637 1.41433C15.7059 1.29268 16.0556 1.16344 16.4129 1.04939C16.7398 0.935352 17.082 0.844119 17.4241 0.752885C17.4697 0.73768 17.5153 0.730077 17.5609 0.707269C17.8879 0.631241 18.23 0.54761 18.5721 0.479185C18.9371 0.403157 19.3096 0.334732 19.6897 0.27391C20.0623 0.205485 20.4424 0.159868 20.8149 0.129457C21.1875 0.0838403 21.5752 0.0534292 21.963 0.0382236C22.3355 0.0154153 22.7232 0.0078125 23.111 0.0078125H23.1642C23.6204 0.0078125 24.0841 0.0306209 24.5403 0.0534292H24.5783C25.0649 0.0914431 25.5363 0.129457 26.0152 0.197882C26.2509 0.235896 26.479 0.266307 26.7223 0.304321C27.4294 0.418363 28.1136 0.562816 28.7979 0.745283C28.8967 0.783296 29.0031 0.813708 29.0944 0.87453C29.1628 0.904941 29.2312 0.942955 29.2844 0.996174C29.3377 1.01898 29.3833 1.0646 29.4289 1.11022C29.5505 1.22426 29.657 1.36111 29.733 1.50556C29.7938 1.6044 29.8242 1.71084 29.8623 1.82488C29.9079 1.94652 29.9155 2.07577 29.9307 2.21262L29.9611 2.22022Z" fill="black" fill-opacity="0.5"/>
<path id="Vector_2" opacity="0.4" d="M29.8935 1.83074C29.8555 1.7167 29.8251 1.61786 29.7643 1.51142C29.6882 1.36697 29.5818 1.23012 29.4601 1.11608C29.4145 1.07046 29.3689 1.02484 29.3157 1.00203C29.2625 0.948814 29.194 0.9108 29.1256 0.880389C29.0344 0.834773 28.9279 0.789156 28.8291 0.766348C28.1449 0.583881 27.4606 0.439428 26.7536 0.31018C26.5179 0.272167 26.2898 0.241755 26.0465 0.203741C25.5675 0.135316 25.1037 0.0896997 24.6096 0.0592886H24.5716C24.1154 0.0364802 23.6516 0.0136719 23.1954 0.0136719H23.1422C22.7545 0.0136719 22.3667 0.0288774 21.9942 0.044083C21.6065 0.0592886 21.2187 0.0896997 20.8462 0.135316C20.4737 0.17333 20.0935 0.211344 19.721 0.279769C19.3484 0.332989 18.9683 0.401414 18.6034 0.485045C18.2612 0.55347 17.9191 0.629497 17.5922 0.713128C17.5466 0.735936 17.501 0.743539 17.4553 0.758745C17.1132 0.849978 16.7711 0.941212 16.4442 1.05525C16.0944 1.1693 15.7371 1.29094 15.395 1.42019C13.3118 2.19567 11.3731 3.27527 9.62448 4.63616C9.34318 4.86425 9.05427 5.09233 8.77297 5.32802C4.73589 8.74927 1.87724 13.5922 0.896484 19.1119C1.62635 17.8498 2.44745 16.8006 3.32177 15.9339C6.6594 12.5583 10.7117 11.7828 12.9697 11.6383C13.7452 11.5927 14.3002 11.6155 14.5511 11.6231C14.6575 11.6231 14.7107 11.6383 14.7107 11.6383C19.5993 11.9424 26.0465 10.171 28.8519 5.67775C29.749 4.23322 30.038 3.1004 29.9923 2.22608C29.9771 2.08923 29.9695 1.96759 29.9239 1.83834L29.8935 1.83074ZM27.5214 4.81863C26.1225 7.05385 23.7505 8.30831 22.0018 8.95455C19.8122 9.78325 17.2501 10.1862 14.9236 10.0493H14.802C14.6575 10.0341 14.1177 9.99613 13.3194 10.0265C12.2931 10.0646 10.8257 10.209 9.16831 10.688C7.56413 11.167 6.06638 11.8512 4.72069 12.7407C4.70548 12.7407 4.68267 12.7559 4.67507 12.7635C5.8611 10.5739 7.41967 8.58961 9.28996 6.93981C9.36598 6.86378 9.43441 6.79536 9.51804 6.72693C9.79934 6.47604 10.0883 6.24035 10.3848 6.01987C10.7573 5.72336 11.1374 5.44206 11.5328 5.19117C11.8977 4.93267 12.2702 4.68938 12.658 4.47651C13.2814 4.10397 13.9353 3.76184 14.6043 3.46534C14.7944 3.3741 14.9768 3.29807 15.1745 3.21444C15.7067 2.98636 16.2465 2.79629 16.8015 2.61382C17.0524 2.5378 17.3109 2.45417 17.577 2.38574C17.6834 2.34773 17.7899 2.31732 17.8963 2.29451C18.9531 2.0132 20.0403 1.81553 21.1351 1.7167C21.7965 1.66348 22.458 1.62546 23.127 1.62546C24.9137 1.62546 26.6851 1.86115 28.4034 2.31732C28.4186 2.77348 28.2817 3.59458 27.5062 4.83384L27.5214 4.81863Z" fill="url(#paint0_linear_3757_76685)" fill-opacity="0.5"/>
<path id="Vector_3" opacity="0.6" d="M24.5704 0.0516858C23.2703 0.485045 22.1451 1.04005 21.1492 1.69389C17.3326 4.18 15.6295 7.87495 14.9225 10.0493C14.6944 10.7792 14.5728 11.3494 14.5271 11.6231C14.4967 11.7448 14.4815 11.8132 14.4815 11.8132C13.5464 16.7626 10.2544 22.7384 5.32777 24.4034C3.13056 25.1409 1.79247 24.8444 0.994181 24.2894C0.918153 24.2361 0.849729 24.1753 0.788907 24.0993C0.735687 24.0385 0.674864 23.97 0.644453 23.894C0.55322 23.7268 0.5 23.5291 0.5 23.3238V23.3086C0.5 21.8717 0.629247 20.4728 0.872536 19.1119C1.8533 13.5922 4.71194 8.74927 8.74902 5.32802C9.03032 5.09233 9.31923 4.86425 9.60053 4.63616C11.3416 3.29047 13.2803 2.21088 15.371 1.42019C15.7132 1.29854 16.0629 1.1693 16.4202 1.05525C16.7472 0.941212 17.0893 0.849978 17.4314 0.758745C17.477 0.743539 17.5226 0.735936 17.5683 0.713128C17.8952 0.6371 18.2373 0.55347 18.5794 0.485045C18.9444 0.409017 19.3169 0.340592 19.697 0.279769C20.0696 0.211344 20.4497 0.165728 20.8222 0.135316C21.1948 0.0896997 21.5825 0.0592886 21.9703 0.044083C22.3428 0.0212747 22.7305 0.0136719 23.1183 0.0136719H23.1715C23.6277 0.0136719 24.0914 0.0364802 24.5476 0.0592886L24.5704 0.0516858Z" fill="url(#paint1_linear_3757_76685)" fill-opacity="0.5"/>
<path id="Vector_4" d="M23.1852 0.00760278H23.132C22.7442 0.00760278 22.3565 0.0228084 21.9839 0.0380139C21.5962 0.0532195 21.2085 0.0836306 20.8359 0.129247C20.4634 0.167261 20.0832 0.205275 19.7107 0.2737C19.3382 0.32692 18.958 0.395345 18.5931 0.478975C18.251 0.5474 17.9088 0.623428 17.5819 0.707059C17.5363 0.729867 17.4907 0.73747 17.4451 0.752676C17.1029 0.843909 16.7608 0.935143 16.4339 1.04918C16.0842 1.16323 15.7268 1.28487 15.3847 1.41412C13.3016 2.1972 11.3628 3.2844 9.6142 4.6301C9.3329 4.85818 9.044 5.08626 8.76269 5.32195C4.72561 8.7432 1.86697 13.5862 0.886208 19.1058C0.635316 20.4591 0.513672 21.8656 0.513672 23.3025V23.3177C0.513672 23.523 0.574495 23.7131 0.658125 23.8879C0.696139 23.964 0.749358 24.0324 0.802577 24.0932C0.855797 24.1693 0.924222 24.2301 1.00785 24.2833C1.80614 24.8383 3.13663 25.1348 5.34144 24.3973C10.268 22.7323 13.5601 16.7565 14.4952 11.8071C14.4952 11.8071 14.5104 11.7387 14.5408 11.6171C14.5864 11.3434 14.7081 10.7731 14.9362 10.0433C15.6432 7.86888 17.3386 4.17393 21.1628 1.68782C22.1512 1.04158 23.284 0.478975 24.5841 0.0456167C24.1279 0.0228084 23.6642 0 23.208 0L23.1852 0.00760278ZM14.8981 6.24189C14.0922 7.70162 13.5981 9.05492 13.3168 10.0281C13.0887 10.834 12.9974 11.3814 12.967 11.5334C12.9518 11.5714 12.9518 11.6018 12.9442 11.6399C12.4805 13.9891 11.4541 16.46 10.1312 18.4444C9.07441 20.0181 7.30296 22.0557 4.85486 22.892C3.63842 23.3025 2.65766 23.371 2.04943 23.0745C2.07985 20.6035 2.5056 18.2087 3.30389 15.9354C3.69164 14.833 4.1554 13.7686 4.72561 12.7423C5.18938 11.8832 5.70637 11.0621 6.28418 10.2638C6.29939 10.2486 6.30699 10.2333 6.3222 10.2105C6.5883 9.84561 6.8696 9.49588 7.16611 9.14615C7.22693 9.07012 7.29536 8.99409 7.36378 8.91807C7.65269 8.58354 7.94159 8.25662 8.2533 7.94491C8.59543 7.59518 8.93756 7.25306 9.30249 6.92614C9.65222 6.60682 10.0172 6.30271 10.3973 6.0062C10.7698 5.7249 11.1576 5.43599 11.5453 5.1775C11.9102 4.9266 12.2828 4.69092 12.6705 4.46283C13.294 4.0903 13.9478 3.74817 14.6168 3.45166C14.7993 3.36043 14.9894 3.2844 15.187 3.20077C15.7192 2.97269 16.259 2.78262 16.814 2.60015C17.0649 2.52412 17.3234 2.44049 17.5895 2.37207C17.696 2.33405 17.8024 2.30364 17.9088 2.28084C16.738 3.42125 15.7192 4.74414 14.8981 6.24949V6.24189Z" fill="url(#paint2_linear_3757_76685)" fill-opacity="0.5"/>
</g>
<g id="Group_2">
<path id="Vector_5" opacity="0.4" d="M37.6706 39.4372C36.8951 39.0267 36.074 38.198 35.2985 36.6774C32.8961 31.9561 34.6903 25.5241 37.4729 21.4871C37.4729 21.4871 37.5109 21.4415 37.5642 21.3578C37.701 21.1525 38.0127 20.6812 38.3701 19.9969C39.404 17.9898 40.8258 14.12 39.6549 9.51268C39.366 8.31144 38.8871 7.07219 38.18 5.79492C42.4071 9.48227 45.0833 14.4317 45.9348 19.6472C45.9957 20.0121 46.0413 20.3771 46.0869 20.742C46.353 22.9392 46.277 25.1516 45.8664 27.3412C45.798 27.6985 45.722 28.0635 45.6383 28.4284C45.5623 28.7705 45.4711 29.1127 45.3722 29.4472C45.357 29.4928 45.3418 29.5384 45.3418 29.5916C45.243 29.9186 45.1289 30.2531 45.0149 30.58C44.8933 30.9373 44.7564 31.2947 44.6119 31.6444C44.4751 32.0017 44.323 32.3514 44.1558 32.686C44.0037 33.0357 43.8289 33.3854 43.6388 33.7199C43.4639 34.0545 43.2739 34.389 43.0762 34.7235L43.0458 34.7691C42.8101 35.1569 42.5516 35.5522 42.2931 35.9248L42.2779 35.9552C41.9966 36.3581 41.7153 36.7383 41.4112 37.1108C41.2591 37.3009 41.1147 37.4757 40.9626 37.6658C40.4988 38.2132 40.0199 38.7226 39.5105 39.2168C39.4269 39.2852 39.3432 39.3536 39.252 39.4068C39.1912 39.4448 39.1227 39.4905 39.0467 39.5057C39.0011 39.5437 38.9327 39.5589 38.8718 39.5741C38.7122 39.6197 38.5373 39.6425 38.3701 39.6349C38.256 39.6349 38.1496 39.6045 38.0355 39.5817C37.9063 39.5589 37.7922 39.4981 37.6706 39.4372Z" fill="black" fill-opacity="0.5"/>
<path id="Vector_6" opacity="0.4" d="M38.037 39.5817C38.151 39.6121 38.2574 39.6349 38.3715 39.6349C38.5388 39.6425 38.706 39.6273 38.8733 39.5741C38.9341 39.5589 38.9949 39.5437 39.0481 39.5057C39.1242 39.4829 39.1926 39.4448 39.2534 39.4068C39.337 39.3536 39.4283 39.2852 39.5043 39.2092C40.0137 38.715 40.4927 38.2056 40.964 37.6658C41.1161 37.4757 41.2605 37.3009 41.4126 37.1108C41.7167 36.7383 41.998 36.3581 42.2793 35.9552L42.2945 35.9248C42.5454 35.5446 42.8115 35.1569 43.0472 34.7691L43.0776 34.7235C43.2753 34.389 43.4654 34.0545 43.6402 33.7199C43.8303 33.3854 43.9976 33.0357 44.1572 32.686C44.3245 32.3438 44.4765 32.0017 44.6134 31.6444C44.7578 31.2947 44.8947 30.9373 45.0163 30.58C45.1304 30.2531 45.2444 29.9186 45.3432 29.5916C45.3432 29.5384 45.3584 29.4928 45.3737 29.4472C45.4725 29.1051 45.5713 28.7705 45.6397 28.4284C45.7234 28.0635 45.7994 27.6985 45.8678 27.3412C46.2784 25.1516 46.3468 22.9316 46.0883 20.742C46.0427 20.3771 45.9895 20.0197 45.9363 19.6472C45.0847 14.4241 42.4086 9.47467 38.1814 5.79492C38.8885 7.07219 39.3675 8.31905 39.6564 9.51268C40.8272 14.1124 39.4055 17.9822 38.3715 19.9969C38.0142 20.6812 37.7024 21.1525 37.5656 21.3578C37.5124 21.4491 37.4744 21.4871 37.4744 21.4871C34.6917 25.5165 32.8899 31.9561 35.3 36.6774C36.0754 38.198 36.8965 39.0191 37.672 39.4372C37.7937 39.4981 37.9077 39.5513 38.037 39.5817ZM36.6989 36.0084C35.5052 33.6515 35.6573 30.9753 35.9994 29.1431C36.4176 26.8394 37.3983 24.4369 38.7136 22.5134L38.782 22.407C38.8657 22.2854 39.185 21.852 39.5651 21.1449C40.0669 20.2478 40.6979 18.9097 41.1389 17.2447C41.5571 15.6177 41.7395 13.9907 41.6711 12.3789C41.6711 12.3713 41.6787 12.3409 41.6711 12.3257C42.9332 14.4697 43.8303 16.8342 44.2865 19.2823C44.3169 19.3887 44.3397 19.4875 44.3549 19.5864C44.4233 19.9589 44.4841 20.3238 44.5145 20.6964C44.5754 21.1754 44.6286 21.6391 44.6362 22.1105C44.6742 22.5591 44.6818 23.0076 44.6666 23.4486C44.6666 24.1785 44.621 24.9159 44.5297 25.6458C44.5069 25.8587 44.4841 26.0563 44.4537 26.2616C44.3701 26.8394 44.2636 27.3944 44.1344 27.9722C44.0736 28.2307 44.0052 28.4968 43.9291 28.7553C43.9063 28.8618 43.8759 28.9758 43.8455 29.0746C43.5414 30.1314 43.1536 31.1578 42.6747 32.1462C42.3858 32.7392 42.074 33.3246 41.7243 33.9024C40.8044 35.4382 39.6868 36.8295 38.4095 38.0687C38.0142 37.8407 37.3831 37.3009 36.7141 36.0008L36.6989 36.0084Z" fill="url(#paint3_linear_3757_76685)" fill-opacity="0.5"/>
<path id="Vector_7" opacity="0.6" d="M42.3088 35.938C42.6053 34.5999 42.7118 33.3454 42.6662 32.1594C42.5065 27.6053 40.2181 24.2449 38.7127 22.5191C38.2033 21.9489 37.7776 21.5459 37.5723 21.3634C37.4811 21.2722 37.4278 21.2266 37.4278 21.2266C33.6721 17.8738 30.2508 11.974 31.3608 6.89535C31.8626 4.62972 32.7978 3.63375 33.6949 3.23841C33.7861 3.20039 33.8697 3.16998 33.9686 3.16238C34.0446 3.13957 34.1358 3.13197 34.2195 3.13957C34.4095 3.14717 34.6072 3.20039 34.7821 3.30683H34.7897C36.0213 4.0519 37.1541 4.88061 38.1881 5.80054C42.4153 9.48789 45.0915 14.4373 45.943 19.6528C46.0038 20.0178 46.0494 20.3827 46.095 20.7476C46.3459 22.9372 46.2775 25.1572 45.8745 27.3468C45.8061 27.7042 45.7301 28.0691 45.6465 28.434C45.5704 28.7762 45.4792 29.1183 45.3804 29.4528C45.3652 29.4984 45.35 29.544 45.35 29.5973C45.2511 29.9242 45.1371 30.2587 45.023 30.5856C44.9014 30.943 44.7645 31.3003 44.6201 31.65C44.4832 32.0073 44.3312 32.3571 44.1639 32.6916C44.0119 33.0413 43.837 33.391 43.6469 33.7256C43.4721 34.0601 43.282 34.3946 43.0843 34.7291L43.0539 34.7748C42.8182 35.1625 42.5597 35.5578 42.3012 35.9304L42.3088 35.938Z" fill="url(#paint4_linear_3757_76685)" fill-opacity="0.5"/>
<path id="Vector_8" d="M43.0539 34.7761L43.0843 34.7305C43.282 34.3959 43.4721 34.0614 43.6469 33.7269C43.837 33.3924 44.0043 33.0426 44.1639 32.6929C44.3312 32.3508 44.4832 32.0087 44.6201 31.6513C44.7645 31.3016 44.9014 30.9443 45.023 30.5869C45.1371 30.26 45.2511 29.9255 45.35 29.5986C45.35 29.5454 45.3652 29.4997 45.3804 29.4541C45.4792 29.112 45.578 28.7775 45.6465 28.4354C45.7301 28.0704 45.8061 27.7055 45.8745 27.3482C46.2775 25.1509 46.3459 22.9385 46.095 20.7489C46.0494 20.384 45.9962 20.0267 45.943 19.6541C45.0915 14.431 42.4153 9.48161 38.1881 5.80186C37.1541 4.88953 36.0213 4.06082 34.7897 3.31575H34.7821C34.6072 3.20171 34.4095 3.15609 34.2195 3.14089C34.1358 3.12568 34.0446 3.14089 33.9686 3.16369C33.8697 3.1713 33.7861 3.20171 33.6949 3.23972C32.8054 3.63507 31.8626 4.62343 31.3608 6.89666C30.2508 11.9753 33.6721 17.8751 37.4278 21.2279C37.4278 21.2279 37.4811 21.2735 37.5723 21.3648C37.7852 21.5472 38.2033 21.9426 38.7127 22.5204C40.2181 24.2462 42.5065 27.6066 42.6662 32.1607C42.7118 33.3468 42.6053 34.6012 42.3088 35.9393C42.5597 35.5592 42.8258 35.1714 43.0615 34.7837L43.0539 34.7761ZM41.9819 24.4591C41.1456 23.0146 40.2409 21.897 39.5566 21.1519C38.9788 20.5361 38.5607 20.1787 38.4466 20.0723C38.4238 20.0419 38.3934 20.0267 38.3706 19.9963C36.5991 18.3845 35.0102 16.2329 33.9914 14.0737C33.1931 12.3555 32.3492 9.78572 32.9042 7.2616C33.1779 6.00714 33.6265 5.13282 34.1967 4.76788C36.3026 6.07556 38.1349 7.66454 39.6631 9.51962C40.4081 10.4244 41.0772 11.3671 41.6626 12.3859C42.1568 13.2222 42.5977 14.0965 42.9779 15.0012C42.9855 15.0164 42.9931 15.0392 43.0007 15.0545C43.1756 15.4726 43.3352 15.8908 43.4797 16.3241C43.5101 16.4153 43.5405 16.5142 43.5709 16.6054C43.7077 17.0236 43.837 17.4417 43.9434 17.8675C44.0651 18.3389 44.1867 18.8102 44.2704 19.2892C44.3616 19.753 44.4376 20.2243 44.4984 20.7033C44.5517 21.1747 44.5897 21.6537 44.6201 22.1174C44.6505 22.5584 44.6581 23.007 44.6505 23.4555C44.6505 24.1854 44.6049 24.9229 44.5136 25.6527C44.4984 25.858 44.468 26.0633 44.4376 26.2686C44.354 26.8464 44.2475 27.4014 44.1183 27.9792C44.0575 28.2377 43.989 28.5038 43.913 28.7623C43.8902 28.8687 43.8598 28.9828 43.8294 29.0816C43.4569 27.485 42.8486 25.934 41.9819 24.4591Z" fill="url(#paint5_linear_3757_76685)" fill-opacity="0.5"/>
</g>
<g id="Group_3">
<path id="Vector_9" opacity="0.4" d="M2.61179 27.2343C3.44809 26.8313 4.65694 26.6108 6.39797 26.7933C11.8036 27.3635 15.8862 32.1913 17.3688 36.5401C17.3688 36.5401 17.3764 36.5933 17.4144 36.6845C17.498 36.905 17.6729 37.3992 18.0074 38.0454C18.973 39.9309 21.2082 43.1089 25.7166 44.599C26.8799 45.002 28.2028 45.2757 29.7005 45.3821C23.968 46.8114 18.1975 46.3401 13.3925 44.2645C13.058 44.1201 12.7311 43.968 12.4042 43.816C10.4427 42.8732 8.67881 41.6416 7.16585 40.159C6.91496 39.9157 6.66407 39.6648 6.42838 39.4063C6.2003 39.1706 5.97982 38.9122 5.76694 38.6537C5.73653 38.6156 5.71372 38.5852 5.67571 38.5548C5.47804 38.3039 5.27276 38.0378 5.08269 37.7717C4.86981 37.4904 4.66454 37.1939 4.47447 36.8898C4.26919 36.5933 4.08673 36.2892 3.91946 35.9775C3.737 35.6734 3.56213 35.3541 3.41008 35.0195C3.25042 34.7078 3.09836 34.3733 2.95391 34.0388L2.9311 33.9932C2.76384 33.5978 2.61939 33.1873 2.47494 32.7843L2.45973 32.7539C2.31528 32.3129 2.18603 31.8948 2.07959 31.4538C2.02637 31.2333 1.97315 31.0205 1.91993 30.8C1.77548 30.1461 1.66904 29.4923 1.59301 28.8233C1.59301 28.7168 1.58541 28.618 1.60822 28.5191C1.61582 28.4431 1.62342 28.3747 1.66144 28.2987C1.66144 28.2378 1.69185 28.1846 1.71466 28.1238C1.78308 27.9717 1.87432 27.8273 1.98836 27.6904C2.06439 27.5992 2.15562 27.5308 2.25445 27.4472C2.36089 27.3559 2.47494 27.2951 2.60418 27.2267L2.61179 27.2343Z" fill="black" fill-opacity="0.5"/>
<path id="Vector_10" opacity="0.4" d="M2.26048 27.4472C2.16165 27.5232 2.07802 27.5992 1.99439 27.6904C1.88035 27.8197 1.78151 27.9641 1.72069 28.1238C1.69028 28.1846 1.66747 28.2378 1.66747 28.2987C1.62945 28.3747 1.62185 28.4431 1.61425 28.5191C1.60664 28.618 1.59904 28.7244 1.61425 28.8233C1.68267 29.4923 1.78911 30.1385 1.92596 30.8C1.97918 31.0205 2.0324 31.2333 2.08562 31.4538C2.19206 31.8948 2.32131 32.3205 2.46576 32.7539L2.48097 32.7843C2.62542 33.1873 2.77747 33.5978 2.93713 33.9932L2.95994 34.0388C3.10439 34.3733 3.25645 34.7002 3.41611 35.0195C3.56816 35.3464 3.74303 35.6734 3.92549 35.9775C4.09276 36.2892 4.27522 36.5933 4.4805 36.8898C4.67057 37.1939 4.87584 37.4904 5.08872 37.7717C5.27879 38.0378 5.48407 38.3039 5.68174 38.5548C5.71975 38.5852 5.75016 38.6233 5.77297 38.6537C5.98585 38.9122 6.19873 39.1706 6.43441 39.4063C6.6777 39.6648 6.9286 39.9157 7.17188 40.159C8.69244 41.6416 10.4563 42.8656 12.4102 43.816C12.7371 43.968 13.064 44.1201 13.3986 44.2645C18.2035 46.3401 23.974 46.8114 29.7065 45.3821C28.2088 45.2757 26.8859 44.9944 25.7227 44.599C21.2142 43.1089 18.979 39.9309 18.0135 38.0454C17.6865 37.3916 17.5041 36.905 17.4204 36.6845C17.3824 36.5933 17.3748 36.5401 17.3748 36.5401C15.8923 32.1913 11.802 27.3635 6.404 26.7933C4.66297 26.6108 3.46173 26.8313 2.61782 27.2343C2.48857 27.3027 2.36692 27.3635 2.26809 27.4548L2.26048 27.4472ZM6.03907 28.2607C8.73046 28.5496 10.8136 30.0777 12.0909 31.317C13.7027 32.8603 15.0256 34.9131 15.7402 36.981L15.7858 37.0875C15.8315 37.2167 15.9835 37.7033 16.3028 38.38C16.7134 39.2543 17.39 40.4631 18.462 41.6872C19.5188 42.8808 20.7276 43.8844 22.0885 44.6827C22.0885 44.6903 22.1114 44.7055 22.1266 44.7131C19.5568 44.5914 17.0555 44.0592 14.7595 43.1317C14.653 43.0937 14.5618 43.0633 14.463 43.0253C14.1132 42.8808 13.7787 42.7364 13.4594 42.5691C13.0336 42.3638 12.6155 42.1585 12.2277 41.9153C11.84 41.71 11.4675 41.4819 11.1177 41.2386C10.5247 40.8509 9.9545 40.4327 9.41471 39.9765C9.25505 39.8473 9.11059 39.7257 8.95854 39.5888C8.54038 39.2239 8.15264 38.8361 7.7725 38.4332C7.60524 38.2507 7.43038 38.053 7.27072 37.8554C7.20229 37.7793 7.12627 37.6957 7.06544 37.6197C6.404 36.8214 5.81859 35.9699 5.3168 35.0651C5.0203 34.5177 4.7466 33.9627 4.4957 33.3773C3.84186 31.834 3.43131 30.207 3.24885 28.5344C3.68981 28.3367 4.54132 28.1162 6.03147 28.2759L6.03907 28.2607Z" fill="url(#paint6_linear_3757_76685)" fill-opacity="0.5"/>
<path id="Vector_11" opacity="0.6" d="M2.47656 32.7773C3.37369 33.7201 4.33164 34.4652 5.32761 35.0506C9.1442 37.3238 13.3638 37.263 15.7434 36.9817C16.5341 36.8752 17.1423 36.7536 17.4236 36.6776C17.5605 36.6548 17.6289 36.6396 17.6289 36.6396C22.7912 35.4079 29.8162 35.788 33.2374 39.3538C34.7656 40.9503 34.9633 42.22 34.7048 43.1399C34.682 43.2312 34.6515 43.3148 34.5907 43.3984C34.5527 43.4745 34.5071 43.5505 34.4463 43.6113C34.3094 43.7634 34.1422 43.8926 33.9445 43.9762H33.9369C32.538 44.5769 31.1239 45.0406 29.7097 45.3828C23.9772 46.8121 18.2067 46.3407 13.4018 44.2652C13.0672 44.1207 12.7403 43.9686 12.4134 43.8166C10.4671 42.8662 8.70324 41.6422 7.17508 40.1596C6.92419 39.9164 6.6733 39.6655 6.43761 39.407C6.20953 39.1713 5.98905 38.9128 5.77617 38.6543C5.74576 38.6163 5.72295 38.5859 5.68494 38.5555C5.48726 38.3046 5.28199 38.0385 5.09192 37.7724C4.87904 37.4911 4.67377 37.1946 4.4837 36.8905C4.27842 36.5939 4.09596 36.2898 3.92869 35.9781C3.74623 35.674 3.57136 35.3547 3.41931 35.0202C3.25965 34.7085 3.10759 34.3739 2.96314 34.0394L2.94033 33.9938C2.77307 33.5984 2.62862 33.1879 2.48417 32.7849L2.47656 32.7773Z" fill="url(#paint7_linear_3757_76685)" fill-opacity="0.5"/>
<path id="Vector_12" d="M2.93057 33.984L2.95337 34.0296C3.09783 34.3642 3.24988 34.6911 3.40954 35.0104C3.5616 35.3373 3.73646 35.6642 3.91893 35.9683C4.08619 36.2801 4.26866 36.5842 4.47393 36.8807C4.664 37.1848 4.86928 37.4813 5.08216 37.7626C5.27222 38.0287 5.4775 38.2948 5.67517 38.5457C5.71319 38.5761 5.7436 38.6141 5.76641 38.6445C5.97928 38.903 6.19216 39.1615 6.42785 39.3972C6.67114 39.6557 6.92203 39.9066 7.16532 40.1499C8.69348 41.6248 10.4573 42.8565 12.4036 43.8068C12.7306 43.9589 13.0575 44.1109 13.392 44.2554C18.197 46.3309 23.9675 46.8023 29.7 45.373C31.1141 45.0309 32.5282 44.5595 33.9271 43.9665H33.9347C34.1324 43.8752 34.2997 43.746 34.4365 43.6015C34.5049 43.5407 34.5505 43.4647 34.581 43.3887C34.6342 43.305 34.6722 43.2214 34.695 43.1302C34.9459 42.2102 34.7482 40.9406 33.2277 39.344C29.8064 35.7783 22.7814 35.3981 17.6191 36.6298C17.6191 36.6298 17.5507 36.645 17.4139 36.6678C17.1326 36.7438 16.5319 36.8655 15.7337 36.9719C13.354 37.2608 9.13444 37.314 5.31784 35.0408C4.32188 34.4554 3.36393 33.7103 2.4668 32.7676C2.61125 33.1705 2.76331 33.5811 2.92296 33.9764L2.93057 33.984ZM12.0387 38.5685C13.7569 38.6673 15.2547 38.5305 16.3039 38.3784C17.1782 38.2416 17.7408 38.0971 17.9005 38.0667C17.9385 38.0667 17.9689 38.0515 18.0069 38.0439C20.4702 37.4813 23.2528 37.3445 25.6705 37.6714C27.594 37.9375 30.2246 38.6217 31.9352 40.3932C32.7791 41.2751 33.2049 42.0962 33.1364 42.7424C30.7111 43.7308 28.225 44.3542 25.7237 44.6051C24.5073 44.7268 23.2984 44.7572 22.0896 44.6887C21.086 44.6431 20.0901 44.5367 19.1093 44.3618C19.0865 44.3618 19.0713 44.3618 19.0485 44.3542C18.5999 44.2706 18.1513 44.1794 17.7028 44.0653C17.6039 44.0425 17.5127 44.0121 17.4139 43.9893C16.9881 43.8752 16.5624 43.7612 16.1366 43.6244C15.6728 43.4723 15.2091 43.3202 14.7605 43.1378C14.3195 42.9629 13.8862 42.7728 13.4604 42.5752C13.0423 42.3699 12.6241 42.1494 12.2288 41.9213C11.8486 41.7085 11.4837 41.4804 11.1188 41.2447C10.5257 40.8569 9.95554 40.4388 9.41574 39.9826C9.26369 39.861 9.11163 39.7317 8.95957 39.5949C8.54142 39.2299 8.15368 38.8422 7.77354 38.4393C7.60628 38.2568 7.43142 38.0591 7.27176 37.8614C7.20333 37.7854 7.1273 37.7018 7.06648 37.6258C8.60985 38.1732 10.2673 38.5001 12.0311 38.5913L12.0387 38.5685Z" fill="url(#paint8_linear_3757_76685)" fill-opacity="0.5"/>
</g>
</g>
<defs>
<linearGradient id="paint0_linear_3757_76685" x1="29.5286" y1="0.994431" x2="-0.950993" y2="15.2116" gradientUnits="userSpaceOnUse">
<stop stop-color="#211815"/>
<stop offset="1" stop-color="#211815" stop-opacity="0"/>
</linearGradient>
<linearGradient id="paint1_linear_3757_76685" x1="0.492397" y1="12.429" x2="24.5704" y2="12.429" gradientUnits="userSpaceOnUse">
<stop stop-color="#211815"/>
<stop offset="1" stop-color="#211815" stop-opacity="0"/>
</linearGradient>
<linearGradient id="paint2_linear_3757_76685" x1="3.0606" y1="16.9694" x2="24.1735" y2="5.04065" gradientUnits="userSpaceOnUse">
<stop stop-color="#211815"/>
<stop offset="1" stop-color="#211815" stop-opacity="0"/>
</linearGradient>
<linearGradient id="paint3_linear_3757_76685" x1="38.9434" y1="39.7025" x2="42.4764" y2="6.24935" gradientUnits="userSpaceOnUse">
<stop stop-color="#211815"/>
<stop offset="1" stop-color="#211815" stop-opacity="0"/>
</linearGradient>
<linearGradient id="paint4_linear_3757_76685" x1="44.1153" y1="8.91958" x2="31.6995" y2="29.5585" gradientUnits="userSpaceOnUse">
<stop stop-color="#211815"/>
<stop offset="1" stop-color="#211815" stop-opacity="0"/>
</linearGradient>
<linearGradient id="paint5_linear_3757_76685" x1="43.3633" y1="16.5424" x2="35.1957" y2="21.1669" gradientUnits="userSpaceOnUse">
<stop stop-color="#211815"/>
<stop offset="1" stop-color="#211815" stop-opacity="0"/>
</linearGradient>
<linearGradient id="paint6_linear_3757_76685" x1="1.46058" y1="28.0393" x2="24.4071" y2="50.6745" gradientUnits="userSpaceOnUse">
<stop stop-color="#211815"/>
<stop offset="1" stop-color="#211815" stop-opacity="0"/>
</linearGradient>
<linearGradient id="paint7_linear_3757_76685" x1="23.2602" y1="48.4539" x2="14.4421" y2="27.6091" gradientUnits="userSpaceOnUse">
<stop stop-color="#211815"/>
<stop offset="1" stop-color="#211815" stop-opacity="0"/>
</linearGradient>
<linearGradient id="paint8_linear_3757_76685" x1="17.5207" y1="43.8252" x2="18.1003" y2="34.784" gradientUnits="userSpaceOnUse">
<stop stop-color="#211815"/>
<stop offset="1" stop-color="#211815" stop-opacity="0"/>
</linearGradient>
</defs>
</svg>
