<svg width="46" height="46" viewBox="0 0 46 46" fill="none" xmlns="http://www.w3.org/2000/svg">
<g clip-path="url(#clip0_4219_94948)">
<path d="M0.326172 18.9197C5.25749 10.5454 14.3217 11.472 14.3217 11.472C19.253 11.7791 25.7547 10.022 28.5824 5.5918C29.495 4.16315 29.7761 3.04426 29.739 2.18173C29.7098 1.49811 29.2403 0.907953 28.5824 0.737049C26.7547 0.259051 24.8395 0.00269392 22.8633 2.35367e-05C11.6133 -0.0159988 2.24936 8.15003 0.326172 18.9197Z" fill="#9CD298"/>
<path d="M4.21764 12.5855C5.46705 10.3344 7.11701 8.30491 9.10387 6.61723C12.9449 3.35669 17.8312 1.56487 22.8606 1.57288C24.6591 1.57288 26.4497 1.8052 28.1792 2.2565C28.1978 2.71313 28.0546 3.51425 27.2694 4.74262C25.8608 6.94836 23.4654 8.18474 21.7041 8.83098C19.4572 9.65612 16.8125 10.0487 14.4384 9.90447C14.0935 9.87509 11.7061 9.70686 8.74841 10.5427C7.10906 11.0073 5.58907 11.6936 4.21499 12.5882L4.21764 12.5855ZM0.326172 18.9197C5.25749 10.5454 14.3217 11.472 14.3217 11.472C19.253 11.7791 25.7547 10.022 28.5824 5.5918C29.495 4.16315 29.7761 3.04426 29.739 2.18173C29.7284 1.93338 29.6594 1.69572 29.5427 1.48743C29.3411 1.12425 28.9989 0.846535 28.5798 0.737049C26.7547 0.259051 24.8395 0.00269392 22.8633 2.35367e-05C11.6133 -0.0159988 2.24936 8.15003 0.326172 18.9197Z" fill="#69C481"/>
<path opacity="0.7" d="M22.8979 2.54233e-05C10.2685 -0.0186673 0.0185687 10.273 0 22.9867V22.992C0 23.3739 0.18834 23.7344 0.501355 23.948C1.31307 24.5008 2.65798 24.7945 4.87296 24.0628C9.84407 22.4206 13.1679 16.5297 14.1149 11.6482C14.1149 11.6482 15.4545 2.91875 24.2879 0.0454219C23.829 0.0160477 23.3647 2.54233e-05 22.8979 2.54233e-05Z" fill="#009B2F"/>
<path d="M1.56508 22.749C1.63405 17.1092 3.85168 11.8218 7.82538 7.83225C10.5656 5.08176 13.9186 3.17244 17.5713 2.23513C16.3909 3.3567 15.3722 4.66518 14.534 6.1419C13.0591 8.74553 12.6373 11.0287 12.579 11.3652C12.1201 13.7124 11.0776 16.1932 9.71939 18.172C8.65302 19.7235 6.86246 21.7449 4.38752 22.5647C3.16729 22.968 2.17784 23.0294 1.56508 22.7463V22.749ZM0.145897 23.5528C0.230783 23.7077 0.352805 23.8439 0.504008 23.9453C1.31573 24.4981 2.66063 24.7918 4.87561 24.0602C9.84672 22.4179 13.1705 16.527 14.1175 11.6456C14.1175 11.6456 15.4571 2.91608 24.2905 0.0427515C23.829 0.0160477 23.3647 2.54233e-05 22.8979 2.54233e-05C10.2685 -0.0186672 0.0185687 10.273 0 22.9867C0 22.9867 0 22.9893 0 22.992C0 23.1923 0.0504008 23.3846 0.145897 23.5555V23.5528Z" fill="url(#paint0_linear_4219_94948)"/>
<path d="M42.0402 35.9994C44.356 26.5463 37.2442 20.813 37.2442 20.813C33.5119 17.5524 30.1005 11.7123 31.1669 6.5558C31.5091 4.89482 32.09 3.8961 32.7161 3.30861C33.2148 2.8413 33.9575 2.7505 34.5491 3.09498C36.1858 4.04564 37.7296 5.21259 39.1408 6.60653C47.1758 14.5322 48.1679 26.9629 42.0429 36.0021L42.0402 35.9994Z" fill="#9CD298"/>
<path d="M43.6741 28.7371C43.316 27.1295 42.7112 25.5673 41.865 24.0799C40.3371 21.3962 38.5173 19.834 38.2521 19.6097C36.4589 18.0395 34.8434 15.8926 33.8168 13.7189C33.013 12.0152 32.1642 9.44358 32.6947 6.87734C32.9892 5.44869 33.4454 4.77575 33.777 4.46332C35.3235 5.36323 36.7613 6.46076 38.0452 7.72919C41.6395 11.2728 43.8757 15.9994 44.3453 21.033C44.5866 23.6393 44.3532 26.251 43.6768 28.7371H43.6741ZM42.0427 36.0005C48.1704 26.9613 47.1757 14.5307 39.1407 6.60496C37.7295 5.21369 36.1856 4.04407 34.5489 3.09341C34.1749 2.87711 33.7372 2.83171 33.3393 2.95188C33.1112 3.01864 32.8963 3.13881 32.7159 3.30971C32.0899 3.89719 31.509 4.89592 31.1668 6.5569C30.1004 11.7134 33.5144 17.5535 37.2441 20.8141C37.2441 20.8141 44.3559 26.5474 42.0401 36.0005H42.0427Z" fill="#69C481"/>
<path opacity="0.7" d="M39.1138 6.5808C48.1329 15.4785 48.2788 30.0535 39.4401 39.1328H39.4374C39.1722 39.4105 38.7875 39.5333 38.4135 39.4639C37.4506 39.285 36.2861 38.5453 35.2144 36.4624C32.8137 31.7839 34.5433 25.2361 37.2649 21.0863C37.2649 21.0863 42.3872 13.9137 38.0872 5.63281C38.4347 5.93724 38.7769 6.25234 39.1112 6.5808H39.1138Z" fill="#009B2F"/>
<path d="M38.4908 37.859C37.8568 37.6293 37.1936 36.887 36.6047 35.7387C35.4084 33.4075 35.5384 30.7024 35.8593 28.8438C36.2679 26.4725 37.252 23.9677 38.5598 21.9702C38.7534 21.6898 40.0426 19.7645 40.8039 16.8644C41.2363 15.2195 41.4194 13.5665 41.3583 11.9349C43.3134 15.1821 44.3744 18.9073 44.4142 22.8034C44.4699 28.4512 42.369 33.7893 38.4935 37.859H38.4908ZM38.9444 39.4345C39.1301 39.3784 39.2999 39.277 39.4405 39.1354H39.4431C48.2818 30.0508 48.1359 15.4785 39.1168 6.5808C38.7826 6.25234 38.4404 5.93724 38.0929 5.63281C42.3929 13.9137 37.2706 21.0863 37.2706 21.0863C34.5463 25.2361 32.8167 31.7839 35.2201 36.4624C36.2917 38.5479 37.4563 39.285 38.4192 39.4639C38.5969 39.4959 38.7773 39.4852 38.9471 39.4372L38.9444 39.4345Z" fill="url(#paint1_linear_4219_94948)"/>
<path d="M2.2832 32.7031C9.16689 39.5393 17.7005 36.3215 17.7005 36.3215C22.3931 34.762 29.1229 34.7967 32.9799 38.3537C34.224 39.5019 34.7784 40.5113 34.9588 41.3552C35.1021 42.0254 34.7997 42.7144 34.2055 43.0509C32.5582 43.9801 30.7703 44.7198 28.8603 45.2272C17.9844 48.1246 6.86702 42.6263 2.2832 32.7058V32.7031Z" fill="#9CD298"/>
<path d="M7.64635 37.8315C9.20082 38.3442 10.8428 38.6193 12.5458 38.6486C15.6176 38.6994 17.883 37.925 18.2093 37.8075C20.4667 37.0598 23.1247 36.7607 25.5068 36.985C27.3743 37.1612 30.0004 37.7407 31.921 39.5138C32.99 40.4992 33.3322 41.2389 33.4277 41.6849C31.8679 42.5634 30.1967 43.2444 28.4566 43.7063C23.5942 45.0015 18.4162 44.5208 13.8775 42.3525C11.5299 41.2309 9.41834 39.6901 7.64105 37.8342L7.64635 37.8315ZM2.27734 32.707C6.86116 42.6302 17.9785 48.1258 28.8545 45.2285C30.7644 44.7184 32.5523 43.9814 34.1996 43.0521C34.5763 42.8385 34.8363 42.4833 34.9397 42.0801C34.9981 41.8478 35.006 41.6021 34.953 41.3591C34.7699 40.5152 34.2155 39.5058 32.9741 38.3576C29.1171 34.8006 22.3873 34.7659 17.6947 36.3254C17.6947 36.3254 9.16368 39.5432 2.27734 32.707Z" fill="#69C481"/>
<path opacity="0.7" d="M28.8912 45.2189C16.6836 48.4714 4.16563 41.1439 0.937331 28.8548V28.8494C0.839182 28.4809 0.929373 28.083 1.17872 27.7973C1.82332 27.0549 3.05151 26.4274 5.37791 26.5663C10.5984 26.8814 15.3042 31.7254 17.4555 36.2037C17.4555 36.2037 20.9571 44.3029 30.2255 44.8183C29.7878 44.9625 29.3421 45.0987 28.8912 45.2189Z" fill="#009B2F"/>
<path d="M2.51134 28.6826C3.03126 28.2527 4.00479 28.0578 5.28603 28.1352C7.8883 28.2928 10.1298 29.7882 11.5516 31.0166C13.3661 32.5841 15.0028 34.715 16.0373 36.8674C16.1779 37.1798 17.1647 39.2787 19.247 41.4177C20.4301 42.6327 21.7459 43.6368 23.1704 44.4192C19.3983 44.4486 15.6766 43.4632 12.3289 41.5031C7.47714 38.6645 3.99683 34.1169 2.50603 28.68L2.51134 28.6826ZM0.930342 28.2634C0.882594 28.453 0.882594 28.6533 0.930342 28.8455V28.8509C4.1613 41.14 16.6793 48.4675 28.8869 45.215C29.3378 45.0948 29.7835 44.9586 30.2212 44.8144C20.9527 44.299 17.4512 36.1998 17.4512 36.1998C15.3025 31.7215 10.5967 26.8775 5.37357 26.5624C3.04718 26.4235 1.81899 27.051 1.17439 27.7934C1.05502 27.9296 0.972785 28.0925 0.92769 28.2634H0.930342Z" fill="url(#paint2_linear_4219_94948)"/>
</g>
<defs>
<linearGradient id="paint0_linear_4219_94948" x1="2.68716" y1="16.8955" x2="23.7509" y2="4.71761" gradientUnits="userSpaceOnUse">
<stop offset="0.01" stop-color="#00583D"/>
<stop offset="0.15" stop-color="#007656"/>
<stop offset="0.77" stop-color="#19AC5D" stop-opacity="0.7"/>
</linearGradient>
<linearGradient id="paint1_linear_4219_94948" x1="43.786" y1="21.9011" x2="34.0697" y2="23.138" gradientUnits="userSpaceOnUse">
<stop offset="0.01" stop-color="#00583D"/>
<stop offset="0.15" stop-color="#007656"/>
<stop offset="0.77" stop-color="#19AC5D" stop-opacity="0.7"/>
</linearGradient>
<linearGradient id="paint2_linear_4219_94948" x1="13.529" y1="41.3599" x2="17.4713" y2="32.3347" gradientUnits="userSpaceOnUse">
<stop offset="0.01" stop-color="#00583D"/>
<stop offset="0.15" stop-color="#007656"/>
<stop offset="0.77" stop-color="#19AC5D" stop-opacity="0.7"/>
</linearGradient>
<clipPath id="clip0_4219_94948">
<rect width="46" height="46" fill="white"/>
</clipPath>
</defs>
</svg>
