<svg width="19" height="19" viewBox="0 0 19 19" fill="none" xmlns="http://www.w3.org/2000/svg">
<path d="M15.5469 8.07498H10.625C10.1774 8.07498 9.74822 7.89719 9.43176 7.58072C9.11529 7.26426 8.9375 6.83503 8.9375 6.38748V1.46561C8.9375 1.42831 8.92268 1.39254 8.89631 1.36617C8.86994 1.3398 8.83417 1.32498 8.79688 1.32498H5.5625C4.96576 1.32498 4.39347 1.56203 3.97151 1.98399C3.54955 2.40595 3.3125 2.97824 3.3125 3.57498V14.825C3.3125 15.4217 3.54955 15.994 3.97151 16.416C4.39347 16.8379 4.96576 17.075 5.5625 17.075H13.4375C14.0342 17.075 14.6065 16.8379 15.0285 16.416C15.4504 15.994 15.6875 15.4217 15.6875 14.825V8.21561C15.6875 8.17831 15.6727 8.14254 15.6463 8.11617C15.6199 8.0898 15.5842 8.07498 15.5469 8.07498Z" fill="#A7ADB2"/>
<path d="M15.2382 6.83011L10.1824 1.77429C10.1726 1.76452 10.16 1.75787 10.1464 1.75518C10.1328 1.75249 10.1188 1.75388 10.1059 1.75918C10.0931 1.76448 10.0822 1.77344 10.0744 1.78495C10.0667 1.79646 10.0626 1.81 10.0625 1.82386V6.3875C10.0625 6.53668 10.1218 6.67975 10.2273 6.78524C10.3327 6.89073 10.4758 6.95 10.625 6.95H15.1886C15.2025 6.94994 15.216 6.94578 15.2275 6.93805C15.2391 6.93032 15.248 6.91936 15.2533 6.90655C15.2586 6.89374 15.26 6.87965 15.2573 6.86605C15.2546 6.85245 15.248 6.83994 15.2382 6.83011Z" fill="#A7ADB2"/>
</svg>
