<svg width="83" height="70" viewBox="0 0 83 70" fill="none" xmlns="http://www.w3.org/2000/svg">
<rect x="0.489746" width="57" height="13" rx="2" fill="#E1E7EE"/>
<rect x="0.489746" y="17" width="57" height="14" rx="2" fill="#E1E7EE"/>
<rect x="0.489746" y="34" width="57" height="14" rx="2" fill="#E1E7EE"/>
<circle cx="7.98975" cy="6.5" r="3.5" fill="#B2B9C8"/>
<circle cx="17.9897" cy="6.5" r="3.5" fill="#B2B9C8"/>
<circle cx="27.9897" cy="6.5" r="3.5" fill="#B2B9C8"/>
<circle cx="7.98975" cy="23.5" r="3.5" fill="#B2B9C8"/>
<ellipse cx="7.98975" cy="41" rx="3.5" ry="3" fill="#B2B9C8"/>
<ellipse cx="17.9897" cy="41" rx="3.5" ry="3" fill="#B2B9C8"/>
<g filter="url(#filter0_d_9498_109352)">
<ellipse cx="18" cy="18.5" rx="18" ry="18.5" transform="matrix(-1 0 0 1 67.4897 14)" fill="#FAFBFD"/>
</g>
<path d="M31.4897 32.5C31.4897 36.3295 32.646 40.0647 34.7991 43.1901C36.9522 46.3156 39.9959 48.6773 43.5103 49.9494C47.0247 51.2216 50.8366 51.3414 54.4202 50.2925C58.0037 49.2435 61.1822 47.0775 63.5171 44.0931C65.852 41.1088 67.2283 37.4533 67.4561 33.6309C67.6839 29.8086 66.7519 26.0078 64.7888 22.7529C62.8256 19.498 59.9281 16.9495 56.4959 15.4589C53.0637 13.9683 49.266 13.6092 45.6268 14.431L49.4897 32.5H31.4897Z" fill="#1DA76D"/>
<path d="M31.4897 32.5C31.4897 35.8396 32.3693 39.117 34.0352 41.9844C35.701 44.8517 38.091 47.2022 40.9516 48.7863C43.8122 50.3704 47.0366 51.1292 50.2828 50.982C53.5291 50.8349 56.676 49.7873 59.3898 47.9505C62.1035 46.1137 64.2829 43.5562 65.6967 40.5492C67.1105 37.5422 67.7059 34.198 67.4199 30.8713C67.1338 27.5447 65.9769 24.3596 64.0719 21.6541C62.1669 18.9486 59.5848 16.8235 56.5997 15.5044L49.4897 32.5H31.4897Z" fill="#10CF83"/>
<defs>
<filter id="filter0_d_9498_109352" x="16.4897" y="3" width="66" height="67" filterUnits="userSpaceOnUse" color-interpolation-filters="sRGB">
<feFlood flood-opacity="0" result="BackgroundImageFix"/>
<feColorMatrix in="SourceAlpha" type="matrix" values="0 0 0 0 0 0 0 0 0 0 0 0 0 0 0 0 0 0 127 0" result="hardAlpha"/>
<feOffset dy="4"/>
<feGaussianBlur stdDeviation="7.5"/>
<feComposite in2="hardAlpha" operator="out"/>
<feColorMatrix type="matrix" values="0 0 0 0 0.386051 0 0 0 0 0.416692 0 0 0 0 0.462654 0 0 0 0.2 0"/>
<feBlend mode="normal" in2="BackgroundImageFix" result="effect1_dropShadow_9498_109352"/>
<feBlend mode="normal" in="SourceGraphic" in2="effect1_dropShadow_9498_109352" result="shape"/>
</filter>
</defs>
</svg>
