<svg width="40" height="40" viewBox="0 0 40 40" fill="none" xmlns="http://www.w3.org/2000/svg">
<path d="M12.6532 27.7556C18.7396 27.7556 23.6736 22.6388 23.6736 16.327C23.6736 10.0152 18.7396 4.89844 12.6532 4.89844C6.56682 4.89844 1.63281 10.0152 1.63281 16.327C1.63281 22.6388 6.56682 27.7556 12.6532 27.7556Z" fill="#ECFCF1"/>
<mask id="mask0_9619_95167" style="mask-type:luminance" maskUnits="userSpaceOnUse" x="8" y="5" width="32" height="31">
<path d="M39.1836 5.71484H8.97949V35.1026H39.1836V5.71484Z" fill="white"/>
</mask>
<g mask="url(#mask0_9619_95167)">
<path d="M18.8848 10.7554L22.4453 5.91406L26.0035 10.7554H24.0012V34.9018H20.8894V10.7554H18.8848Z" fill="#1AD98A"/>
<path d="M22.6041 5.79531L26.1624 10.6388C26.1846 10.668 26.1981 10.703 26.2014 10.7397C26.2046 10.7763 26.1974 10.8131 26.1806 10.8458C26.1642 10.8792 26.1389 10.9073 26.1075 10.9268C26.0761 10.9463 26.0398 10.9565 26.0029 10.9561H24.1987V34.9095C24.1987 34.9625 24.1778 35.0135 24.1407 35.0509C24.1035 35.0884 24.0531 35.1095 24.0005 35.1095H20.8887C20.8362 35.1095 20.7858 35.0884 20.7487 35.0509C20.7114 35.0135 20.6905 34.9625 20.6905 34.9095V10.9561H18.8841C18.8475 10.9566 18.8114 10.9464 18.7804 10.9268C18.7493 10.9073 18.7244 10.8792 18.7087 10.8458C18.6921 10.8131 18.6848 10.7766 18.6876 10.74C18.6904 10.7035 18.7033 10.6685 18.7247 10.6388L22.2851 5.79531C22.3035 5.77012 22.3276 5.7497 22.3553 5.73572C22.383 5.72172 22.4136 5.71457 22.4447 5.71485C22.4755 5.71511 22.506 5.7225 22.5336 5.73644C22.5612 5.75039 22.5853 5.77052 22.6041 5.79531ZM20.8887 10.5561C20.9413 10.5561 20.9918 10.5772 21.0289 10.6147C21.066 10.6521 21.0869 10.7031 21.0869 10.7561V34.7026H23.8023V10.7561C23.8023 10.7299 23.8074 10.7038 23.8174 10.6796C23.8273 10.6553 23.842 10.6333 23.8604 10.6147C23.8788 10.5961 23.9007 10.5814 23.9247 10.5713C23.9487 10.5613 23.9744 10.5561 24.0005 10.5561H25.6088L22.4447 6.25047L19.2782 10.5561H20.8887Z" fill="#252636"/>
<path d="M38.366 32.5103C36.1639 30.1624 33.8647 27.9402 31.4682 25.8438C31.0308 26.492 30.5934 27.1403 30.0718 27.8368L34.2223 31.9585C34.9364 32.6904 35.6909 33.3812 36.4821 34.0275C36.9126 34.3677 37.3932 34.6895 37.9127 34.6895C38.1896 34.6875 38.4552 34.5784 38.6548 34.3846C38.8544 34.1909 38.9728 33.9273 38.9856 33.6482C38.9833 33.1999 38.6644 32.8275 38.366 32.5103Z" fill="white"/>
<path d="M37.91 34.9098C37.3268 34.9098 36.8188 34.5719 36.3564 34.2063C35.5592 33.5507 34.7986 32.8507 34.0784 32.1098L29.937 27.9835C29.9021 27.9496 29.8808 27.904 29.8771 27.8553C29.8732 27.8066 29.8873 27.7582 29.9164 27.7191C30.4359 27.0295 30.8801 26.372 31.3106 25.7353C31.3264 25.7124 31.3466 25.693 31.3701 25.6784C31.3937 25.6637 31.4199 25.6542 31.4473 25.6502C31.475 25.6464 31.5033 25.6487 31.5301 25.657C31.5568 25.6653 31.5814 25.6795 31.6022 25.6986C33.9873 27.7835 36.3154 30.0317 38.5091 32.3811C38.8349 32.7259 39.1925 33.1374 39.1925 33.673C39.1921 33.8302 39.1607 33.9858 39.1001 34.1307C39.0395 34.2755 38.9509 34.4068 38.8395 34.5167C38.5927 34.7657 38.2589 34.9068 37.91 34.9098ZM30.3333 27.8203L34.3608 31.8202C35.0707 32.5508 35.8198 33.2415 36.6047 33.8891C37.0101 34.211 37.4498 34.5075 37.9123 34.5075C38.1528 34.5006 38.3813 34.4001 38.5501 34.2271C38.6229 34.1538 38.6805 34.0667 38.7196 33.9708C38.7588 33.875 38.7786 33.7721 38.7779 33.6684C38.7779 33.28 38.4977 32.9512 38.213 32.6478C36.0762 30.372 33.8164 28.1881 31.4974 26.1491C31.1421 26.6847 30.7639 27.2387 30.3333 27.8203Z" fill="#252636"/>
<path d="M24.6707 12.6484C22.9635 12.6479 21.2945 13.1584 19.8748 14.1152C18.4551 15.072 17.3484 16.4322 16.6948 18.0237C16.0412 19.6152 15.8699 21.3666 16.2026 23.0564C16.5355 24.7462 17.3573 26.2983 18.5644 27.5167C19.7714 28.735 21.3093 29.5648 22.9837 29.9011C24.6582 30.2374 26.3937 30.065 27.9711 29.4058C29.5484 28.7466 30.8965 27.6302 31.845 26.1978C32.7936 24.7654 33.2999 23.0813 33.2999 21.3586C33.3001 20.2148 33.0772 19.0822 32.6436 18.0255C32.2102 16.9688 31.5746 16.0085 30.7733 15.1997C29.972 14.3908 29.0205 13.7493 27.9735 13.3115C26.9264 12.8737 25.8041 12.6484 24.6707 12.6484ZM24.6707 27.9722C23.3739 27.9726 22.106 27.5849 21.0275 26.8582C19.949 26.1313 19.1084 25.0981 18.6119 23.8891C18.1154 22.6801 17.9853 21.3497 18.2382 20.0661C18.4911 18.7825 19.1155 17.6035 20.0326 16.6781C20.9497 15.7527 22.118 15.1226 23.39 14.8673C24.662 14.6121 25.9804 14.7433 27.1784 15.2444C28.3765 15.7454 29.4004 16.5937 30.1206 17.6821C30.8409 18.7704 31.225 20.0498 31.2246 21.3586C31.2246 23.1126 30.5341 24.7948 29.305 26.035C28.076 27.2754 26.4089 27.9722 24.6707 27.9722ZM24.6707 27.9722C23.3739 27.9726 22.106 27.5849 21.0275 26.8582C19.949 26.1313 19.1084 25.0981 18.6119 23.8891C18.1154 22.6801 17.9853 21.3497 18.2382 20.0661C18.4911 18.7825 19.1155 17.6035 20.0326 16.6781C20.9497 15.7527 22.118 15.1226 23.39 14.8673C24.662 14.6121 25.9804 14.7433 27.1784 15.2444C28.3765 15.7454 29.4004 16.5937 30.1206 17.6821C30.8409 18.7704 31.225 20.0498 31.2246 21.3586C31.2246 23.1126 30.5341 24.7948 29.305 26.035C28.076 27.2754 26.4089 27.9722 24.6707 27.9722Z" fill="white"/>
<path d="M24.6702 30.2656C22.9237 30.2661 21.2163 29.7438 19.7639 28.7649C18.3116 27.7861 17.1795 26.3945 16.5109 24.7663C15.8424 23.1381 15.6673 21.3464 16.0079 19.6177C16.3486 17.8892 17.1895 16.3013 18.4245 15.055C19.6595 13.8088 21.233 12.9602 22.9459 12.6164C24.6589 12.2727 26.4344 12.4493 28.0479 13.124C29.6614 13.7987 31.0404 14.9411 32.0104 16.4067C32.9804 17.8723 33.4979 19.5953 33.4975 21.3577C33.4945 23.7194 32.5635 25.9833 30.9087 27.6532C29.2539 29.323 27.0104 30.2625 24.6702 30.2656ZM24.6702 12.8476C23.0032 12.8476 21.3736 13.3465 19.9875 14.2811C18.6015 15.2157 17.5211 16.544 16.8832 18.0982C16.2452 19.6524 16.0784 21.3626 16.4036 23.0125C16.7288 24.6624 17.5315 26.178 18.7103 27.3674C19.889 28.557 21.3909 29.367 23.0259 29.6953C24.6609 30.0234 26.3556 29.855 27.8957 29.2113C29.4358 28.5674 30.7522 27.4773 31.6784 26.0785C32.6045 24.6799 33.0988 23.0354 33.0988 21.3532C33.097 19.0972 32.2086 16.9342 30.6286 15.3384C29.0485 13.7426 26.9057 12.8444 24.6702 12.8408V12.8476ZM24.6702 28.1714C23.3342 28.1719 22.028 27.7724 20.9169 27.0236C19.8058 26.2749 18.9397 25.2104 18.4282 23.9648C17.9167 22.7193 17.7828 21.3487 18.0433 20.0263C18.3039 18.7039 18.9472 17.4892 19.8919 16.5359C20.8367 15.5825 22.0404 14.9333 23.3508 14.6704C24.6612 14.4074 26.0195 14.5426 27.2538 15.0588C28.488 15.575 29.5428 16.4489 30.2849 17.5701C31.0268 18.6914 31.4227 20.0095 31.4222 21.3577C31.4198 23.1641 30.7077 24.8958 29.4419 26.173C28.1762 27.4503 26.4602 28.1689 24.6702 28.1714ZM18.3192 21.3577C18.3196 22.6261 18.6927 23.866 19.3913 24.9203C20.09 25.9748 21.0828 26.7964 22.2441 27.2816C23.4055 27.7666 24.6833 27.8933 25.9161 27.6456C27.1488 27.3978 28.281 26.7868 29.1697 25.8897C30.0584 24.9928 30.6634 23.8499 30.9085 22.6058C31.1535 21.3618 31.0275 20.0723 30.5464 18.9005C30.0653 17.7288 29.2507 16.7272 28.2055 16.0225C27.1604 15.3179 25.9317 14.9418 24.6748 14.9418C22.9895 14.9443 21.3739 15.6211 20.1825 16.8239C18.9911 18.0266 18.321 19.6571 18.3192 21.3577Z" fill="#252636"/>
<path d="M22.333 24.8259C22.2804 24.8259 22.23 24.8048 22.1928 24.7673C22.1557 24.7298 22.1348 24.6789 22.1348 24.6259V20.2352C22.1348 20.1822 22.1557 20.1312 22.1928 20.0938C22.23 20.0563 22.2804 20.0352 22.333 20.0352C22.3855 20.0352 22.436 20.0563 22.4731 20.0938C22.5103 20.1312 22.5312 20.1822 22.5312 20.2352V24.6259C22.5312 24.6521 22.526 24.6782 22.5161 24.7024C22.5061 24.7267 22.4915 24.7487 22.4731 24.7673C22.4547 24.7859 22.4329 24.8006 22.4088 24.8107C22.3848 24.8207 22.359 24.8259 22.333 24.8259Z" fill="#252636"/>
<path d="M26.6928 24.8259C26.6402 24.8259 26.5898 24.8048 26.5527 24.7673C26.5154 24.7298 26.4946 24.6789 26.4946 24.6259V20.2352C26.4946 20.1822 26.5154 20.1312 26.5527 20.0938C26.5898 20.0563 26.6402 20.0352 26.6928 20.0352C26.7453 20.0352 26.7958 20.0563 26.8329 20.0938C26.8701 20.1312 26.891 20.1822 26.891 20.2352V24.6259C26.891 24.6789 26.8701 24.7298 26.8329 24.7673C26.7958 24.8048 26.7453 24.8259 26.6928 24.8259Z" fill="#252636"/>
<path d="M24.5131 24.8259C24.4606 24.8259 24.4102 24.8048 24.373 24.7673C24.3358 24.7298 24.3149 24.6789 24.3149 24.6259V17.5594C24.3149 17.5063 24.3358 17.4555 24.373 17.418C24.4102 17.3804 24.4606 17.3594 24.5131 17.3594C24.5657 17.3594 24.6162 17.3804 24.6533 17.418C24.6905 17.4555 24.7113 17.5063 24.7113 17.5594V24.6259C24.7113 24.6789 24.6905 24.7298 24.6533 24.7673C24.6162 24.8048 24.5657 24.8259 24.5131 24.8259Z" fill="#252636"/>
<path d="M9.17822 28.8429L12.7364 33.6842L16.297 28.8429H14.2923L14.4244 15.418H11.315L11.1829 28.8429H9.17822Z" fill="white"/>
<path d="M12.7363 33.885C12.7057 33.8848 12.6756 33.8776 12.6483 33.8636C12.621 33.8496 12.5973 33.8294 12.5792 33.8045L9.01864 28.9609C8.99741 28.9309 8.98451 28.8956 8.98125 28.8589C8.97806 28.8221 8.98468 28.7851 9.00043 28.7518C9.01725 28.719 9.0428 28.6915 9.07415 28.6724C9.10549 28.6533 9.14149 28.6434 9.17815 28.6437H10.9846L11.1167 15.4164C11.1167 15.3903 11.1218 15.3644 11.1319 15.3403C11.1418 15.3161 11.1564 15.2942 11.1749 15.2759C11.1933 15.2575 11.2152 15.243 11.2392 15.2332C11.2632 15.2234 11.289 15.2185 11.3149 15.2188H14.4244C14.4507 15.2182 14.477 15.223 14.5015 15.2329C14.526 15.2429 14.5482 15.2578 14.5667 15.2768C14.5853 15.2957 14.5999 15.3182 14.6094 15.3431C14.619 15.368 14.6235 15.3945 14.6226 15.4211L14.4927 28.6437H16.2969C16.3335 28.6434 16.3695 28.6533 16.4008 28.6724C16.4322 28.6915 16.4577 28.719 16.4746 28.7518C16.4903 28.7851 16.4969 28.8221 16.4937 28.8589C16.4905 28.8956 16.4776 28.9309 16.4563 28.9609L12.8958 33.8045C12.8774 33.8297 12.8534 33.8502 12.8257 33.8641C12.798 33.8781 12.7674 33.8853 12.7363 33.885ZM9.57219 29.0437L12.7363 33.3493L15.9028 29.0437H14.2923C14.2393 29.0427 14.1888 29.0213 14.151 28.984C14.1146 28.9456 14.0942 28.8946 14.0941 28.8414L14.2194 15.6188H11.5108L11.3809 28.8437C11.3803 28.8966 11.3593 28.9471 11.3222 28.9845C11.2852 29.0218 11.2351 29.0431 11.1827 29.0437H9.57219Z" fill="#252636"/>
</g>
</svg>
