<svg width="40" height="40" viewBox="0 0 40 40" fill="none" xmlns="http://www.w3.org/2000/svg">
<path d="M12.8971 26.6107C19.1183 26.6107 24.1615 21.5675 24.1615 15.3464C24.1615 9.12524 19.1183 4.08203 12.8971 4.08203C6.67602 4.08203 1.63281 9.12524 1.63281 15.3464C1.63281 21.5675 6.67602 26.6107 12.8971 26.6107Z" fill="#ECFCF1"/>
<mask id="mask0_9619_95186" style="mask-type:luminance" maskUnits="userSpaceOnUse" x="3" y="7" width="37" height="29">
<path d="M39.1834 7.91016H3.66016V35.3704H39.1834V7.91016Z" fill="white"/>
</mask>
<g mask="url(#mask0_9619_95186)">
<path d="M30.8861 35.3725H3.85616C3.80417 35.3725 3.75432 35.3518 3.71756 35.3151C3.6808 35.2783 3.66016 35.2285 3.66016 35.1765C3.66016 35.1245 3.6808 35.0746 3.71756 35.0379C3.75432 35.0011 3.80417 34.9805 3.85616 34.9805H30.8906C30.9426 34.9805 30.9924 35.0011 31.0292 35.0379C31.066 35.0746 31.0866 35.1245 31.0866 35.1765C31.0866 35.2285 31.066 35.2783 31.0292 35.3151C30.9924 35.3518 30.9426 35.3725 30.8906 35.3725H30.8861Z" fill="#252636"/>
<path d="M29.5796 8.10547H23.873V32.3441H29.5796V8.10547Z" fill="white"/>
<path d="M29.568 32.5408H23.8728C23.8208 32.5408 23.771 32.5201 23.7341 32.4834C23.6974 32.4466 23.6768 32.3968 23.6768 32.3448V8.10616C23.6768 8.05417 23.6974 8.00432 23.7341 7.96756C23.771 7.9308 23.8208 7.91016 23.8728 7.91016H29.568C29.62 7.91016 29.6698 7.9308 29.7066 7.96756C29.7434 8.00432 29.764 8.05417 29.764 8.10616V32.3448C29.764 32.3968 29.7434 32.4466 29.7066 32.4834C29.6698 32.5201 29.62 32.5408 29.568 32.5408ZM24.0598 32.1488H29.372V8.30215H24.0688L24.0598 32.1488Z" fill="#252636"/>
<path d="M20.225 15.8281H14.5186V32.3439H20.225V15.8281Z" fill="#1AD98A"/>
<path d="M20.223 32.5406H14.5188C14.4668 32.5406 14.417 32.52 14.3801 32.4833C14.3434 32.4464 14.3228 32.3966 14.3228 32.3446V15.8288C14.3228 15.7769 14.3434 15.727 14.3801 15.6903C14.417 15.6535 14.4668 15.6328 14.5188 15.6328H20.223C20.275 15.6328 20.3249 15.6535 20.3616 15.6903C20.3984 15.727 20.419 15.7769 20.419 15.8288V32.3446C20.419 32.3966 20.3984 32.4464 20.3616 32.4833C20.3249 32.52 20.275 32.5406 20.223 32.5406ZM14.7148 32.1486H20.027V16.0203H14.7148V32.1486Z" fill="#252636"/>
<path d="M30.1719 26.1329L34.2766 30.1701C34.9825 30.8919 35.7286 31.5734 36.5114 32.2112C36.9372 32.5446 37.4125 32.8577 37.9262 32.86C38.2001 32.858 38.4627 32.751 38.6601 32.5612C38.8576 32.3714 38.9747 32.1131 38.9873 31.8394C38.9873 31.3889 38.6697 31.0172 38.3746 30.713C36.1953 28.4151 33.9213 26.2373 31.5529 24.1797C31.1203 24.8083 30.6945 25.4503 30.1719 26.1329Z" fill="white"/>
<path d="M37.9262 33.0561C37.3495 33.0561 36.8471 32.7226 36.3898 32.3667C35.6008 31.7239 34.8487 31.0372 34.1369 30.3098L30.0345 26.2727C30 26.2394 29.979 26.1947 29.9752 26.1469C29.9715 26.0993 29.9853 26.0518 30.0142 26.0136C30.5278 25.3377 30.9671 24.6934 31.3906 24.0716C31.4061 24.0483 31.4263 24.0286 31.45 24.0138C31.4737 23.999 31.5004 23.9896 31.5281 23.9861C31.5554 23.9825 31.583 23.9847 31.6094 23.9924C31.6358 24.0002 31.6603 24.0133 31.6813 24.0311C34.0423 26.0767 36.3425 28.2777 38.5165 30.5644C38.8386 30.9023 39.1811 31.3078 39.1924 31.8305C39.1924 31.9847 39.1614 32.1372 39.1015 32.2793C39.0415 32.4213 38.9537 32.5498 38.8431 32.6573C38.6023 32.9063 38.2726 33.0497 37.9262 33.0561ZM30.431 26.1127L34.414 30.0305C35.1155 30.747 35.8564 31.4239 36.6331 32.0581C37.0342 32.3712 37.4689 32.6618 37.9262 32.6641C38.1641 32.6573 38.3902 32.5589 38.5571 32.3892C38.6289 32.3174 38.6859 32.232 38.7245 32.1381C38.7632 32.0441 38.7829 31.9434 38.7823 31.8418C38.7823 31.4611 38.5053 31.1389 38.2236 30.8415C36.1082 28.6112 33.8756 26.4687 31.5821 24.4727C31.2307 24.9998 30.8568 25.545 30.431 26.1127Z" fill="#252636"/>
<path d="M24.8372 11.2422C23.1488 11.2418 21.4981 11.7421 20.0939 12.6799C18.6899 13.6177 17.5954 14.9508 16.949 16.5107C16.3027 18.0705 16.1334 19.7871 16.4627 21.4431C16.7921 23.0992 17.6051 24.6204 18.799 25.8143C19.993 27.0082 21.5142 27.8213 23.1702 28.1505C24.8263 28.4798 26.5427 28.3106 28.1027 27.6642C29.6625 27.0179 30.9956 25.9235 31.9334 24.5193C32.8712 23.1152 33.3716 21.4646 33.3711 19.7761C33.3711 17.5128 32.472 15.3421 30.8716 13.7417C29.2712 12.1413 27.1005 11.2422 24.8372 11.2422ZM24.8372 26.2598C23.5548 26.2603 22.301 25.8804 21.2344 25.1682C20.1679 24.4561 19.3365 23.4436 18.8454 22.2588C18.3543 21.0742 18.2256 19.7704 18.4755 18.5126C18.7254 17.2547 19.3428 16.0992 20.2494 15.1921C21.1561 14.2852 22.3114 13.6674 23.5692 13.417C24.827 13.1668 26.1308 13.295 27.3156 13.7857C28.5005 14.2763 29.5134 15.1074 30.2259 16.1737C30.9384 17.24 31.3187 18.4936 31.3187 19.7761C31.3187 21.4953 30.636 23.1441 29.4205 24.36C28.205 25.5759 26.5565 26.2592 24.8372 26.2598ZM24.8372 26.2598C23.5548 26.2603 22.301 25.8804 21.2344 25.1682C20.1679 24.4561 19.3365 23.4436 18.8454 22.2588C18.3543 21.0742 18.2256 19.7704 18.4755 18.5126C18.7254 17.2547 19.3428 16.0992 20.2494 15.1921C21.1561 14.2852 22.3114 13.6674 23.5692 13.417C24.827 13.1668 26.1308 13.295 27.3156 13.7857C28.5005 14.2763 29.5134 15.1074 30.2259 16.1737C30.9384 17.24 31.3187 18.4936 31.3187 19.7761C31.3187 21.4953 30.636 23.1441 29.4205 24.36C28.205 25.5759 26.5565 26.2592 24.8372 26.2598Z" fill="white"/>
<path d="M24.8369 28.5072C23.1097 28.5076 21.4212 27.9959 19.985 27.0367C18.5487 26.0774 17.4291 24.7138 16.7678 23.1182C16.1066 21.5227 15.9334 19.7669 16.27 18.0729C16.6067 16.3789 17.4382 14.8227 18.6593 13.6013C19.8804 12.3799 21.4363 11.548 23.1303 11.2109C24.8242 10.8738 26.5801 11.0466 28.1758 11.7075C29.7715 12.3683 31.1354 13.4875 32.095 14.9236C33.0546 16.3596 33.5668 18.048 33.5668 19.7751C33.5644 22.0898 32.6439 24.3092 31.0074 25.9462C29.3708 27.5832 27.1517 28.5042 24.8369 28.5072ZM24.8369 11.4372C23.1882 11.4372 21.5767 11.9261 20.2059 12.842C18.8351 13.7579 17.7667 15.0598 17.1358 16.5829C16.5049 18.1061 16.3398 19.7821 16.6615 21.3991C16.9831 23.016 17.777 24.5013 18.9427 25.667C20.1085 26.8328 21.5937 27.6267 23.2107 27.9483C24.8277 28.2699 26.5037 28.1049 28.0268 27.4739C29.55 26.8431 30.8518 25.7747 31.7677 24.4039C32.6837 23.0331 33.1725 21.4214 33.1725 19.7729C33.1696 17.563 32.2904 15.4445 30.7278 13.8819C29.1652 12.3194 27.0467 11.4402 24.8369 11.4372ZM24.8369 26.4548C23.5157 26.4553 22.224 26.0639 21.1252 25.3302C20.0265 24.5965 19.17 23.5534 18.664 22.3329C18.158 21.1124 18.0255 19.7692 18.2829 18.4733C18.5404 17.1774 19.1765 15.987 20.1105 15.0526C21.0447 14.1182 22.2349 13.4818 23.5307 13.2239C24.8265 12.9659 26.1696 13.0981 27.3904 13.6036C28.611 14.1091 29.6545 14.9653 30.3885 16.0638C31.1226 17.1623 31.5144 18.4538 31.5144 19.7751C31.5127 21.5458 30.8086 23.2434 29.5567 24.4956C28.305 25.7479 26.6075 26.4525 24.8369 26.4548ZM18.5447 19.7751C18.5447 21.0179 18.9131 22.2329 19.6034 23.2664C20.2938 24.3 21.2751 25.1056 22.4232 25.5815C23.5713 26.0574 24.8348 26.1823 26.0539 25.9403C27.273 25.6983 28.393 25.1004 29.2723 24.222C30.1516 23.3436 30.7508 22.2243 30.994 21.0054C31.2373 19.7867 31.1138 18.5231 30.6391 17.3744C30.1644 16.2258 29.3598 15.2436 28.3271 14.5521C27.2944 13.8607 26.0798 13.4909 24.8369 13.4896C23.1695 13.4902 21.5704 14.1524 20.3906 15.3308C19.2109 16.5093 18.547 18.1076 18.5447 19.7751Z" fill="#252636"/>
<path d="M23.6702 18.0972C23.385 18.0562 23.1221 17.9195 22.9248 17.7095C22.7275 17.4995 22.6074 17.2287 22.5843 16.9414C22.5729 16.6545 22.6363 16.3694 22.7682 16.1143C22.9001 15.8592 23.096 15.6427 23.3367 15.4861C23.8251 15.178 24.4077 15.0549 24.9791 15.1391C25.3446 15.1765 25.698 15.2912 26.0157 15.4758C26.3335 15.6603 26.6083 15.9103 26.822 16.2093C27.0275 16.5124 27.141 16.8685 27.1486 17.2347C27.1562 17.6009 27.0576 17.9615 26.8647 18.2729C26.493 18.8136 25.7946 19.1448 25.6482 19.7823C25.5468 20.2329 25.7338 20.7938 25.4026 21.116C25.2587 21.2274 25.0778 21.2798 24.8966 21.2627C24.7154 21.2455 24.5476 21.16 24.4271 21.0236C24.1967 20.736 24.0869 20.3701 24.1207 20.0031C24.122 19.7916 24.1601 19.5819 24.2334 19.3836C24.5555 18.577 25.6437 18.1332 25.6594 17.2636C25.6597 17.0559 25.5946 16.8533 25.4733 16.6847C25.352 16.516 25.1806 16.3899 24.9836 16.3241C24.666 16.225 24.2424 16.3625 24.1815 16.6891C24.1388 16.9144 24.274 17.124 24.3033 17.347C24.3505 17.6533 24.1771 17.9688 23.6702 18.0972Z" fill="#1AD98A"/>
<path d="M25.0065 21.4738H24.9839C24.722 21.4651 24.4737 21.3544 24.2923 21.1652C24.026 20.8411 23.8981 20.425 23.9363 20.0072C23.9393 19.7763 23.9819 19.5477 24.0625 19.3313C24.2403 18.9615 24.4918 18.6319 24.8014 18.3626C25.1439 18.0202 25.4773 17.6868 25.4773 17.279C25.4772 17.1133 25.4248 16.9519 25.3278 16.8176C25.2308 16.6833 25.0939 16.5831 24.9366 16.531C24.8664 16.5104 24.7928 16.504 24.7201 16.5122C24.6474 16.5202 24.577 16.5428 24.5131 16.5784C24.4808 16.5951 24.4527 16.6188 24.4305 16.6475C24.4083 16.6763 24.3927 16.7096 24.3847 16.7451C24.3786 16.8529 24.3971 16.9607 24.4387 17.0605C24.4696 17.1515 24.493 17.2449 24.5086 17.3398C24.5558 17.6957 24.3756 18.1351 23.7246 18.3018C23.7021 18.3052 23.6794 18.3052 23.657 18.3018C23.3271 18.2554 23.023 18.0976 22.7951 17.8546C22.5673 17.6117 22.4294 17.298 22.4043 16.9658C22.3894 16.6444 22.4585 16.3246 22.6052 16.038C22.7518 15.7516 22.9707 15.5084 23.2402 15.3325C23.7678 14.9964 24.399 14.862 25.0177 14.954C25.4112 14.9952 25.7914 15.1195 26.1332 15.3187C26.475 15.518 26.7705 15.7876 27.0003 16.1097C27.2285 16.4462 27.3537 16.842 27.3605 17.2485C27.3673 17.655 27.2554 18.0548 27.0385 18.3987C26.878 18.6161 26.6936 18.8148 26.4888 18.9912C26.2005 19.257 25.9301 19.5093 25.8536 19.8428C25.8251 19.9942 25.8137 20.1483 25.8198 20.3024C25.8198 20.629 25.8198 21.0007 25.5494 21.2643C25.4028 21.4024 25.2079 21.4776 25.0065 21.4738ZM24.7812 16.1052C24.8721 16.1051 24.9625 16.1189 25.0492 16.1458C25.2877 16.222 25.4956 16.3724 25.6427 16.575C25.7898 16.7776 25.8684 17.0219 25.867 17.2722C25.867 17.8467 25.4616 18.2432 25.0785 18.6239C24.8085 18.8569 24.5872 19.141 24.4274 19.4597C24.3614 19.6371 24.3279 19.8248 24.3283 20.014C24.2982 20.3286 24.3893 20.6428 24.5829 20.8926C24.6918 21.0057 24.8405 21.072 24.9974 21.0773C25.0993 21.0823 25.199 21.0466 25.2745 20.9782C25.4278 20.8295 25.4278 20.5839 25.4278 20.3024C25.4189 20.1159 25.4325 19.9291 25.4683 19.7459C25.5696 19.2953 25.8985 18.9912 26.2163 18.696C26.4004 18.5392 26.5666 18.3624 26.7119 18.1689C26.8844 17.8891 26.9723 17.5652 26.9647 17.2366C26.9571 16.9079 26.8544 16.5886 26.6691 16.317C26.4696 16.0442 26.2148 15.8167 25.9213 15.6495C25.6278 15.4821 25.3022 15.3787 24.9659 15.346C24.4414 15.2642 23.9051 15.3755 23.4565 15.6592C23.2421 15.7946 23.067 15.9838 22.9485 16.2079C22.8299 16.432 22.772 16.6832 22.7806 16.9366C22.7991 17.1709 22.8936 17.3926 23.0498 17.5683C23.206 17.744 23.4152 17.8639 23.6457 17.9098C23.9723 17.8174 24.1391 17.6282 24.0963 17.3894C24.0848 17.3126 24.066 17.2372 24.0399 17.1641C23.9761 17.004 23.9536 16.8304 23.9746 16.6594C23.9926 16.5693 24.0299 16.4842 24.084 16.41C24.1381 16.3357 24.2076 16.274 24.2878 16.2291C24.4366 16.1424 24.6068 16.0995 24.7789 16.1052H24.7812Z" fill="#252636"/>
<path d="M25.2045 22.1509C25.0677 22.1037 24.9216 22.0901 24.7785 22.1113C24.6354 22.1325 24.4994 22.1877 24.3821 22.2726C24.2388 22.3863 24.1369 22.5442 24.0923 22.7216C24.0479 22.8991 24.0631 23.0864 24.1359 23.2543C24.2086 23.4222 24.3346 23.5615 24.4945 23.6504C24.6545 23.7394 24.8393 23.773 25.0203 23.7463C25.2014 23.7195 25.3685 23.6338 25.4959 23.5023C25.6231 23.3708 25.7035 23.201 25.7245 23.0193C25.7455 22.8375 25.7059 22.6538 25.6119 22.4968C25.5178 22.3398 25.3746 22.2182 25.2045 22.1509Z" fill="#1AD98A"/>
<path d="M24.866 24.0049C24.8337 24.0071 24.8014 24.0071 24.7691 24.0049C24.528 23.9755 24.3042 23.8646 24.1349 23.6904C23.9656 23.5162 23.8611 23.2892 23.8387 23.0474C23.8285 22.8701 23.8623 22.6931 23.9369 22.5319C24.0116 22.3708 24.1249 22.2305 24.2667 22.1237C24.4096 22.0203 24.5752 21.9526 24.7496 21.9264C24.9241 21.9001 25.1022 21.916 25.2692 21.9728C25.4877 22.0714 25.6664 22.2412 25.776 22.4545C25.8856 22.6676 25.9199 22.9117 25.8731 23.1468C25.8264 23.3819 25.7013 23.5943 25.5184 23.7492C25.3356 23.9043 25.1056 23.9928 24.866 24.0003V24.0049ZM24.9155 22.2994C24.7661 22.299 24.6203 22.3454 24.4988 22.4323C24.3922 22.5217 24.3178 22.6436 24.2871 22.7793C24.2564 22.915 24.2711 23.0569 24.3289 23.1834C24.3868 23.31 24.4845 23.414 24.6072 23.4796C24.7299 23.5452 24.8707 23.5688 25.008 23.5465C25.1453 23.5244 25.2716 23.4577 25.3673 23.3569C25.4632 23.256 25.5233 23.1265 25.5383 22.9883C25.5534 22.85 25.5227 22.7105 25.4509 22.5914C25.3791 22.4723 25.2701 22.38 25.1408 22.3288C25.0678 22.3067 24.9918 22.2968 24.9155 22.2994Z" fill="#252636"/>
<path d="M10.8583 21.2031H5.15186V32.3436H10.8583V21.2031Z" fill="white"/>
<path d="M10.8694 32.5425H5.15157C5.09958 32.5425 5.04973 32.5219 5.01298 32.4851C4.97622 32.4483 4.95557 32.3985 4.95557 32.3465V21.2038C4.95557 21.1518 4.97622 21.1019 5.01298 21.0652C5.04973 21.0285 5.09958 21.0078 5.15157 21.0078H10.8694C10.9214 21.0078 10.9711 21.0285 11.008 21.0652C11.0447 21.1019 11.0654 21.1518 11.0654 21.2038V32.3465C11.0654 32.3985 11.0447 32.4483 11.008 32.4851C10.9711 32.5219 10.9214 32.5425 10.8694 32.5425ZM5.34757 32.1505H10.6621V21.3998H5.34757V32.1505Z" fill="#252636"/>
<g opacity="0.13">
<path opacity="0.13" d="M29.3792 28.0469L29.3635 28.0604L29.3252 28.0897C29.3447 28.0774 29.3628 28.063 29.3792 28.0469Z" fill="#252636"/>
</g>
</g>
</svg>
