<svg width="40" height="40" viewBox="0 0 40 40" fill="none" xmlns="http://www.w3.org/2000/svg">
<path d="M12.23 26.0929C18.0827 26.0929 22.8273 21.3483 22.8273 15.4957C22.8273 9.64298 18.0827 4.89844 12.23 4.89844C6.37735 4.89844 1.63281 9.64298 1.63281 15.4957C1.63281 21.3483 6.37735 26.0929 12.23 26.0929Z" fill="#ECFCF1"/>
<mask id="mask0_9619_95211" style="mask-type:luminance" maskUnits="userSpaceOnUse" x="6" y="11" width="33" height="25">
<path d="M38.3675 11.4297H6.53076V35.1032H38.3675V11.4297Z" fill="white"/>
</mask>
<g mask="url(#mask0_9619_95211)">
<path d="M38.1479 13.8086H6.75V34.9213H38.1479V13.8086Z" fill="white"/>
<path d="M38.1481 35.1039H6.75015C6.69196 35.1039 6.63617 35.0846 6.59502 35.0502C6.55387 35.0159 6.53076 34.9693 6.53076 34.9208V13.808C6.53076 13.7594 6.55387 13.7129 6.59502 13.6786C6.63617 13.6443 6.69196 13.625 6.75015 13.625H38.1481C38.2063 13.625 38.2621 13.6443 38.3033 13.6786C38.3444 13.7129 38.3675 13.7594 38.3675 13.808V34.9208C38.3675 34.9693 38.3444 35.0159 38.3033 35.0502C38.2621 35.0846 38.2063 35.1039 38.1481 35.1039ZM6.96954 34.7377H37.9287V13.9911H6.96954V34.7377Z" fill="#252636"/>
<path d="M38.1479 11.6133H6.75V15.1524H38.1479V11.6133Z" fill="#1AD98A"/>
<path d="M38.1481 15.3349H6.75015C6.69196 15.3349 6.63617 15.3156 6.59502 15.2813C6.55387 15.247 6.53076 15.2005 6.53076 15.1519V11.6127C6.53076 11.5642 6.55387 11.5176 6.59502 11.4833C6.63617 11.449 6.69196 11.4297 6.75015 11.4297H38.1481C38.2063 11.4297 38.2621 11.449 38.3033 11.4833C38.3444 11.5176 38.3675 11.5642 38.3675 11.6127V15.1519C38.3675 15.2005 38.3444 15.247 38.3033 15.2813C38.2621 15.3156 38.2063 15.3349 38.1481 15.3349ZM6.96954 14.9688H37.9287V11.7958H6.96954V14.9688Z" fill="#252636"/>
<path d="M11.8696 19.3376C11.8691 19.2094 11.9143 19.0839 11.9993 18.9771C12.0844 18.8702 12.2055 18.7868 12.3473 18.7375C12.4892 18.6881 12.6455 18.6749 12.7963 18.6997C12.9472 18.7245 13.0858 18.786 13.1947 18.8766C13.3035 18.9671 13.3778 19.0826 13.4079 19.2083C13.4381 19.3341 13.4229 19.4646 13.3642 19.5831C13.3055 19.7016 13.2059 19.8029 13.0781 19.8743C12.9504 19.9455 12.8001 19.9836 12.6464 19.9836C12.5445 19.9839 12.4435 19.9674 12.3493 19.9351C12.2551 19.9027 12.1695 19.8552 12.0973 19.7952C12.0251 19.7352 11.9679 19.6638 11.9288 19.5854C11.8898 19.5069 11.8696 19.4227 11.8696 19.3376Z" fill="white"/>
<path d="M12.4692 20.1443C12.3077 20.1443 12.1499 20.0965 12.0156 20.0068C11.8814 19.9171 11.7768 19.7896 11.715 19.6404C11.6532 19.4913 11.637 19.3271 11.6685 19.1687C11.7 19.0105 11.7778 18.865 11.892 18.7508C12.0062 18.6367 12.1515 18.5589 12.3099 18.5274C12.4683 18.4959 12.6324 18.5121 12.7816 18.5738C12.9307 18.6356 13.0582 18.7403 13.148 18.8745C13.2377 19.0087 13.2855 19.1665 13.2855 19.328C13.2849 19.5443 13.1988 19.7517 13.0458 19.9047C12.8929 20.0576 12.6855 20.1438 12.4692 20.1443ZM12.4692 18.8723C12.3791 18.8723 12.2909 18.899 12.216 18.9491C12.141 18.9991 12.0826 19.0703 12.048 19.1536C12.0136 19.2369 12.0045 19.3285 12.0222 19.417C12.0397 19.5054 12.0831 19.5866 12.1469 19.6504C12.2106 19.7141 12.2919 19.7575 12.3803 19.7751C12.4687 19.7927 12.5604 19.7837 12.6436 19.7492C12.7269 19.7146 12.7981 19.6563 12.8482 19.5812C12.8982 19.5063 12.925 19.4182 12.925 19.328C12.925 19.2071 12.877 19.0912 12.7915 19.0057C12.706 18.9203 12.5901 18.8723 12.4692 18.8723Z" fill="#252636"/>
<path d="M15.6221 19.3374C15.6221 19.2096 15.6675 19.0847 15.7526 18.9785C15.8377 18.8723 15.9586 18.7895 16.1 18.7406C16.2415 18.6917 16.3971 18.6789 16.5473 18.7039C16.6975 18.7287 16.8354 18.7903 16.9437 18.8806C17.052 18.971 17.1257 19.0861 17.1555 19.2114C17.1854 19.3367 17.1701 19.4665 17.1115 19.5846C17.0529 19.7026 16.9537 19.8035 16.8264 19.8745C16.6991 19.9455 16.5493 19.9834 16.3963 19.9834C16.2945 19.9836 16.1937 19.9671 16.0996 19.9347C16.0055 19.9024 15.92 19.8548 15.8481 19.7948C15.7761 19.7347 15.7191 19.6634 15.6804 19.5849C15.6416 19.5064 15.6217 19.4223 15.6221 19.3374Z" fill="white"/>
<path d="M16.2182 20.1443C16.0567 20.1443 15.8989 20.0965 15.7647 20.0068C15.6304 19.9171 15.5258 19.7896 15.464 19.6404C15.4022 19.4913 15.386 19.3271 15.4176 19.1687C15.4491 19.0105 15.5268 18.865 15.641 18.7508C15.7551 18.6367 15.9006 18.5589 16.0589 18.5274C16.2173 18.4959 16.3814 18.5121 16.5306 18.5738C16.6798 18.6356 16.8073 18.7403 16.897 18.8745C16.9866 19.0087 17.0345 19.1665 17.0345 19.328C17.034 19.5443 16.9478 19.7517 16.7949 19.9047C16.6419 20.0576 16.4345 20.1438 16.2182 20.1443ZM16.2182 18.8723C16.1281 18.8723 16.0399 18.899 15.965 18.9491C15.89 18.9991 15.8316 19.0703 15.7971 19.1536C15.7626 19.2369 15.7535 19.3285 15.7711 19.417C15.7887 19.5054 15.8322 19.5866 15.8959 19.6504C15.9596 19.7141 16.0408 19.7575 16.1293 19.7751C16.2177 19.7927 16.3093 19.7837 16.3927 19.7492C16.4759 19.7146 16.5471 19.6563 16.5972 19.5812C16.6473 19.5063 16.674 19.4182 16.674 19.328C16.674 19.2071 16.626 19.0912 16.5405 19.0057C16.455 18.9203 16.3391 18.8723 16.2182 18.8723Z" fill="#252636"/>
<path d="M19.3711 19.3374C19.3711 19.2097 19.4164 19.0849 19.5014 18.9787C19.5864 18.8725 19.7071 18.7897 19.8484 18.7407C19.9897 18.6918 20.1453 18.6789 20.2953 18.7037C20.4455 18.7284 20.5834 18.7897 20.6917 18.8798C20.8002 18.9699 20.8741 19.0849 20.9042 19.21C20.9344 19.3352 20.9194 19.465 20.8612 19.5831C20.803 19.7011 20.7042 19.8022 20.5772 19.8735C20.4502 19.9446 20.3008 19.9829 20.1477 19.9833C20.0459 19.9836 19.945 19.9671 19.8508 19.9348C19.7566 19.9024 19.6708 19.8548 19.5988 19.7948C19.5266 19.7348 19.4693 19.6636 19.4303 19.585C19.3912 19.5065 19.3711 19.4224 19.3711 19.3374Z" fill="white"/>
<path d="M19.9706 20.1443C19.8092 20.1443 19.6513 20.0965 19.5171 20.0068C19.3828 19.9171 19.2782 19.7896 19.2164 19.6404C19.1546 19.4913 19.1385 19.3271 19.17 19.1687C19.2015 19.0105 19.2792 18.865 19.3934 18.7508C19.5075 18.6367 19.653 18.5589 19.8114 18.5274C19.9697 18.4959 20.1338 18.5121 20.2831 18.5738C20.4322 18.6356 20.5597 18.7403 20.6493 18.8745C20.7391 19.0087 20.787 19.1665 20.787 19.328C20.7864 19.5443 20.7002 19.7517 20.5472 19.9047C20.3942 20.0576 20.187 20.1438 19.9706 20.1443ZM19.9706 18.8723C19.8804 18.8723 19.7924 18.899 19.7174 18.9491C19.6424 18.9991 19.584 19.0703 19.5495 19.1536C19.515 19.2369 19.506 19.3285 19.5235 19.417C19.5412 19.5054 19.5845 19.5866 19.6483 19.6504C19.712 19.7141 19.7933 19.7575 19.8817 19.7751C19.9701 19.7927 20.0617 19.7837 20.145 19.7492C20.2284 19.7146 20.2995 19.6563 20.3496 19.5812C20.3997 19.5063 20.4264 19.4182 20.4264 19.328C20.4264 19.2682 20.4146 19.2089 20.3917 19.1536C20.3688 19.0983 20.3352 19.048 20.2929 19.0057C20.2506 18.9634 20.2004 18.9298 20.145 18.907C20.0897 18.884 20.0305 18.8723 19.9706 18.8723Z" fill="#252636"/>
<path d="M12.3511 29.1359C12.3058 29.1361 12.2616 29.1247 12.2244 29.1031C12.1873 29.0815 12.1591 29.0509 12.1436 29.0154C12.1281 28.98 12.1262 28.9414 12.1381 28.9049C12.1499 28.8685 12.175 28.836 12.2098 28.8119L17.5508 25.0455C17.5859 25.0217 17.629 25.0074 17.6742 25.0048C17.7193 25.0022 17.7643 25.0112 17.803 25.0308L23.2448 27.865L31.5791 19.659C31.5991 19.6393 31.6238 19.6234 31.6516 19.6121C31.6794 19.6009 31.7097 19.5947 31.7405 19.5938C31.7717 19.5934 31.8026 19.5984 31.8312 19.6085C31.8599 19.6188 31.8857 19.6338 31.907 19.6526L35.4676 22.832C35.4874 22.8495 35.5027 22.8701 35.5129 22.8926C35.5231 22.9152 35.5278 22.9391 35.5269 22.9632C35.5259 22.9872 35.5193 23.0108 35.5075 23.0327C35.4955 23.0546 35.4786 23.0743 35.4576 23.0908C35.4365 23.1072 35.4119 23.1201 35.3848 23.1285C35.3579 23.137 35.3292 23.141 35.3004 23.1401C35.2716 23.1394 35.2433 23.1339 35.217 23.124C35.1907 23.114 35.1671 23.0999 35.1474 23.0823L31.7481 20.0545L23.4567 28.2228C23.4222 28.2555 23.3752 28.2772 23.3236 28.2841C23.2721 28.291 23.2193 28.2827 23.1742 28.2606L17.7122 25.4117L12.4923 29.1023C12.4514 29.127 12.4014 29.1389 12.3511 29.1359Z" fill="#252636"/>
<path d="M17.6547 33.3139C17.6353 33.3139 17.6166 33.3075 17.6029 33.2961C17.5892 33.2846 17.5815 33.269 17.5815 33.2529V25.3814C17.5815 25.3734 17.5834 25.3655 17.5871 25.358C17.5908 25.3506 17.5962 25.3439 17.6029 25.3382C17.6098 25.3326 17.6178 25.3281 17.6267 25.325C17.6356 25.3219 17.6451 25.3203 17.6547 25.3203C17.6643 25.3203 17.6738 25.3219 17.6827 25.325C17.6915 25.3281 17.6996 25.3326 17.7064 25.3382C17.7132 25.3439 17.7186 25.3506 17.7223 25.358C17.726 25.3655 17.7278 25.3734 17.7278 25.3814V33.2592C17.726 33.2743 17.7174 33.2882 17.7039 33.2984C17.6904 33.3084 17.6728 33.314 17.6547 33.3139Z" fill="#252636"/>
<path d="M13.0643 33.3141C13.0449 33.3141 13.0263 33.3076 13.0126 33.2962C12.9989 33.2847 12.9912 33.2692 12.9912 33.253L13.0492 28.2641C13.0492 28.2561 13.051 28.2482 13.0547 28.2408C13.0584 28.2334 13.0638 28.2266 13.0706 28.221C13.0774 28.2154 13.0854 28.2108 13.0943 28.2078C13.1032 28.2047 13.1127 28.2031 13.1223 28.2031C13.1319 28.2031 13.1414 28.2047 13.1503 28.2078C13.1591 28.2108 13.1672 28.2154 13.174 28.221C13.1808 28.2266 13.1862 28.2334 13.1899 28.2408C13.1936 28.2482 13.1955 28.2561 13.1955 28.2641L13.1374 33.2678C13.1334 33.2812 13.1239 33.2932 13.1106 33.3017C13.0973 33.3101 13.081 33.3145 13.0643 33.3141Z" fill="#252636"/>
<path d="M23.243 33.3416C23.2335 33.3416 23.2242 33.3399 23.2154 33.3368C23.2067 33.3338 23.1988 33.3292 23.1922 33.3235C23.1855 33.3179 23.1804 33.3111 23.1771 33.3037C23.1736 33.2963 23.1721 33.2884 23.1724 33.2805L23.2279 27.9613C23.2279 27.9534 23.2298 27.9456 23.2335 27.9382C23.2372 27.9309 23.2426 27.9243 23.2495 27.9189C23.2562 27.9134 23.2643 27.9091 23.2732 27.9062C23.282 27.9034 23.2915 27.9021 23.301 27.9024C23.3204 27.9024 23.339 27.9088 23.3527 27.9203C23.3664 27.9317 23.3741 27.9472 23.3741 27.9634L23.3187 33.2805C23.318 33.2969 23.3097 33.3124 23.2957 33.3238C23.2815 33.3352 23.2626 33.3416 23.243 33.3416Z" fill="#252636"/>
<path d="M31.7177 33.257C31.6983 33.257 31.6797 33.2506 31.666 33.2391C31.6523 33.2277 31.6445 33.2122 31.6445 33.196L31.7026 19.776C31.7026 19.7597 31.7102 19.7442 31.724 19.7328C31.7377 19.7213 31.7563 19.7149 31.7757 19.7149C31.7854 19.7146 31.7951 19.716 31.8041 19.719C31.8131 19.7219 31.8213 19.7264 31.8282 19.7321C31.8351 19.7378 31.8405 19.7447 31.844 19.7522C31.8476 19.7598 31.8492 19.7678 31.8489 19.776L31.7908 33.1981C31.7908 33.206 31.7889 33.2138 31.7853 33.2212C31.7815 33.2284 31.7761 33.2351 31.7693 33.2405C31.7624 33.246 31.7543 33.2503 31.7455 33.2532C31.7366 33.256 31.7271 33.2573 31.7177 33.257Z" fill="#252636"/>
</g>
</svg>
